<svg width="12" height="9" viewBox="0 0 12 9" fill="none" xmlns="http://www.w3.org/2000/svg">
<path d="M11.1749 8.91496H0.82509C0.370929 8.91496 0 8.54584 0 8.08987V0.825091C0 0.369119 0.369119 0 0.82509 0H11.1749C11.6291 0 12 0.369119 12 0.825091V8.08987C12 8.54403 11.6309 8.91496 11.1749 8.91496ZM0.82509 0.806996C0.82509 0.806996 0.806996 0.816043 0.806996 0.825091V8.08987C0.806996 8.08987 0.816043 8.10796 0.82509 8.10796H11.1749C11.1749 8.10796 11.193 8.09892 11.193 8.08987V0.825091C11.193 0.825091 11.184 0.806996 11.1749 0.806996H0.82509Z" fill="black"/>
<path d="M5.99677 5.30529C5.78869 5.30529 5.5806 5.23834 5.41776 5.10444L0.320652 0.8849C0.148758 0.741957 0.125236 0.48864 0.26637 0.316746C0.409313 0.144852 0.66263 0.12133 0.834524 0.262464L5.93163 4.48201C5.95877 4.50553 6.03296 4.50553 6.0601 4.48201L11.197 0.262464C11.3689 0.12133 11.624 0.146661 11.7652 0.318555C11.9063 0.490449 11.881 0.745576 11.7091 0.88671L6.57578 5.10625C6.41474 5.24015 6.20666 5.30529 5.99858 5.30529H5.99677Z" fill="black"/>
</svg>
