<svg width="21" height="25" viewBox="0 0 21 25" fill="none" xmlns="http://www.w3.org/2000/svg">
    <path d="M17.251 13.235a5.628 5.628 0 0 1 2.69-4.737 5.834 5.834 0 0 0-4.553-2.477c-1.941-.195-3.79 1.145-4.772 1.145-.982 0-2.503-1.112-4.112-1.08a6.099 6.099 0 0 0-5.157 3.121c-2.196 3.814-.562 9.465 1.584 12.557 1.045 1.513 2.292 3.213 3.929 3.152 1.581-.06 2.178-1.022 4.087-1.022 1.909 0 2.444 1.022 4.115.995 1.696-.036 2.774-1.55 3.81-3.066a13.819 13.819 0 0 0 1.723-3.543 5.497 5.497 0 0 1-3.344-5.044M14.111 3.977A5.466 5.466 0 0 0 15.41 0a5.58 5.58 0 0 0-3.668 1.886 5.221 5.221 0 0 0-1.325 3.859 4.624 4.624 0 0 0 3.695-1.767" fill="#1A1311"/>
</svg>
