<svg width="24" height="24" viewBox="0 0 24 24" fill="none" xmlns="http://www.w3.org/2000/svg">
<path fill-rule="evenodd" clip-rule="evenodd" d="M12.0709 12.0424C12.9575 12.0424 13.8217 11.7998 14.554 11.3485C15.2861 10.8974 15.8511 10.2597 16.1833 9.52016C16.5152 8.78118 16.6013 7.97031 16.4327 7.18843C16.264 6.40619 15.8465 5.68254 15.227 5.11116C14.6071 4.53945 13.8133 4.14671 12.9445 3.98731C12.0755 3.8279 11.1752 3.90996 10.3585 4.22194C9.54199 4.53387 8.84956 5.06003 8.36503 5.72883C7.88086 6.39713 7.625 7.17883 7.625 7.9752C7.625 9.04226 8.08429 10.0733 8.91474 10.8393C9.74635 11.6062 10.8811 12.0424 12.0709 12.0424ZM12.0709 5.30211C12.6297 5.30211 13.1784 5.45479 13.6479 5.74414C14.1177 6.03365 14.4894 6.44863 14.7104 6.94074C14.9317 7.4334 14.9902 7.97779 14.8769 8.50341C14.7636 9.02866 14.485 9.50602 14.0825 9.8773C13.6803 10.2482 13.1718 10.4975 12.623 10.5981C12.0743 10.6988 11.5052 10.6474 10.9865 10.4492C10.4676 10.251 10.0186 9.91321 9.70009 9.47356C9.38122 9.03342 9.20846 8.51195 9.20846 7.9752C9.20846 7.25462 9.51914 6.57126 10.0593 6.07311C10.5982 5.57603 11.3223 5.30211 12.0709 5.30211Z" fill="#202020"/>
<path fill-rule="evenodd" clip-rule="evenodd" d="M12.1 13.4658C9.94112 13.4658 7.8769 14.2571 6.36001 15.6561C4.84428 17.0541 4 18.9423 4 20.9032C4 21.0765 4.0743 21.2503 4.21947 21.3842C4.36579 21.5192 4.57112 21.6003 4.79173 21.6003C5.01234 21.6003 5.21766 21.5192 5.36399 21.3842C5.50915 21.2503 5.58346 21.0765 5.58346 20.9032C5.58346 19.2888 6.27913 17.7482 7.50453 16.6181C8.72877 15.489 10.3823 14.86 12.1 14.86C13.8177 14.86 15.4712 15.489 16.6955 16.6181C17.9209 17.7482 18.6165 19.2888 18.6165 20.9032C18.6165 21.0765 18.6908 21.2503 18.836 21.3842C18.9823 21.5192 19.1877 21.6003 19.4083 21.6003C19.6289 21.6003 19.8342 21.5192 19.9805 21.3842C20.1257 21.2503 20.2 21.0765 20.2 20.9032C20.2 18.9423 19.3557 17.0541 17.84 15.6561C16.3231 14.2571 14.2589 13.4658 12.1 13.4658Z" fill="#202020"/>
</svg>
