<svg width="24" height="24" viewBox="0 0 24 24" fill="none" xmlns="http://www.w3.org/2000/svg">
<path d="M16.1684 16.387C15.5955 16.387 15.0759 16.5917 14.6695 16.9318L9.41673 13.026C9.56995 12.719 9.65988 12.3723 9.65988 12.0059C9.65988 11.6394 9.56995 11.2927 9.41673 10.9857L14.6728 7.07996C15.0792 7.41672 15.5988 7.62141 16.1717 7.62141C17.4574 7.62141 18.5 6.58803 18.5 5.31364C18.5 4.03924 17.4574 3.00586 16.1717 3.00586C14.886 3.00586 13.8434 4.03924 13.8434 5.31364C13.8434 5.72303 13.9534 6.10931 14.1399 6.44276L8.92043 10.3221C8.50407 9.93579 7.94449 9.69808 7.32828 9.69808C6.04256 9.69808 5 10.7315 5 12.0059C5 13.2803 6.04256 14.3136 7.32828 14.3136C7.94449 14.3136 8.50407 14.0759 8.92043 13.6896L14.1399 17.569C13.95 17.9024 13.8401 18.2887 13.8401 18.6981C13.8401 19.9725 14.8827 21.0059 16.1684 21.0059C17.4541 21.0059 18.4967 19.9725 18.4967 18.6981C18.4967 17.4237 17.4541 16.3903 16.1684 16.3903V16.387ZM16.1684 3.82794C16.9944 3.82794 17.664 4.49155 17.664 5.31033C17.664 6.12912 16.9944 6.79273 16.1684 6.79273C15.3423 6.79273 14.6728 6.12912 14.6728 5.31033C14.6728 4.49155 15.3423 3.82794 16.1684 3.82794ZM7.32828 13.4849C6.50222 13.4849 5.83272 12.8213 5.83272 12.0026C5.83272 11.1838 6.50222 10.5202 7.32828 10.5202C8.15433 10.5202 8.82383 11.1838 8.82383 12.0026C8.82383 12.8213 8.15433 13.4849 7.32828 13.4849ZM16.1684 20.1772C15.3423 20.1772 14.6728 19.5136 14.6728 18.6948C14.6728 17.876 15.3423 17.2124 16.1684 17.2124C16.9944 17.2124 17.664 17.876 17.664 18.6948C17.664 19.5136 16.9944 20.1772 16.1684 20.1772Z" fill="#777777"/>
<path fill-rule="evenodd" clip-rule="evenodd" d="M13.8434 5.31403C13.8434 3.98357 14.9316 2.90625 16.2717 2.90625C17.6118 2.90625 18.7 3.98357 18.7 5.31403C18.7 6.64448 17.6118 7.7218 16.2717 7.7218C15.7029 7.7218 15.1843 7.52815 14.7705 7.20667L9.64244 11.0172C9.78 11.3181 9.85988 11.6532 9.85988 12.0063C9.85988 12.3593 9.78 12.6944 9.64243 12.9953L14.7669 16.8056C15.1809 16.4811 15.6996 16.2874 16.2684 16.2874H16.3684V16.2927C17.6622 16.3447 18.6967 17.4013 18.6967 18.6985C18.6967 20.0289 17.6085 21.1063 16.2684 21.1063C14.9283 21.1063 13.8401 20.0289 13.8401 18.6985C13.8401 18.3026 13.9386 17.9274 14.1105 17.5978L9.02634 13.819C8.59941 14.1888 8.04054 14.414 7.42828 14.414C6.08817 14.414 5 13.3367 5 12.0063C5 10.6758 6.08817 9.59847 7.42828 9.59847C8.04054 9.59847 8.59941 9.82367 9.02634 10.1935L14.111 6.41435C13.942 6.085 13.8434 5.71 13.8434 5.31403ZM16.1684 16.4896C15.6596 16.5118 15.199 16.7031 14.8337 17.0088L14.7732 17.0595L9.38986 13.0567L9.42725 12.9818C9.57402 12.6877 9.65988 12.3562 9.65988 12.0063C9.65988 11.6563 9.57402 11.3248 9.42725 11.0307L9.38985 10.9558L14.7762 6.95326L14.8366 7.00335C15.226 7.32598 15.7232 7.5218 16.2717 7.5218C17.503 7.5218 18.5 6.53236 18.5 5.31403C18.5 4.09569 17.503 3.10625 16.2717 3.10625C15.0404 3.10625 14.0434 4.09569 14.0434 5.31403C14.0434 5.70537 14.1485 6.07495 14.3272 6.39433L14.3701 6.47101L9.01336 10.4523L8.95242 10.3958C8.55382 10.026 8.01827 9.79847 7.42828 9.79847C6.19695 9.79847 5.2 10.7879 5.2 12.0063C5.2 13.2246 6.19695 14.214 7.42828 14.214C8.01827 14.214 8.55382 13.9865 8.95242 13.6167L9.01336 13.5602L14.3706 17.5419L14.3268 17.6188C14.1452 17.9378 14.0401 18.3071 14.0401 18.6985C14.0401 19.9168 15.0371 20.9062 16.2684 20.9062C17.4997 20.9062 18.4967 19.9168 18.4967 18.6985C18.4967 17.4801 17.4997 16.4907 16.2684 16.4907H16.1684V16.4896ZM16.2684 3.92833C15.4967 3.92833 14.8728 4.548 14.8728 5.31073C14.8728 6.07345 15.4967 6.69312 16.2684 6.69312C17.0401 6.69312 17.664 6.07345 17.664 5.31073C17.664 4.548 17.0401 3.92833 16.2684 3.92833ZM14.6728 5.31073C14.6728 4.43588 15.3879 3.72833 16.2684 3.72833C17.1488 3.72833 17.864 4.43588 17.864 5.31073C17.864 6.18557 17.1488 6.89312 16.2684 6.89312C15.3879 6.89312 14.6728 6.18557 14.6728 5.31073ZM7.42828 10.6206C6.65661 10.6206 6.03272 11.2402 6.03272 12.0029C6.03272 12.7657 6.65661 13.3853 7.42828 13.3853C8.19994 13.3853 8.82383 12.7657 8.82383 12.0029C8.82383 11.2402 8.19994 10.6206 7.42828 10.6206ZM5.83272 12.0029C5.83272 11.1281 6.54783 10.4206 7.42828 10.4206C8.30872 10.4206 9.02383 11.1281 9.02383 12.0029C9.02383 12.8778 8.30872 13.5853 7.42828 13.5853C6.54783 13.5853 5.83272 12.8778 5.83272 12.0029ZM16.2684 17.3128C15.4967 17.3128 14.8728 17.9324 14.8728 18.6952C14.8728 19.4579 15.4967 20.0776 16.2684 20.0776C17.0401 20.0776 17.664 19.4579 17.664 18.6952C17.664 17.9325 17.0401 17.3128 16.2684 17.3128ZM14.6728 18.6952C14.6728 17.8203 15.3879 17.1128 16.2684 17.1128C17.1488 17.1128 17.864 17.8203 17.864 18.6952C17.864 19.57 17.1488 20.2776 16.2684 20.2776C15.3879 20.2776 14.6728 19.57 14.6728 18.6952Z" fill="#777777"/>
</svg>
