<svg width="30" height="30" viewBox="0 0 30 30" fill="none" xmlns="http://www.w3.org/2000/svg">
<path fill-rule="evenodd" clip-rule="evenodd" d="M12.8846 27.0039C12.8846 27.0039 10.8955 26.655 9.13506 25.688L5.62278 26.6825C5.62278 26.6825 5.14045 26.8236 4.64575 26.697C4.64575 26.697 4.15104 26.5705 3.78996 26.2094C3.78996 26.2094 3.42889 25.8483 3.30235 25.3536C3.30235 25.3536 3.1758 24.8589 3.31914 24.3688L4.31135 20.8643C4.31135 20.8643 3.3444 19.1039 2.9955 17.1148C2.9955 17.1148 2.61118 14.9238 3.02641 12.7384C3.02641 12.7384 3.44163 10.5531 4.60275 8.65568C4.60275 8.65568 5.76387 6.75831 7.52088 5.39407C7.52088 5.39407 9.27788 4.02983 11.4038 3.37497C11.4038 3.37497 13.5296 2.72011 15.7498 2.85924C15.7498 2.85924 17.9699 2.99838 19.9973 3.91353C19.9973 3.91353 22.0248 4.82868 23.5978 6.40161C23.5978 6.40161 25.1707 7.97453 26.0858 10.002C26.0858 10.002 27.001 12.0295 27.1401 14.2496C27.1401 14.2496 27.2793 16.4697 26.6244 18.5956C26.6244 18.5956 25.9695 20.7215 24.6053 22.4785C24.6053 22.4785 23.2411 24.2355 21.3437 25.3966C21.3437 25.3966 19.4463 26.5577 17.261 26.973C17.261 26.973 15.0756 27.3882 12.8846 27.0039ZM16.911 25.1309C16.911 25.1309 13.086 25.8577 9.73668 23.8728C9.51564 23.7418 9.24985 23.7068 9.00261 23.7768L5.1245 24.8748L6.22255 20.9968C6.29255 20.7495 6.25801 20.4844 6.12699 20.2634C6.12699 20.2634 4.14163 16.9138 4.86845 13.0884C4.86845 13.0884 5.59528 9.26307 8.6708 6.87505C8.6708 6.87505 11.7463 4.48703 15.6325 4.73057C15.6325 4.73057 19.5186 4.97412 22.2719 7.72743C22.2719 7.72743 25.0253 10.4807 25.2688 14.3669C25.2688 14.3669 25.5124 18.2531 23.1243 21.3286C23.1243 21.3286 20.7363 24.4041 16.911 25.1309Z" fill="white"/>
<path d="M16.4065 14.9992C16.4065 15.7758 15.7769 16.4054 15.0002 16.4054C14.2236 16.4054 13.594 15.7758 13.594 14.9992C13.594 14.2225 14.2236 13.5929 15.0002 13.5929C15.7769 13.5929 16.4065 14.2225 16.4065 14.9992Z" fill="white"/>
<path d="M10.7815 14.9992C10.7815 15.7758 10.1519 16.4054 9.37523 16.4054C8.59857 16.4054 7.96898 15.7758 7.96898 14.9992C7.96898 14.2225 8.59857 13.5929 9.37523 13.5929C10.1519 13.5929 10.7815 14.2225 10.7815 14.9992Z" fill="white"/>
<path d="M22.0315 14.9992C22.0315 15.7758 21.4019 16.4054 20.6252 16.4054C19.8486 16.4054 19.219 15.7758 19.219 14.9992C19.219 14.2225 19.8486 13.5929 20.6252 13.5929C21.4019 13.5929 22.0315 14.2225 22.0315 14.9992Z" fill="white"/>
</svg>
