<svg width="24" height="24" viewBox="0 0 24 24" fill="none" xmlns="http://www.w3.org/2000/svg">
<path fill-rule="evenodd" clip-rule="evenodd" d="M4 4C4 3.44772 4.44772 3 5 3H19C19.5523 3 20 3.44772 20 4C20 4.55228 19.5523 5 19 5H5C4.44772 5 4 4.55228 4 4Z" fill="#1686F2"/>
<path fill-rule="evenodd" clip-rule="evenodd" d="M13 7C13 6.44772 13.4477 6 14 6H19C19.5523 6 20 6.44772 20 7C20 7.55228 19.5523 8 19 8H14C13.4477 8 13 7.55228 13 7Z" fill="#1686F2"/>
<path d="M18.75 20.9998H5.25C4.66195 21.0069 4.095 20.7853 3.67329 20.3834C3.25158 19.9815 3.00948 19.4322 3 18.8558V8.14424C3.00948 7.56776 3.25158 7.01845 3.67329 6.6166C4.095 6.21474 4.66195 5.99309 5.25 6.00016H9.39C9.52294 6.00103 9.65403 6.03075 9.77385 6.0872C9.89367 6.14364 9.99925 6.22541 10.083 6.32663L12.423 9.13245H18.723C19.0164 9.12542 19.3084 9.17544 19.582 9.27961C19.8556 9.38377 20.1055 9.54004 20.3172 9.73937C20.5289 9.93871 20.6982 10.1772 20.8154 10.441C20.9326 10.7048 20.9953 10.9888 21 11.2765V18.8558C20.9905 19.4322 20.7484 19.9815 20.3267 20.3834C19.905 20.7853 19.3381 21.0069 18.75 20.9998ZM4.8 15.0529V18.8558C4.80339 18.9099 4.81782 18.9628 4.84242 19.0114C4.86703 19.06 4.90133 19.1033 4.94328 19.1386C4.98523 19.174 5.03399 19.2008 5.08667 19.2173C5.13935 19.2339 5.19489 19.24 5.25 19.2352H18.75C18.8051 19.24 18.8607 19.2339 18.9133 19.2173C18.966 19.2008 19.0148 19.174 19.0567 19.1386C19.0987 19.1033 19.133 19.06 19.1576 19.0114C19.1822 18.9628 19.1966 18.9099 19.2 18.8558V11.2765C19.1966 11.2224 19.1822 11.1695 19.1576 11.1209C19.133 11.0723 19.0987 11.029 19.0567 10.9937C19.0148 10.9583 18.966 10.9315 18.9133 10.9149C18.8607 10.8984 18.8051 10.8923 18.75 10.8971H12C11.8671 10.8963 11.736 10.8665 11.6162 10.8101C11.4963 10.7536 11.3907 10.6719 11.307 10.5707L8.967 7.76483H5.25C5.19489 7.76001 5.13935 7.76607 5.08667 7.78266C5.03399 7.79924 4.98523 7.826 4.94328 7.86137C4.90133 7.89674 4.86703 7.94 4.84242 7.98858C4.81782 8.03717 4.80339 8.09009 4.8 8.14424V15.0529Z" fill="#1686F2"/>
</svg>
