<svg width="24" height="24" viewBox="0 0 24 24" fill="none" xmlns="http://www.w3.org/2000/svg">
<g clip-path="url(#clip0_302_339)">
<path d="M23.2665 13.1758H23.1388V10.3316L23.3294 10.2546C23.7413 10.0871 24.0034 9.69677 24 9.25791C23.9966 8.82072 23.7277 8.43211 23.3141 8.2713L12.7106 4.13393C12.2528 3.9547 11.7473 3.9547 11.2894 4.13393L0.685941 8.26963C0.272354 8.43211 0.00343657 8.81905 3.25537e-05 9.25623C-0.00337146 9.69342 0.26044 10.0854 0.670623 10.2529L3.25087 11.3031V17.5678C3.25087 19.4456 8.47092 20.3199 11.9992 20.3199C12.3753 20.3199 12.68 20.0201 12.68 19.6499C12.68 19.2797 12.3753 18.9799 11.9992 18.9799C7.85309 18.9799 5.01925 17.9598 4.61247 17.4841V11.8576L11.2622 14.5645C11.5005 14.6616 11.749 14.7102 11.9992 14.7102C12.2494 14.7102 12.4979 14.6616 12.7362 14.5645L19.3859 11.8576V17.1206C19.2259 17.3584 18.3119 17.9732 16.3801 18.4573C16.0159 18.5477 15.7964 18.9129 15.8883 19.2713C15.9666 19.5745 16.244 19.7772 16.5469 19.7772C16.6031 19.7772 16.6593 19.7705 16.7154 19.7571C17.9273 19.4539 20.7475 18.5963 20.7475 17.1826V11.3031L22.6265 10.5376V13.1742H22.4989C22.247 13.1742 22.041 13.3752 22.041 13.6248V15.9648C22.041 16.2127 22.2453 16.4154 22.4989 16.4154H23.2648C23.5167 16.4154 23.7226 16.2144 23.7226 15.9648V13.6248C23.7226 13.3769 23.5184 13.1742 23.2648 13.1742L23.2665 13.1758ZM12.217 13.3266C12.0775 13.3836 11.9243 13.3836 11.7847 13.3266L1.81948 9.26963L11.7915 5.38017C11.926 5.32824 12.0741 5.32824 12.2085 5.38017L22.1823 9.27131L12.217 13.3283V13.3266Z" fill="#1686F2"/>
</g>
<defs>
<clipPath id="clip0_302_339">
<rect width="24" height="16.32" fill="white" transform="translate(0 4)"/>
</clipPath>
</defs>
</svg>
