<svg width="56" height="56" viewBox="0 0 56 56" fill="none" xmlns="http://www.w3.org/2000/svg">
<circle cx="28" cy="28" r="28" fill="#1686F2"/>
<g clip-path="url(#clip0_839_6440)">
<path fill-rule="evenodd" clip-rule="evenodd" d="M33.0992 38.5961H39.1321C39.6106 38.5961 39.9944 38.2009 39.9944 37.7211C39.9944 35.6099 39.0209 33.6567 37.3686 32.4035V24.5062C37.3686 19.2676 33.1683 15 28 15C22.8317 15 18.6259 19.2676 18.6259 24.5062V32.4035C16.9736 33.6567 16 35.6099 16 37.7211C16 38.2066 16.3894 38.5961 16.8623 38.5961H22.9001C23.767 40.6505 25.7604 41.9992 27.9974 42.0003C27.9965 42.0003 27.9955 42.0003 27.9946 42.0003H28.0002C27.9992 42.0003 27.9983 42.0003 27.9974 42.0003C30.2344 41.9992 32.2277 40.6505 33.0992 38.5961ZM31.0702 38.5961H24.9324C25.6277 39.5807 26.7587 40.1939 28.0002 40.1939C29.2417 40.1939 30.3759 39.5807 31.0702 38.5961ZM38.1975 36.8518H17.7969L17.8025 36.8461C18.0362 35.5195 18.8039 34.3397 19.9555 33.5946C20.2003 33.4365 20.3505 33.1599 20.3505 32.8608V24.5062C20.3505 20.2273 23.783 16.7499 28 16.7499C32.217 16.7499 35.6495 20.2329 35.6495 24.5118V32.8664C35.6495 33.1599 35.7997 33.4422 36.0445 33.6003C37.1961 34.3454 37.9638 35.5195 38.1975 36.8518Z" fill="white" fill-opacity="0.3"/>
</g>
<defs>
<clipPath id="clip0_839_6440">
<rect width="24" height="27" fill="white" transform="translate(16 15)"/>
</clipPath>
</defs>
</svg>
