<svg width="24" height="24" viewBox="0 0 24 24" fill="none" xmlns="http://www.w3.org/2000/svg">
<g clip-path="url(#clip0_302_432)">
<path d="M19.3249 5.74283H8.73323L7.93488 3.49121C7.83001 3.19724 7.54247 3.00342 7.2211 3.00342H2.72529C2.40054 3.00342 2.11299 3.20047 2.01151 3.49121L1.04063 6.23063C1.03048 6.2597 1.02372 6.28554 1.01695 6.31462V6.32108C1.0068 6.36307 1.00342 6.40507 1.00342 6.44706C1.00342 6.45029 1.00342 6.45676 1.00342 6.45999V16.9589C1.00342 18.4449 2.2686 19.6499 3.82133 19.6499H21.3919C21.8079 19.6499 22.1462 19.3268 22.1462 18.9295V8.43378C22.1462 6.94778 20.881 5.74283 19.3283 5.74283H19.3249ZM3.26654 4.44096H6.67984L7.13991 5.74283H2.80648L3.26654 4.44096ZM20.6375 18.2091H3.81795C3.09402 18.2091 2.50879 17.647 2.50879 16.9557V7.1836H19.3249C20.0489 7.1836 20.6341 7.7457 20.6341 8.43701V18.2123L20.6375 18.2091Z" fill="#1686F2"/>
<path d="M22.7956 19.8535C24.3967 18.3245 24.3967 15.8454 22.7956 14.3164C21.1944 12.7874 18.5984 12.7874 16.9973 14.3164C15.3961 15.8454 15.3961 18.3245 16.9973 19.8535C18.5984 21.3825 21.1944 21.3825 22.7956 19.8535Z" fill="#1686F2"/>
<path d="M19.1454 18.897C19.1218 18.897 19.0947 18.897 19.071 18.8938C18.8883 18.8744 18.7226 18.7839 18.6143 18.6418L17.6265 17.3626C17.41 17.0815 17.4709 16.6874 17.7652 16.4806C18.0596 16.2739 18.4723 16.332 18.6888 16.6131L19.2571 17.3464L21.2124 15.7409C21.4898 15.5147 21.9059 15.5438 22.1427 15.8087C22.3795 16.0736 22.349 16.471 22.0716 16.6971L19.5785 18.7452C19.4567 18.8453 19.3044 18.897 19.1488 18.897H19.1454Z" fill="white"/>
</g>
<defs>
<clipPath id="clip0_302_432">
<rect width="23" height="18" fill="white" transform="translate(1 3)"/>
</clipPath>
</defs>
</svg>
