<svg width="24" height="24" viewBox="0 0 24 24" fill="none" xmlns="http://www.w3.org/2000/svg">
<path fill-rule="evenodd" clip-rule="evenodd" d="M12.0004 20.3999C7.36948 20.3999 3.60039 16.6308 3.60039 11.9999C3.60039 7.36899 7.36948 3.5999 12.0004 3.5999C16.6313 3.5999 20.4004 7.36899 20.4004 11.9999C20.4004 16.6308 16.6313 20.3999 12.0004 20.3999ZM12.0004 2.3999C10.7397 2.3999 9.49135 2.64821 8.32663 3.13066C7.1619 3.6131 6.10361 4.32023 5.21217 5.21168C3.41182 7.01203 2.40039 9.45382 2.40039 11.9999C2.40039 14.546 3.41182 16.9878 5.21217 18.7881C6.10361 19.6796 7.1619 20.3867 8.32663 20.8691C9.49135 21.3516 10.7397 21.5999 12.0004 21.5999C14.5465 21.5999 16.9883 20.5885 18.7886 18.7881C20.589 16.9878 21.6004 14.546 21.6004 11.9999C21.6004 10.7392 21.3521 9.49087 20.8696 8.32614C20.3872 7.16142 19.6801 6.10312 18.7886 5.21168C17.8972 4.32023 16.8389 3.6131 15.6742 3.13066C14.5094 2.64821 13.2611 2.3999 12.0004 2.3999Z" fill="#202020"/>
<rect x="11" y="7" width="2" height="2" fill="#202020"/>
<rect x="11" y="10" width="2" height="7" fill="#202020"/>
</svg>
