<svg width="15" height="18" viewBox="0 0 15 18" fill="none" xmlns="http://www.w3.org/2000/svg">
<g clip-path="url(#clip0_1859_11551)">
<path d="M8.11937 11.8861C8.11937 11.2729 7.62184 10.7754 7.00866 10.7754C6.39548 10.7754 5.89795 11.2729 5.89795 11.8861C5.89795 12.3379 6.16689 12.7252 6.55416 12.9V14.043C6.55416 14.2931 6.75855 14.4975 7.00866 14.4975C7.25877 14.4975 7.46317 14.2931 7.46317 14.043V12.9C7.85044 12.7252 8.11937 12.3379 8.11937 11.8861Z" fill="#1686F2"/>
<path d="M12.3631 7.27745H12.1721V5.16629C12.1721 2.31555 9.85657 0 7.00852 0C4.16047 0 1.84491 2.31555 1.84491 5.1636V7.27476H1.65397C0.742268 7.27476 0 8.01703 0 8.92873V16.3433C0 17.255 0.742268 17.9973 1.65397 17.9973H12.3631C13.2748 17.9973 14.017 17.255 14.017 16.3433V8.92873C14.017 8.01703 13.2748 7.27476 12.3631 7.27476V7.27745ZM3.04437 5.1636C3.04437 2.97714 4.82205 1.19946 7.00852 1.19946C9.19498 1.19946 10.9727 2.97714 10.9727 5.1636V7.27476H3.04437V5.1636ZM12.8176 16.346C12.8176 16.5961 12.6132 16.8005 12.3631 16.8005H1.65397C1.40385 16.8005 1.19946 16.5961 1.19946 16.346V8.93142C1.19946 8.68131 1.40385 8.47692 1.65397 8.47692H12.3631C12.6132 8.47692 12.8176 8.68131 12.8176 8.93142V16.346Z" fill="#515151"/>
</g>
<defs>
<clipPath id="clip0_1859_11551">
<rect width="14.017" height="18" fill="white"/>
</clipPath>
</defs>
</svg>
