<svg width="20" height="18" viewBox="0 0 20 18" fill="none" xmlns="http://www.w3.org/2000/svg">
<g clip-path="url(#clip0_2067_11508)">
<path d="M19.3475 7.14831H0.652524C0.292612 7.14831 0 6.8557 0 6.49579C0 6.13587 0.292612 5.84326 0.652524 5.84326H19.3475C19.7074 5.84326 20 6.13587 20 6.49579C20 6.8557 19.7074 7.14831 19.3475 7.14831Z" fill="#DDDDDD"/>
<path d="M4.88657 8.55322H4.44765C3.9596 8.55322 3.56396 8.94886 3.56396 9.43691V9.87583C3.56396 10.3639 3.9596 10.7595 4.44765 10.7595H4.88657C5.37462 10.7595 5.77026 10.3639 5.77026 9.87583V9.43691C5.77026 8.94886 5.37462 8.55322 4.88657 8.55322Z" fill="#DDDDDD"/>
<path d="M10.218 8.55322H9.77907C9.29103 8.55322 8.89539 8.94886 8.89539 9.43691V9.87583C8.89539 10.3639 9.29103 10.7595 9.77907 10.7595H10.218C10.706 10.7595 11.1017 10.3639 11.1017 9.87583V9.43691C11.1017 8.94886 10.706 8.55322 10.218 8.55322Z" fill="#DDDDDD"/>
<path d="M15.5523 8.55322H15.1134C14.6254 8.55322 14.2297 8.94886 14.2297 9.43691V9.87583C14.2297 10.3639 14.6254 10.7595 15.1134 10.7595H15.5523C16.0404 10.7595 16.436 10.3639 16.436 9.87583V9.43691C16.436 8.94886 16.0404 8.55322 15.5523 8.55322Z" fill="#DDDDDD"/>
<path d="M4.88657 12.0293H4.44765C3.9596 12.0293 3.56396 12.4249 3.56396 12.913V13.3519C3.56396 13.8399 3.9596 14.2356 4.44765 14.2356H4.88657C5.37462 14.2356 5.77026 13.8399 5.77026 13.3519V12.913C5.77026 12.4249 5.37462 12.0293 4.88657 12.0293Z" fill="#DDDDDD"/>
<path d="M10.218 12.0293H9.77907C9.29103 12.0293 8.89539 12.4249 8.89539 12.913V13.3519C8.89539 13.8399 9.29103 14.2356 9.77907 14.2356H10.218C10.706 14.2356 11.1017 13.8399 11.1017 13.3519V12.913C11.1017 12.4249 10.706 12.0293 10.218 12.0293Z" fill="#DDDDDD"/>
<path d="M15.5523 12.0293H15.1134C14.6254 12.0293 14.2297 12.4249 14.2297 12.913V13.3519C14.2297 13.8399 14.6254 14.2356 15.1134 14.2356H15.5523C16.0404 14.2356 16.436 13.8399 16.436 13.3519V12.913C16.436 12.4249 16.0404 12.0293 15.5523 12.0293Z" fill="#DDDDDD"/>
<path d="M18.2151 2.2414H16.3394V0.652524C16.3394 0.292612 16.0468 0 15.6869 0C15.327 0 15.0344 0.292612 15.0344 0.652524V2.2414H4.96562V0.652524C4.96562 0.292612 4.67301 0 4.31309 0C3.95318 0 3.66057 0.292612 3.66057 0.652524V2.2414H1.78493C0.801756 2.2414 0 3.04316 0 4.02634V15.8391C0 16.8222 0.801756 17.624 1.78493 17.624H18.2151C19.1982 17.624 20 16.8222 20 15.8391V4.02634C20 3.04316 19.1982 2.2414 18.2151 2.2414V2.2414ZM18.695 15.8391C18.695 16.1053 18.4784 16.3189 18.2151 16.3189H1.78493C1.52158 16.3189 1.30505 16.1024 1.30505 15.8391V4.02634C1.30505 3.76298 1.52158 3.54645 1.78493 3.54645H3.66057V4.64667C3.66057 5.00658 3.95318 5.2992 4.31309 5.2992C4.67301 5.2992 4.96562 5.00658 4.96562 4.64667V3.54645H15.0344V4.64667C15.0344 5.00658 15.327 5.2992 15.6869 5.2992C16.0468 5.2992 16.3394 5.00658 16.3394 4.64667V3.54645H18.2151C18.4784 3.54645 18.695 3.76298 18.695 4.02634V15.8391V15.8391Z" fill="#DDDDDD"/>
</g>
<defs>
<clipPath id="clip0_2067_11508">
<rect width="20" height="17.624" fill="white"/>
</clipPath>
</defs>
</svg>
