<svg width="24" height="24" viewBox="0 0 24 24" fill="none" xmlns="http://www.w3.org/2000/svg">
<g clip-path="url(#clip0_302_401)">
<path d="M5.54693 22.0002C4.69579 22.0002 4 21.2967 4 20.4288V4.75164C4 3.89365 4.68932 3.18688 5.53722 3.18359H8.83172C9.22977 3.18359 9.5534 3.51232 9.5534 3.91666C9.5534 4.321 9.22977 4.64973 8.83172 4.64973H5.54045C5.48867 4.64973 5.44013 4.69576 5.44013 4.75493V20.4288C5.44013 20.4847 5.48544 20.534 5.54369 20.534H19.4563C19.5081 20.534 19.5566 20.488 19.5566 20.4288V4.75493C19.5566 4.69576 19.5113 4.64973 19.4531 4.64973H16.5987C16.2006 4.64973 15.877 4.321 15.877 3.91666C15.877 3.51232 16.2006 3.18359 16.5987 3.18359H19.4531C20.3042 3.18359 21 3.88708 21 4.75493V20.4321C21 21.2934 20.3107 21.9969 19.4628 22.0002H5.54693Z" fill="#AAAAAA"/>
<path d="M16.1972 6.12229H9.23284C8.61472 6.12229 8.10986 5.60947 8.10986 4.98159V3.1407C8.10986 2.51282 8.61472 2 9.23284 2H16.194C16.8121 2 17.317 2.51282 17.317 3.1407V4.98159C17.317 5.60947 16.8121 6.12229 16.194 6.12229H16.1972ZM9.55323 4.65615H15.8769V3.46285H9.55323V4.65615Z" fill="#AAAAAA"/>
<path d="M11.6034 15.6562V14.7432H9.23022V13.4539H11.4166V12.5435H9.23022V11.2568H11.5934V10.3438H8.17188V15.6562H11.6034Z" fill="#A0A0A0"/>
<path d="M15.6185 10.3438V13.7159H15.5737L13.3499 10.3438H12.4186V15.6562H13.4769V12.2815H13.5143L15.7555 15.6562H16.6719V10.3438H15.6185Z" fill="#A0A0A0"/>
</g>
<defs>
<clipPath id="clip0_302_401">
<rect width="17" height="20" fill="white" transform="translate(4 2)"/>
</clipPath>
</defs>
</svg>
