<svg width="24" height="24" viewBox="0 0 24 24" fill="none" xmlns="http://www.w3.org/2000/svg">
<g clip-path="url(#clip0_302_414)">
<path d="M18.4578 23.0002H4.53897C3.69011 23.0002 3 22.2862 3 21.4079V2.97458C3 2.09633 3.69011 1.38232 4.53897 1.38232H8.32323C8.72175 1.38232 9.04574 1.71754 9.04574 2.12985C9.04574 2.54216 8.72175 2.87737 8.32323 2.87737H4.53897C4.48714 2.87737 4.44502 2.9243 4.44502 2.97458V21.4079C4.44502 21.4616 4.49038 21.5051 4.53897 21.5051H18.4578C18.5096 21.5051 18.5517 21.4582 18.5517 21.4079V2.97458C18.5517 2.92095 18.5064 2.87737 18.4578 2.87737H14.6703C14.2718 2.87737 13.9478 2.54216 13.9478 2.12985C13.9478 1.71754 14.2718 1.38232 14.6703 1.38232H18.4578C19.3067 1.38232 19.9968 2.09633 19.9968 2.97458V21.4079C19.9968 22.2862 19.3067 23.0002 18.4578 23.0002Z" fill="#A0A0A0"/>
<path d="M19.2776 20.8244H3.72261C3.3727 20.8244 3.09082 20.5328 3.09082 20.1708C3.09082 19.8087 3.3727 19.5171 3.72261 19.5171H19.2776C19.6275 19.5171 19.9094 19.8087 19.9094 20.1708C19.9094 20.5328 19.6275 20.8244 19.2776 20.8244Z" fill="#A0A0A0"/>
<path d="M14.3334 5.03931H8.66347C8.07704 5.03931 7.604 4.54655 7.604 3.94317V2.09615C7.604 1.48941 8.08028 1 8.66347 1H14.3334C14.9198 1 15.3928 1.49276 15.3928 2.09615V3.93981C15.3928 4.54655 14.9166 5.03596 14.3334 5.03596V5.03931ZM9.04902 3.54426H13.9511V2.49505H9.04902V3.54426Z" fill="#A0A0A0"/>
<path d="M15.5449 17.1404C15.195 17.1404 14.9131 16.8488 14.9131 16.4867C14.9131 14.7135 13.8828 13.319 12.3535 13.0173C12.1008 12.967 11.8999 12.7625 11.8513 12.5011C11.8027 12.2396 11.9129 11.9714 12.13 11.8273C12.9367 11.2876 13.2801 10.7446 13.2801 10.0104C13.2801 8.9981 12.4831 8.17012 11.5047 8.17012C10.5262 8.17012 9.72592 8.99474 9.72592 10.0104C9.72592 10.8284 10.0823 11.4116 10.8178 11.7904C11.0608 11.9178 11.1969 12.1893 11.1612 12.4642C11.1223 12.7424 10.9182 12.9637 10.6525 13.0173C9.12005 13.319 8.08975 14.7101 8.08975 16.4867C8.08975 16.8488 7.80788 17.1404 7.45796 17.1404C7.10805 17.1404 6.82617 16.8488 6.82617 16.4867C6.82617 14.5492 7.74956 12.9402 9.22049 12.1558C8.72478 11.5792 8.46234 10.8485 8.46234 10.0104C8.46234 8.27404 9.82636 6.86279 11.5047 6.86279C13.1829 6.86279 14.5437 8.27404 14.5437 10.0104C14.5437 10.9557 14.1906 11.6362 13.7467 12.1357C15.2371 12.91 16.1799 14.5325 16.1799 16.4867C16.1799 16.8488 15.898 17.1404 15.5481 17.1404H15.5449Z" fill="#A0A0A0"/>
</g>
<defs>
<clipPath id="clip0_302_414">
<rect width="17" height="22" fill="white" transform="translate(3 1)"/>
</clipPath>
</defs>
</svg>
