<svg width="24" height="24" viewBox="0 0 24 24" fill="none" xmlns="http://www.w3.org/2000/svg">
<g clip-path="url(#clip0_302_375)">
<path d="M18.0876 3.64035H17.5011V2.67923C17.5011 2.30396 17.2037 2 16.8365 2C16.4693 2 16.1719 2.30396 16.1719 2.67923V3.64035H8.79154V2.67923C8.79154 2.30396 8.49413 2 8.12694 2C7.75975 2 7.46234 2.30396 7.46234 2.67923V3.64035H6.91238C5.85733 3.64035 5 4.51825 5 5.59484V20.0455C5 21.1238 5.85733 22 6.91238 22H14.2213C14.5885 22 14.8859 21.696 14.8859 21.3208C14.8859 20.9455 14.5885 20.6415 14.2213 20.6415H6.91238C6.59005 20.6415 6.3292 20.3749 6.3292 20.0455V5.59484C6.3292 5.26711 6.59005 4.99881 6.91238 4.99881H7.46234V5.95993C7.46234 6.3352 7.75975 6.63916 8.12694 6.63916C8.49413 6.63916 8.79154 6.3352 8.79154 5.95993V4.99881H16.1736V5.95993C16.1736 6.3352 16.471 6.63916 16.8382 6.63916C17.2054 6.63916 17.5028 6.3352 17.5028 5.95993V4.99881H18.0893C18.4116 4.99881 18.6725 5.26541 18.6725 5.59484V20.0455C18.6725 20.3749 18.4116 20.6415 18.0893 20.6415C17.7221 20.6415 17.4247 20.9455 17.4247 21.3208C17.4247 21.696 17.7221 22 18.0893 22C19.1443 22 20.0017 21.1238 20.0017 20.0455V5.59484C20.0017 4.51656 19.1443 3.64035 18.0893 3.64035H18.0876Z" fill="#1686F2"/>
<path d="M17.5279 9.42578H9.14893V10.5567H17.5279V9.42578Z" fill="#1686F2"/>
<path d="M17.526 12.2549H10.9199V13.3858H17.526V12.2549Z" fill="#1686F2"/>
<path d="M17.526 15.0835H12.5V16.2144H17.526V15.0835Z" fill="#1686F2"/>
</g>
<defs>
<clipPath id="clip0_302_375">
<rect width="15" height="20" fill="white" transform="translate(5 2)"/>
</clipPath>
</defs>
</svg>
