<svg width="21" height="24" viewBox="0 0 21 24" fill="none" xmlns="http://www.w3.org/2000/svg">
<g clip-path="url(#clip0_111_1164)">
<path d="M1.0398 21.563C0.842988 21.563 0.646171 21.4917 0.493916 21.3565C0.271105 21.1613 0.170839 20.861 0.226542 20.5682L1.60797 13.3565C1.69339 12.9023 2.12787 12.6057 2.57721 12.6958C3.02654 12.7822 3.31991 13.2214 3.23079 13.6756L2.11673 19.4795L7.59047 17.6325C8.02495 17.4861 8.49286 17.7226 8.63768 18.1618C8.78251 18.601 8.54856 19.074 8.11408 19.2205L1.29975 21.518C1.21434 21.548 1.12522 21.5593 1.03609 21.5593L1.0398 21.563Z" fill="white"/>
<path d="M16.837 9.17419C16.6402 9.17419 16.4434 9.10286 16.2874 8.96021L10.8508 4.05359C10.5092 3.74575 10.4795 3.21642 10.784 2.87104L13.0752 0.276957C13.22 0.111776 13.428 0.0104151 13.6471 -0.000847175C13.8662 -0.0121095 14.0816 0.0629726 14.245 0.209383L19.6816 5.116C19.845 5.26241 19.9452 5.47264 19.9564 5.69413C19.9675 5.91562 19.8933 6.13336 19.7484 6.29854L17.4535 8.89263C17.2901 9.07658 17.0635 9.17043 16.837 9.17043V9.17419ZM12.5702 3.36283L16.7702 7.15448L17.9622 5.80676L13.7585 2.01511L12.5702 3.36283Z" fill="white"/>
<path d="M4.72337 19.4656L1.8491 16.834L1.03955 20.727L4.72337 19.4656Z" fill="white"/>
<path d="M7.8539 19.2627C7.65708 19.2627 7.46026 19.1914 7.3043 19.0487L1.86769 14.1421C1.7043 13.9919 1.60403 13.7855 1.59289 13.564C1.58175 13.3425 1.65602 13.1247 1.80456 12.9596L10.8136 2.86852C11.1181 2.5269 11.638 2.49687 11.9796 2.8047L17.4162 7.71132C17.5796 7.86149 17.6799 8.06796 17.691 8.28945C17.7022 8.51095 17.6279 8.72868 17.4794 8.89387L8.47034 18.9774C8.30695 19.1613 8.08042 19.2552 7.8539 19.2552V19.2627ZM3.59077 13.4551L7.79077 17.2468L15.6894 8.40583L11.4894 4.61418L3.59077 13.4514V13.4551Z" fill="white"/>
<path d="M21 22.3262H0V24.0005H21V22.3262Z" fill="white"/>
</g>
<defs>
<clipPath id="clip0_111_1164">
<rect width="21" height="24" fill="white"/>
</clipPath>
</defs>
</svg>
