<svg width="24" height="24" viewBox="0 0 24 24" fill="none" xmlns="http://www.w3.org/2000/svg">
<g clip-path="url(#clip0_302_371)">
<path d="M20.2951 7.20607H19.4691C19.1443 4.83719 17.0289 3 14.4716 3H9.52679C6.97115 3 4.85408 4.8356 4.52927 7.20607H3.70486C2.76505 7.20607 2 7.94031 2 8.84229V19.3638C2 20.2658 2.76505 21 3.70486 21H15.9703C16.3347 21 16.6298 20.7167 16.6298 20.367C16.6298 20.0173 16.3347 19.7341 15.9703 19.7341H3.70486C3.49217 19.7341 3.31904 19.5679 3.31904 19.3638V13.6433C4.18467 14.0041 5.07502 14.3111 5.98186 14.5611V15.4014C5.98186 16.1689 6.45342 16.8667 7.18384 17.1785L7.76092 17.4253C7.84666 17.4617 7.93734 17.4807 8.02968 17.4807C8.12201 17.4807 8.21269 17.4617 8.29843 17.4253L8.87551 17.1785C9.60593 16.8667 10.0775 16.1689 10.0775 15.4014V15.2922C10.7156 15.346 11.357 15.3745 11.9983 15.3745C12.6397 15.3745 13.2811 15.346 13.9192 15.2922V15.4014C13.9192 16.1689 14.3908 16.8667 15.1212 17.1785L15.6983 17.4253C15.784 17.4617 15.8747 17.4807 15.967 17.4807C16.0594 17.4807 16.15 17.4617 16.2358 17.4253L16.8129 17.1785C17.5433 16.8667 18.0148 16.1689 18.0148 15.4014V14.5611C18.92 14.3111 19.812 14.0041 20.6777 13.6433V19.3638C20.6777 19.5679 20.5045 19.7341 20.2918 19.7341C19.9274 19.7341 19.6323 20.0173 19.6323 20.367C19.6323 20.7167 19.9274 21 20.2918 21C21.2317 21 21.9967 20.2658 21.9967 19.3638V8.84229C21.9967 7.94031 21.2317 7.20607 20.2918 7.20607H20.2951ZM9.52679 4.26593H14.4716C16.2984 4.26593 17.8236 5.53662 18.1352 7.20607H5.86315C6.17477 5.53662 7.69992 4.26593 9.52679 4.26593ZM8.7601 15.3998C8.7601 15.6673 8.59522 15.9109 8.33965 16.0201L8.02968 16.1531L7.7197 16.0201C7.46414 15.9109 7.29926 15.6673 7.29926 15.3998V14.1466C7.3042 14.0975 7.30585 14.0484 7.29926 14.001V13.9598L8.75845 14.126V15.4014L8.7601 15.3998ZM16.2786 16.0201L15.9687 16.1531L15.6587 16.0201C15.4031 15.9109 15.2382 15.6673 15.2382 15.3998V14.1244L16.6974 13.9582V14.0025C16.6908 14.0484 16.6925 14.0959 16.6974 14.145V15.3998C16.6974 15.6673 16.5326 15.9109 16.277 16.0201H16.2786ZM18.0165 13.2382C18.0148 13.0594 17.934 12.8901 17.7955 12.7714C17.6554 12.6512 17.4674 12.5942 17.2795 12.6164L14.5012 12.9328C14.1698 12.9708 13.9192 13.2414 13.9192 13.5611V14.02C12.6414 14.1355 11.3553 14.1355 10.0775 14.02V13.5611C10.0775 13.2398 9.82687 12.9708 9.49546 12.9328L6.71723 12.6164C6.53091 12.5942 6.34295 12.6512 6.20115 12.7714C6.06265 12.8901 5.98186 13.0594 5.98021 13.2382C5.07007 12.9692 4.17972 12.6401 3.31739 12.2524V8.8407C3.31739 8.63657 3.49052 8.47042 3.70321 8.47042H20.2951C20.5078 8.47042 20.681 8.63657 20.681 8.8407V12.2524C19.8186 12.6401 18.9266 12.9692 18.0181 13.2382H18.0165Z" fill="#A0A0A0"/>
</g>
<defs>
<clipPath id="clip0_302_371">
<rect width="20" height="18" fill="white" transform="translate(2 3)"/>
</clipPath>
</defs>
</svg>
