<svg width="20" height="17" viewBox="0 0 20 17" fill="none" xmlns="http://www.w3.org/2000/svg">
<g clip-path="url(#clip0_1859_11664)">
<path d="M9.33965 4.09479H0.704581C0.315956 4.09479 0 3.77883 0 3.39021C0 3.27962 0 3.17536 0.64455 0.900474C0.657188 0.8594 0.672986 0.818325 0.691943 0.777251C0.913112 0.325434 1.44076 0 1.93997 0H8.09163C8.58452 0 9.11532 0.315956 9.35229 0.751975C9.38073 0.802528 9.39968 0.85624 9.41548 0.909953L10.019 3.21011C10.0758 3.4218 10.0284 3.64613 9.89573 3.81991C9.76303 3.99368 9.55766 4.09479 9.33649 4.09479H9.33965ZM1.60821 2.68562H8.42654L8.09479 1.41864C8.09479 1.41864 8.07899 1.40916 8.07267 1.40916H1.97156C1.97156 1.40916 1.96524 1.41232 1.96209 1.41548C1.83886 1.85466 1.71248 2.3128 1.60821 2.68562Z" fill="#1686F2"/>
<path d="M18.7204 16.4391H1.27962C0.57504 16.4391 0 15.8641 0 15.1595V3.39013C0 3.0015 0.315956 2.68555 0.704581 2.68555H18.7204C19.425 2.68555 20 3.26059 20 3.96517V15.1595C20 15.8641 19.425 16.4391 18.7204 16.4391ZM1.40916 15.0299H18.5908V4.09471H1.40916V15.0299Z" fill="#1686F2"/>
<g clip-path="url(#clip1_1859_11664)">
<path d="M10.6773 9.32267V7H9.32267V9.32267H7V10.6773H9.32267V13H10.6773V10.6773H13V9.32267H10.6773Z" fill="#1686F2"/>
</g>
</g>
<defs>
<clipPath id="clip0_1859_11664">
<rect width="20" height="16.4392" fill="white"/>
</clipPath>
<clipPath id="clip1_1859_11664">
<rect width="6" height="6" fill="white" transform="translate(7 7)"/>
</clipPath>
</defs>
</svg>
