<svg width="24" height="24" viewBox="0 0 24 24" fill="none" xmlns="http://www.w3.org/2000/svg">
<g clip-path="url(#clip0_302_421)">
<path d="M15.2055 17.6892H7.79454C7.67532 17.6892 7.5561 17.6591 7.45299 17.5988C4.70451 16.0521 3 13.0758 3 9.83173C3 4.96055 6.81179 1 11.5 1C16.1882 1 20 4.96055 20 9.83173C20 13.0758 18.2955 16.0521 15.547 17.5988C15.4407 17.6591 15.3247 17.6892 15.2055 17.6892ZM7.98143 16.1961H15.0186C17.2096 14.887 18.5629 12.4632 18.5629 9.83173C18.5629 5.78413 15.3956 2.49316 11.5 2.49316C7.60443 2.49316 4.43707 5.78413 4.43707 9.83173C4.43707 12.4665 5.79037 14.887 7.98143 16.1961Z" fill="#A0A0A0"/>
<path d="M17.316 24.0002H5.6841C5.08156 24.0002 4.5918 23.4913 4.5918 22.8653V17.3312C4.5918 16.7052 5.08156 16.1963 5.6841 16.1963H17.316C17.9186 16.1963 18.4083 16.7052 18.4083 17.3312V22.8653C18.4083 23.4913 17.9186 24.0002 17.316 24.0002ZM6.03209 22.5071H16.968V17.6894H6.02887V22.5071H6.03209Z" fill="#A0A0A0"/>
<path d="M14.0068 18.7905H8.99316V20.1799H14.0068V18.7905Z" fill="#A0A0A0"/>
<path d="M12.3187 6.76181C12.4443 7.15016 12.2445 7.572 11.874 7.70257L10.7011 8.1177C10.3274 8.24827 9.92139 8.04405 9.79572 7.65569C9.67006 7.26734 9.86661 6.84551 10.2404 6.71494L11.4132 6.2998C11.787 6.16923 12.193 6.3768 12.3187 6.76181Z" fill="#A0A0A0"/>
<path d="M11.6418 6.25977C12.0349 6.25977 12.3539 6.59121 12.3539 6.99965V11.3653C12.3539 11.7737 12.0349 12.1052 11.6418 12.1052C11.2487 12.1052 10.9297 11.7737 10.9297 11.3653V6.99965C10.9297 6.59121 11.2487 6.25977 11.6418 6.25977Z" fill="#A0A0A0"/>
<path d="M13.2435 12.1085C13.2435 12.517 12.9245 12.8484 12.5314 12.8484H10.756C10.3629 12.8484 10.0439 12.517 10.0439 12.1085C10.0439 11.7001 10.3629 11.3687 10.756 11.3687H12.5314C12.9245 11.3687 13.2435 11.7001 13.2435 12.1085Z" fill="#A0A0A0"/>
</g>
<defs>
<clipPath id="clip0_302_421">
<rect width="17" height="23" fill="white" transform="translate(3 1)"/>
</clipPath>
</defs>
</svg>
