<svg width="24" height="24" viewBox="0 0 24 24" fill="none" xmlns="http://www.w3.org/2000/svg">
<g clip-path="url(#clip0_302_366)">
<path d="M12.4993 12.3924C13.0096 12.3924 13.4234 11.9932 13.4234 11.5009C13.4234 11.0085 13.0096 10.6094 12.4993 10.6094C11.9889 10.6094 11.5752 11.0085 11.5752 11.5009C11.5752 11.9932 11.9889 12.3924 12.4993 12.3924Z" fill="#A0A0A0"/>
<path d="M24 11.501C24 9.95237 21.842 8.8554 18.8603 8.23559C19.0575 7.75673 19.23 7.29145 19.3708 6.84485C20.2931 3.92582 19.633 2.75923 18.9184 2.29565C17.4381 1.33453 14.9457 2.82206 12.4991 5.30807C10.0543 2.82206 7.56187 1.33283 6.07982 2.29565C5.36519 2.75923 4.7069 3.92582 5.62746 6.84485C5.76827 7.29145 5.94077 7.75673 6.1379 8.23559C3.15796 8.8554 1 9.95237 1 11.501C1 13.0497 3.15796 14.1467 6.13966 14.7665C5.94253 15.2453 5.77003 15.7106 5.62922 16.1572C4.7069 19.0762 5.36695 20.2428 6.08158 20.7064C6.39137 20.9085 6.74692 21.0019 7.13591 21.0019C8.60565 21.0019 10.5682 19.6604 12.5009 17.6957C14.4353 19.6621 16.3979 21.0019 17.8658 21.0019C18.2548 21.0019 18.6104 20.9085 18.9202 20.7064C19.2423 20.4975 19.3285 20.0747 19.112 19.764C18.8955 19.4532 18.4573 19.37 18.1351 19.5789C17.542 19.9626 15.6692 18.9455 13.4496 16.6785C13.8404 16.2387 14.2241 15.7785 14.6007 15.3048C15.5794 15.2487 16.5369 15.1519 17.4469 15.0178C17.7162 15.641 17.9363 16.237 18.0982 16.7889C18.2038 17.1506 18.5928 17.3595 18.9677 17.2576C19.3426 17.1557 19.5591 16.7804 19.4535 16.4187C19.2986 15.8923 19.1015 15.3404 18.8639 14.7665C21.8438 14.1467 24.0018 13.0497 24.0018 11.501H24ZM17.8166 3.34338C17.9451 3.34338 18.0507 3.37055 18.1334 3.42319C18.3939 3.593 18.665 4.41997 18.0243 6.44919C17.8694 6.93825 17.6757 7.45277 17.4469 7.98427C16.5369 7.85012 15.5794 7.75333 14.599 7.6973C14.2223 7.22183 13.8368 6.76164 13.4478 6.32354C15.3594 4.36903 17.0174 3.34338 17.8166 3.34338ZM13.8668 13.9786C13.4232 13.9955 12.9673 14.0057 12.4991 14.0057C12.0309 14.0057 11.575 13.9955 11.1315 13.9786C10.8692 13.6338 10.6069 13.2738 10.3447 12.8986C10.0191 12.4333 9.71279 11.9663 9.4206 11.501C9.71103 11.0358 10.0191 10.5688 10.3447 10.1035C10.6069 9.72822 10.8692 9.36992 11.1315 9.02351C11.575 9.00653 12.0309 8.99634 12.4991 8.99634C12.9673 8.99634 13.4232 9.00653 13.8668 9.02351C14.129 9.36822 14.3913 9.72822 14.6536 10.1035C14.9774 10.5671 15.2855 11.0358 15.5759 11.5027C15.2855 11.968 14.9774 12.435 14.6536 12.9003C14.3913 13.2755 14.129 13.6338 13.8668 13.9803V13.9786ZM9.1777 13.6576C9.22522 13.7255 9.27275 13.7935 9.32203 13.8614C8.91896 13.824 8.53348 13.7782 8.16033 13.7272C8.30818 13.4369 8.46483 13.1431 8.62853 12.8459C8.80631 13.1176 8.98936 13.3876 9.1777 13.6576ZM8.62853 10.1561C8.46307 9.85897 8.30642 9.5652 8.16033 9.27483C8.53348 9.22388 8.91896 9.17973 9.32203 9.14068C9.27451 9.2086 9.22522 9.27483 9.1777 9.34275C8.98936 9.61275 8.80631 9.88444 8.62853 10.1544V10.1561ZM12.2457 7.63956C12.3301 7.53937 12.4146 7.44258 12.4991 7.34579C12.5836 7.44258 12.6681 7.53937 12.7543 7.63956C12.6699 7.63956 12.5836 7.63786 12.4991 7.63786C12.4146 7.63786 12.3301 7.63786 12.2457 7.63956ZM15.8223 9.34445C15.7748 9.27653 15.7273 9.2086 15.678 9.14238C16.081 9.17973 16.4665 9.22558 16.8397 9.27653C16.6918 9.5669 16.5352 9.86067 16.3715 10.1578C16.1937 9.88784 16.0106 9.61614 15.8223 9.34615V9.34445ZM6.97574 6.44919C6.33504 4.41997 6.60611 3.5913 6.86661 3.42319C7.45978 3.03942 9.33435 4.05658 11.5522 6.32354C11.1614 6.76334 10.7759 7.22183 10.401 7.6973C9.42236 7.75333 8.46307 7.85012 7.55307 7.98427C7.32425 7.45107 7.13063 6.93655 6.97574 6.44919ZM2.40813 11.501C2.40813 10.8727 4.01163 10.0407 6.717 9.51086C7.03383 10.1612 7.3929 10.8269 7.79069 11.501C7.3929 12.1735 7.03383 12.8408 6.717 13.4912C4.01163 12.9631 2.40813 12.131 2.40813 11.501ZM6.86661 19.5789C6.60611 19.4091 6.33504 18.5821 6.97574 16.5529C7.13063 16.0638 7.32425 15.5493 7.55307 15.0178C8.46307 15.1519 9.42236 15.2487 10.401 15.3048C10.7777 15.7802 11.1614 16.2404 11.5522 16.6802C9.33435 18.9472 7.45978 19.9643 6.86661 19.5806V19.5789ZM12.5009 15.6563C12.4164 15.5595 12.3319 15.4627 12.2457 15.3625C12.3301 15.3625 12.4164 15.3642 12.5009 15.3642C12.5854 15.3642 12.6716 15.3642 12.7561 15.3625C12.6716 15.4627 12.5854 15.5595 12.5009 15.6563ZM15.6797 13.8614C15.7273 13.7935 15.7765 13.7272 15.8223 13.6593C16.0106 13.3893 16.1919 13.1193 16.3697 12.8493C16.5334 13.1448 16.6901 13.4386 16.8362 13.7289C16.4648 13.7799 16.0793 13.824 15.678 13.8614H15.6797ZM18.2865 13.4912C17.9697 12.8425 17.6089 12.1752 17.2111 11.5027C17.6089 10.8303 17.9679 10.1629 18.2848 9.51426C20.9901 10.0424 22.5936 10.8744 22.5936 11.5044C22.5936 12.1344 20.9919 12.9648 18.2883 13.4929L18.2865 13.4912Z" fill="#A0A0A0"/>
</g>
<defs>
<clipPath id="clip0_302_366">
<rect width="23" height="19" fill="white" transform="translate(1 2)"/>
</clipPath>
</defs>
</svg>
