<svg width="24" height="24" viewBox="0 0 24 24" fill="none" xmlns="http://www.w3.org/2000/svg">
<path fill-rule="evenodd" clip-rule="evenodd" d="M12.0047 3.52278L5.00004 9.6315V19.544H8.07021V15.1942C8.07021 14.1521 8.48419 13.1526 9.22115 12.4156C9.95809 11.6787 10.9576 11.2646 11.9998 11.2646C13.042 11.2646 14.0415 11.6786 14.7785 12.4156C15.5155 13.1526 15.9294 14.1521 15.9294 15.1942V19.544H18.9996V9.62024L12.0047 3.52278ZM20.8809 8.60696C20.9208 8.64686 20.9519 8.69465 20.9724 8.74724C20.9928 8.79983 21.0021 8.85608 20.9996 8.91244V21.1438C20.9996 21.1964 20.9892 21.2484 20.9691 21.297C20.949 21.3455 20.9196 21.3897 20.8824 21.4268C20.8452 21.464 20.8011 21.4935 20.7526 21.5136C20.704 21.5337 20.652 21.544 20.5994 21.544H14.3296C14.2235 21.544 14.1217 21.5019 14.0467 21.4268C13.9716 21.3518 13.9294 21.25 13.9294 21.1438V15.1942C13.9294 14.6825 13.7262 14.1917 13.3643 13.8298C13.0024 13.4679 12.5116 13.2646 11.9998 13.2646C11.488 13.2646 10.9972 13.4679 10.6354 13.8298C10.2735 14.1917 10.0702 14.6825 10.0702 15.1942V21.1438C10.0702 21.25 10.028 21.3518 9.95298 21.4268C9.87793 21.5019 9.77614 21.544 9.67001 21.544H3.40024C3.2941 21.544 3.19229 21.5019 3.11724 21.4268C3.04219 21.3518 3.00004 21.25 3.00004 21.1438V8.91244C2.99925 8.85477 3.01075 8.79757 3.03375 8.74468C3.05674 8.69178 3.09071 8.64442 3.13342 8.60565L11.7377 1.10194C11.8111 1.03631 11.9061 1 12.0045 1C12.1029 1 12.1979 1.03631 12.2713 1.10194L20.8809 8.60696Z" fill="#AAAAAA"/>
</svg>
