<svg width="155" height="40" viewBox="0 0 155 40" fill="none" xmlns="http://www.w3.org/2000/svg">
    <g clip-path="url(#r7rc2hhp3a)">
        <path d="m33.267 29.767-13.693 7.87a1.066 1.066 0 0 1-1.597-.788V21.247a2.37 2.37 0 0 0-1.188-2.048l-12.75-7.312a.49.49 0 0 0-.733.42v15.28c0 .447.238.86.634 1.09l11.786 6.768v1.129c0 1.024.495 1.995 1.333 2.592.601.427 1.287.847 1.98.847.568 0 1.135-.15 1.657-.446l12.783-7.352c.343-.197.554-.564.554-.958v-1.05a.504.504 0 0 0-.759-.434l-.007-.006z" fill="#1686F2"/>
        <path d="M34.772 7.496 21.962.15a1.127 1.127 0 0 0-1.114 0l-.753.748a.495.495 0 0 0 .106.788l13.462 7.719a1.065 1.065 0 0 1 .06 1.818L20.55 18.792a2.363 2.363 0 0 0-1.188 2.048v14.644c0 .374.402.604.732.42l13.305-7.64c.389-.223.633-.637.633-1.09V13.626l.627-.36c.977-.559 1.683-1.537 1.769-2.652a3.264 3.264 0 0 0-1.644-3.118h-.013z" fill="#191D22"/>
        <path d="M31.65 15.963a.475.475 0 0 0-.719-.407l-1.24.749-7.174 4.115a1.322 1.322 0 0 0-.666 1.155v3.676c0 1.024 1.115 1.667 2.006 1.155l5.834-3.347v2.251l-5.821 3.341-1.538.88a.97.97 0 0 0-.488.84v.866c0 .361.396.591.713.407l1.293-.741 7.438-4.274a.71.71 0 0 0 .356-.61V15.957l.007.006zm-1.96 4.844-5.82 3.341.02-1.903c0-.223.125-.434.317-.545l5.477-3.144v2.251h.007zM13.562 26.912l.046.026c.864.538 1.986-.079 1.986-1.096v-3.833a1.3 1.3 0 0 0-.666-1.143l-1.32-.754-5.94-3.407-1.273-.735a.474.474 0 0 0-.713.407v10.148c0 .255.139.485.356.61l.555.315a.71.71 0 0 0 1.069-.61v-7.877l5.623 3.23a.644.644 0 0 1 .323.557v2.252L9.714 22.77a.236.236 0 0 0-.356.203v.946c0 .374.092.741.264 1.076l2.752 5.336c.211.407.528.742.93.972l1.578.906a.474.474 0 0 0 .712-.407v-.893a.961.961 0 0 0-.488-.84l-1.492-.853-1.603-3.197 1.55.893z" fill="#fff"/>
        <path d="m32.251 9.662-13.304-7.64a1.27 1.27 0 0 0-1.26 0L5.88 8.802l-.779-.446c-.976-.558-2.177-.683-3.194-.197-1.181.558-1.9 1.693-1.894 2.973L0 26.045c0 .177.092.342.25.433l1.215.703a.504.504 0 0 0 .759-.433V11.126c.007-.565.39-.84.554-.932a1.07 1.07 0 0 1 1.043-.014l13.311 7.64c.733.42 1.643.42 2.376 0l12.75-7.318a.485.485 0 0 0 0-.84h-.007z" fill="#1686F2"/>
        <path d="M49.093 22.993V28a.708.708 0 0 1-.713.709H46.5a.708.708 0 0 1-.713-.709V12.36c0-.393.316-.708.712-.708h5.61c3.834 0 5.755 1.87 5.755 5.618 0 2.225-.799 3.866-2.396 4.917l1.986 5.572a.709.709 0 0 1-.673.945H54.69a.717.717 0 0 1-.68-.485l-1.729-5.232h-3.187v.007zm4.817-3.715c.383-.499.575-1.162.575-1.982 0-.82-.205-1.47-.614-1.957-.41-.485-.997-.728-1.762-.728h-3.016v5.422h3.069c.785 0 1.366-.25 1.748-.755zM105.67 28.001V12.36c0-.393.323-.708.712-.708h4.349c.33 0 .621.23.7.551l2.752 11.894 2.752-11.894a.713.713 0 0 1 .699-.551h4.349c.396 0 .713.315.713.709V28a.708.708 0 0 1-.713.709h-1.881a.707.707 0 0 1-.712-.709v-12.49h-.357l-3.187 12.444h-3.306l-3.188-12.445h-.356v12.485a.713.713 0 0 1-.713.708h-1.881a.708.708 0 0 1-.713-.708l-.019.006zM127.467 28.001V12.36c0-.393.317-.708.713-.708h9.114c.396 0 .713.315.713.709v1.588a.708.708 0 0 1-.713.709h-6.52v3.99h5.088c.396 0 .712.316.712.71v1.535a.707.707 0 0 1-.712.71h-5.088v4.089h6.52c.396 0 .713.315.713.709v1.588a.708.708 0 0 1-.713.709h-9.114a.708.708 0 0 1-.713-.709v.013zM100.839 11.677h-1.874a.708.708 0 0 0-.713.709v10.653c0 1.989-.97 2.986-2.897 2.986-1.927 0-2.897-.997-2.897-2.986v-10.18c0-.657-.535-1.189-1.195-1.189l-11.1-.02c-2.752 0-5.002 2.22-5.002 4.976 0 1.378.587 2.658 1.51 3.558.087.085.166.144.252.21a4.953 4.953 0 0 0 3.24 1.214h.567c1.135 0 2.06.919 2.06 2.048a2.056 2.056 0 0 1-2.06 2.048H71.9l-7.24-.007v-4.089h6.521a.708.708 0 0 0 .713-.709v-1.536a.708.708 0 0 0-.713-.709h-6.52v-3.99h6.52a.708.708 0 0 0 .713-.71v-1.588a.708.708 0 0 0-.713-.709h-9.114a.708.708 0 0 0-.712.71v15.64c0 .394.316.71.712.71h9.523l9.134.006a5.001 5.001 0 0 0 4.606-3.013c0-.02.02-.02.02-.039.27-.604.422-1.273.422-2.008a4.94 4.94 0 0 0-.904-2.862 3.736 3.736 0 0 0-.587-.69l-.02-.02c-.086-.085-.165-.163-.27-.229a4.942 4.942 0 0 0-3.26-1.214h-.568c-.713 0-1.346-.4-1.703-.965a1.88 1.88 0 0 1-.297-1.024c0-.374.106-.729.297-1.024.357-.584.99-.965 1.703-.965h8.982v8.303c0 2.094.514 3.623 1.544 4.602 1.03.977 2.587 1.47 4.66 1.47 2.071 0 3.629-.493 4.658-1.47 1.03-.979 1.545-2.514 1.545-4.602V12.386a.708.708 0 0 0-.713-.71z" fill="#191D22"/>
        <path d="M155 16.613a5.92 5.92 0 0 0-5.913-5.914 5.92 5.92 0 0 0-5.913 5.914c0 3.262 2.475 5.724 5.576 5.894l-3.656 4.923a.713.713 0 0 0 .146.991l.989.736a.715.715 0 0 0 1.004-.151l6.876-9.308c.554-.9.884-1.956.884-3.092l.007.007zm-9.16 0a3.253 3.253 0 0 1 3.247-3.25 3.253 3.253 0 0 1 3.247 3.25 3.253 3.253 0 0 1-3.247 3.25 3.253 3.253 0 0 1-3.247-3.25z" fill="#1686F2"/>
    </g>
    <defs>
        <clipPath id="r7rc2hhp3a">
            <path fill="#fff" d="M0 0h155v40H0z"/>
        </clipPath>
    </defs>
</svg>
