<svg width="155" height="29" viewBox="0 0 155 29" fill="none" xmlns="http://www.w3.org/2000/svg">
<path d="M43.6851 6.02762V15.9807H43.5442L36.7403 6.02762H33.2845V23H37.279V13.0304H37.395L44.2735 23H47.6713V6.02762H43.6851ZM66.158 14.5138C66.158 8.91989 62.6276 5.79558 58.0862 5.79558C53.5199 5.79558 50.0144 8.91989 50.0144 14.5138C50.0144 20.0829 53.5199 23.232 58.0862 23.232C62.6276 23.232 66.158 20.1077 66.158 14.5138ZM62.0807 14.5138C62.0807 17.8867 60.5641 19.7182 58.0862 19.7182C55.6083 19.7182 54.1 17.8867 54.1 14.5138C54.1 11.1409 55.6083 9.30939 58.0862 9.30939C60.5641 9.30939 62.0807 11.1409 62.0807 14.5138ZM73.8783 6.02762V23H77.8728V6.02762H73.8783ZM80.4408 23H84.3275V12.4006H84.4684L88.6121 22.9006H91.1231L95.2667 12.4503H95.4076V23H99.3027V6.02762H94.3469L89.9712 16.7099H89.7723L85.3883 6.02762H80.4408V23ZM109.976 16.6934H113.39C113.349 18.5414 112.073 19.7182 109.81 19.7182C107.241 19.7182 105.733 17.8122 105.733 14.489C105.733 11.1989 107.316 9.30939 109.802 9.30939C111.484 9.30939 112.628 10.1464 113.017 11.5552H117.07C116.647 8.18232 113.639 5.79558 109.727 5.79558C105.211 5.79558 101.647 8.99447 101.647 14.5387C101.647 19.9088 104.937 23.232 109.785 23.232C114.136 23.232 117.244 20.5138 117.244 15.9807V13.7597H109.976V16.6934ZM119.652 23H123.538V12.4006H123.679L127.823 22.9006H130.334L134.478 12.4503H134.619V23H138.514V6.02762H133.558L129.182 16.7099H128.983L124.599 6.02762H119.652V23ZM152.833 23V19.7348H145.068V16.1381H152.22V12.8812H145.068V9.29282H152.833V6.02762H141.074V23H152.833Z" fill="#DDDDDD"/>
<g clip-path="url(#clip0_111_1160)">
<path fill-rule="evenodd" clip-rule="evenodd" d="M13.767 15.4935C11.7996 13.5295 8.41319 14.9091 8.41319 17.6892C8.41319 17.9103 8.43429 18.1262 8.47648 18.3316L9.96923 19.927L13.7618 15.4935H13.767ZM6.93099 16.6782C7.70637 13.1609 12.1108 11.7235 14.7956 14.2877C14.8853 14.1824 14.9802 14.0561 15.0804 13.956C15.5024 13.5348 16.1829 13.5348 16.5996 13.956L21.8954 19.2425V8.09563H2.09934V20.0639L5.29055 16.4887C5.83912 15.9779 6.47209 16.1833 6.93099 16.6782ZM0 23.7391V6H24V23.7391H0Z" fill="#DDDDDD"/>
</g>
<defs>
<clipPath id="clip0_111_1160">
<rect width="24" height="17.7391" fill="white" transform="translate(0 6)"/>
</clipPath>
</defs>
</svg>
