<svg width="14" height="20" viewBox="0 0 14 20" fill="none" xmlns="http://www.w3.org/2000/svg">
<path d="M13.8277 9.86692V8.49023H0.511719V9.86692H1.64663V18.6232H1.23845V19.9999H13.101V18.6232H12.6928V9.86692H13.8277ZM4.73459 18.606H3.46659V10.6752H4.73459V18.606ZM7.8036 18.606H6.5356V10.6752H7.8036V18.606ZM10.8726 18.606H9.60462V10.6752H10.8726V18.606Z" fill="#555555"/>
<path d="M9.24057 0.714285C9.15296 0.556543 8.95389 0.499506 8.79606 0.587066L7.62726 1.23541L7.27281 0.597315C6.96161 0.0371953 6.25471 -0.165107 5.69406 0.146145L2.68323 1.81625C2.12257 2.12728 1.92038 2.83378 2.23158 3.39413L2.58603 4.03223L1.41723 4.68057C1.2594 4.76813 1.20233 4.96709 1.28994 5.12484L0.796387 5.39866C0.049365 5.81307 -0.219929 6.75418 0.194712 7.50078L0.511489 8.07115L12.1542 1.61217L11.8374 1.0418C11.4228 0.295198 10.4812 0.0260553 9.73413 0.440464L9.24057 0.714285ZM3.68238 2.48844L5.73619 1.34904C6.19252 1.09594 6.74582 1.18283 7.10383 1.52617L3.10946 3.74214C3.00714 3.25688 3.22605 2.74177 3.68238 2.48844Z" fill="#555555"/>
</svg>
