<svg width="24" height="24" viewBox="0 0 24 24" fill="none" xmlns="http://www.w3.org/2000/svg">
<path d="M11.9114 20.3121C7.34078 20.3121 3.62061 16.592 3.62061 12.0213C3.62061 7.45065 7.33811 3.73047 11.9114 3.73047C16.4848 3.73047 20.2023 7.45065 20.2023 12.0213C20.2023 16.592 16.4821 20.3121 11.9114 20.3121ZM11.9114 4.92328C7.9987 4.92328 4.81342 8.10856 4.81342 12.0213C4.81342 15.934 7.9987 19.1193 11.9114 19.1193C15.8242 19.1193 19.0095 15.934 19.0095 12.0213C19.0095 8.10856 15.8242 4.92328 11.9114 4.92328Z" fill="#1686F2" stroke="#1686F2" stroke-width="0.3"/>
<path d="M3.2889 8.08931C3.13913 8.08931 2.99204 8.03315 2.87436 7.9235C1.73772 6.82697 1.70562 5.01101 2.79948 3.87436C3.89333 2.73772 5.70929 2.70562 6.84594 3.79948C7.08397 4.02681 7.08931 4.40658 6.86199 4.64193C6.63466 4.87996 6.25488 4.88531 6.01953 4.65798C5.69859 4.34774 5.27335 4.1846 4.82939 4.18995C4.38276 4.19797 3.96822 4.37984 3.65798 4.70077C3.01878 5.36404 3.04018 6.42312 3.70077 7.06232C3.9388 7.28965 3.94415 7.66942 3.71682 7.90478C3.59914 8.02513 3.44402 8.08664 3.28623 8.08664L3.2889 8.08931Z" fill="#1686F2" stroke="#1686F2" stroke-width="0.3"/>
<path d="M15.9152 15.0163C15.8109 15.0163 15.7066 14.9895 15.6103 14.9307L11.6039 12.5317C11.3204 12.3632 11.2295 11.9968 11.398 11.7133C11.5665 11.4298 11.9329 11.3389 12.2164 11.5074L16.2227 13.9064C16.5062 14.0749 16.5972 14.4413 16.4287 14.7248C16.3163 14.912 16.1184 15.0136 15.9178 15.0136L15.9152 15.0163Z" fill="#1686F2" stroke="#1686F2" stroke-width="0.3"/>
<path d="M20.5343 8.08908C20.3792 8.08908 20.2214 8.02757 20.1037 7.90722C19.8764 7.66919 19.8818 7.29209 20.1198 7.06476C20.4407 6.75452 20.6226 6.33998 20.6306 5.89335C20.6386 5.44671 20.4728 5.02415 20.1626 4.70321C19.8523 4.38228 19.4378 4.20041 18.9912 4.19239C18.5472 4.18704 18.122 4.35018 17.801 4.66042C17.563 4.88775 17.1859 4.8824 16.9586 4.64437C16.7312 4.40635 16.7366 4.02925 16.9746 3.80192C18.1113 2.70806 19.9272 2.74016 21.0211 3.8768C22.1149 5.01345 22.0828 6.82941 20.9462 7.92326C20.8312 8.03559 20.6814 8.08908 20.5317 8.08908H20.5343Z" fill="#1686F2" stroke="#1686F2" stroke-width="0.3"/>
<path d="M11.9113 12.617C11.5824 12.617 11.3149 12.3495 11.3149 12.0206V7.62912C11.3149 7.30016 11.5824 7.03271 11.9113 7.03271C12.2403 7.03271 12.5078 7.30016 12.5078 7.62912V12.0179C12.5078 12.3469 12.2403 12.6143 11.9113 12.6143V12.617Z" fill="#1686F2" stroke="#1686F2" stroke-width="0.3"/>
</svg>
