<svg width="23" height="23" viewBox="0 0 23 23" fill="none" xmlns="http://www.w3.org/2000/svg">
<g clip-path="url(#clip0_622_7713)">
<path d="M18.4421 22.1154H0.82301C0.369063 22.1154 0 21.7434 0 21.2858V0.829559C0 0.372 0.369063 0 0.82301 0H18.4421C18.896 0 19.2651 0.372 19.2651 0.829559V7.11635H17.6191V1.65912H1.64602V20.4563H17.6191V14.9023H19.2651V21.2858C19.2651 21.7434 18.896 22.1154 18.4421 22.1154Z" fill="#AAAAAA"/>
<path d="M12.3083 5.25684H4.44727V6.70764H12.3083V5.25684Z" fill="#AAAAAA"/>
<path d="M10.7841 8.6084H4.44727V10.0592H10.7841V8.6084Z" fill="#AAAAAA"/>
<path d="M10.6512 11.96H4.44727V13.4108H10.6512V11.96Z" fill="#AAAAAA"/>
<path d="M12.3083 15.3076H4.44727V16.7584H12.3083V15.3076Z" fill="#AAAAAA"/>
<path d="M22.1768 17.7443C21.9332 17.7443 21.6933 17.6364 21.5309 17.4281L19.3387 14.6158C19.0582 14.2549 19.1209 13.7341 19.4752 13.4514C19.8332 13.1687 20.3499 13.2319 20.6304 13.5891L22.8226 16.4014C23.1031 16.7622 23.0404 17.283 22.6861 17.5657C22.5348 17.6848 22.3576 17.7443 22.1768 17.7443Z" fill="#1686F2"/>
<path d="M17.6817 15.702C15.113 15.702 13.0278 13.5964 13.0278 11.0073C13.0278 8.4182 15.1167 6.31641 17.6817 6.31641C20.2467 6.31641 22.3356 8.42192 22.3356 11.0073C22.3356 13.5927 20.2467 15.702 17.6817 15.702ZM17.6817 7.97553C16.0209 7.97553 14.6702 9.33704 14.6702 11.011C14.6702 12.685 16.0209 14.0466 17.6817 14.0466C19.3425 14.0466 20.6933 12.685 20.6933 11.011C20.6933 9.33704 19.3425 7.97553 17.6817 7.97553Z" fill="#1686F2"/>
</g>
<defs>
<clipPath id="clip0_622_7713">
<rect width="23" height="22.1154" fill="white"/>
</clipPath>
</defs>
</svg>
