<svg width="22" height="21" viewBox="0 0 22 21" fill="none" xmlns="http://www.w3.org/2000/svg">
<g clip-path="url(#clip0_622_7231)">
<path d="M18.0357 0.403087C16.0677 -0.430991 13.1718 -0.163899 11.0023 2.96155C8.82807 -0.159213 5.93222 -0.426305 3.96417 0.403087C1.1105 1.61203 -0.974699 5.44505 0.473224 9.77944C2.47408 15.7679 10.2901 19.8259 10.6227 19.9946C10.6509 20.0086 10.6837 20.018 10.7165 20.0274C10.7446 20.0367 10.768 20.0508 10.7961 20.0555C10.8664 20.0742 10.9367 20.0836 11.007 20.0836C11.082 20.0836 11.1522 20.0742 11.2178 20.0555C11.2413 20.0508 11.2647 20.0367 11.2928 20.0274C11.3256 20.0133 11.3584 20.0086 11.3865 19.9899C11.7192 19.8212 19.5352 15.7539 21.5361 9.77476C22.984 5.44505 20.8941 1.60735 18.0404 0.403087H18.0357ZM11.0023 18.2983C9.45129 17.422 3.59399 13.8514 2.05704 9.24994C0.918379 5.83397 2.4647 2.85378 4.6155 1.94473C6.2368 1.2606 8.57035 1.69169 10.2572 4.95772C10.2572 4.95772 10.2572 4.96241 10.2619 4.96709C10.2807 4.99989 10.2994 5.02801 10.3229 5.05612C10.3322 5.07018 10.3416 5.08892 10.3557 5.10298C10.3744 5.12641 10.3978 5.14515 10.4166 5.1639C10.4353 5.18264 10.4494 5.20138 10.4728 5.21544C10.4915 5.2295 10.5103 5.23887 10.529 5.25293C10.5571 5.27167 10.5806 5.29041 10.6087 5.30447C10.6087 5.30447 10.6134 5.30447 10.6181 5.30916C10.6368 5.31853 10.6555 5.32321 10.679 5.33259C10.7071 5.34196 10.7305 5.35602 10.7586 5.36539C10.7867 5.37476 10.8196 5.37944 10.8477 5.38413C10.8711 5.38413 10.8898 5.3935 10.9133 5.39819C10.9461 5.39819 10.9742 5.39819 11.007 5.39819C11.0304 5.39819 11.0538 5.39819 11.0773 5.39819C11.1054 5.39819 11.1335 5.38882 11.1616 5.38413C11.1897 5.37944 11.2132 5.37476 11.2413 5.36539C11.2413 5.36539 11.2506 5.36539 11.2553 5.36539C11.2788 5.35602 11.3022 5.34664 11.3256 5.33727C11.3444 5.3279 11.3678 5.32321 11.3865 5.31384C11.3865 5.31384 11.3912 5.31384 11.3959 5.30916C11.4287 5.2951 11.4521 5.27167 11.4803 5.25293C11.499 5.23887 11.5131 5.2295 11.5318 5.22013C11.5599 5.1967 11.5787 5.17327 11.6021 5.14984C11.6161 5.13578 11.6302 5.12172 11.6443 5.10767C11.663 5.08424 11.6771 5.06081 11.6958 5.03269C11.7099 5.00926 11.7239 4.99052 11.738 4.96709C11.738 4.96709 11.738 4.96241 11.7427 4.95772C13.4296 1.69169 15.7631 1.2606 17.3891 1.94473C19.5446 2.85378 21.0909 5.83866 19.9476 9.24994C18.4012 13.8749 12.558 17.422 11.0023 18.2983Z" fill="#AAAAAA"/>
</g>
<defs>
<clipPath id="clip0_622_7231">
<rect width="22" height="20.0835" fill="white"/>
</clipPath>
</defs>
</svg>
