<svg width="20" height="23" viewBox="0 0 20 23" fill="none" xmlns="http://www.w3.org/2000/svg">
    <g clip-path="url(#cbgldkcjpa)" fill="#000">
        <path d="M10 22.5A4.62 4.62 0 0 1 5.614 19.3l1.405-.48A3.147 3.147 0 0 0 10 20.995a3.143 3.143 0 0 0 2.981-2.174l1.405.48c-.635 1.915-2.397 3.199-4.39 3.199H10z"/>
        <path d="M19.281 19.663H.72A.725.725 0 0 1 0 18.934a5.54 5.54 0 0 1 2.188-4.431V7.922C2.188 3.556 5.693 0 10 0s7.807 3.556 7.807 7.922v6.58a5.54 5.54 0 0 1 2.188 4.432c0 .4-.32.73-.718.73h.004zM1.497 18.21h17a4.048 4.048 0 0 0-1.793-2.71.733.733 0 0 1-.33-.611V7.927c0-3.566-2.86-6.469-6.374-6.469S3.625 4.356 3.625 7.922v6.962c0 .25-.125.48-.329.611a4.058 4.058 0 0 0-1.794 2.71l-.005.005z"/>
    </g>
    <defs>
        <clipPath id="cbgldkcjpa">
            <path fill="#fff" d="M0 0h20v22.5H0z"/>
        </clipPath>
    </defs>
</svg>
