<svg width="19" height="20" viewBox="0 0 19 20" fill="none" xmlns="http://www.w3.org/2000/svg">
<path d="M0.776651 20.0003C0.592125 20.0003 0.407598 19.9342 0.26485 19.8088C0.0559521 19.6278 -0.0380521 19.3492 0.0141725 19.0777L1.30934 12.3894C1.38942 11.9682 1.79677 11.6931 2.21805 11.7767C2.63933 11.8568 2.91438 12.2641 2.83082 12.6854L1.78633 18.068L6.91826 16.355C7.32561 16.2192 7.7643 16.4386 7.90008 16.8459C8.03587 17.2533 7.81653 17.692 7.40917 17.8278L1.02037 19.9585C0.940288 19.9864 0.856729 19.9968 0.77317 19.9968L0.776651 20.0003Z" fill="#555555"/>
<path d="M15.5875 8.51015C15.403 8.51015 15.2185 8.444 15.0722 8.3117L9.97511 3.7612C9.6548 3.4757 9.62695 2.98479 9.91244 2.66448L12.0606 0.258667C12.1964 0.105475 12.3914 0.0114706 12.5968 0.00102568C12.8022 -0.00941924 13.0041 0.0602135 13.1573 0.195997L18.2544 4.7465C18.4076 4.88228 18.5016 5.07726 18.5121 5.28267C18.5225 5.48809 18.4529 5.69002 18.3171 5.84322L16.1655 8.24903C16.0123 8.41963 15.7999 8.50667 15.5875 8.50667V8.51015ZM11.5871 3.12057L15.5248 6.63703L16.6424 5.38712L12.7012 1.87067L11.5871 3.12057Z" fill="#555555"/>
<path d="M4.23015 18.0539L1.53536 15.6133L0.776367 19.2237L4.23015 18.0539Z" fill="#555555"/>
<path d="M7.1655 17.8653C6.98098 17.8653 6.79645 17.7991 6.65022 17.6668L1.5531 13.1163C1.39991 12.977 1.3059 12.7855 1.29546 12.5801C1.28501 12.3747 1.35465 12.1728 1.49391 12.0196L9.94037 2.66094C10.2259 2.34411 10.7133 2.31626 11.0336 2.60175L16.1307 7.15226C16.2839 7.29152 16.3779 7.48301 16.3884 7.68843C16.3988 7.89384 16.3292 8.09578 16.1899 8.24897L7.74345 17.6007C7.59026 17.7713 7.37788 17.8583 7.1655 17.8583V17.8653ZM3.16858 12.4792L7.10631 15.9956L14.5118 7.79636L10.574 4.2799L3.16858 12.4757V12.4792Z" fill="#555555"/>
</svg>
