<svg width="35" height="41" viewBox="0 0 35 41" fill="none" xmlns="http://www.w3.org/2000/svg">
<g clip-path="url(#clip0_2151_11508)">
<path d="M24.0234 14.8919C24.3279 15.0677 24.6046 15.262 24.8802 15.473L26.6199 12.4598C28.4279 9.31322 27.358 5.3 24.2152 3.4855C21.0724 1.67099 17.0554 2.74733 15.2409 5.89015L9.86103 15.2084C8.48051 17.5996 8.77947 20.4938 10.3797 22.5408C10.8808 23.1844 11.514 23.7487 12.2657 24.1827C13.121 24.6765 14.0498 24.9535 14.9738 25.0291C17.4351 25.2405 19.9166 24.0553 21.24 21.778L22.2052 20.1062C21.9902 19.8352 21.7295 19.5983 21.412 19.4149C20.9908 19.1718 20.5281 19.0602 20.0697 19.0461L19.1793 20.5883C18.5545 21.6705 17.5138 22.3656 16.3768 22.5991C15.4098 22.7925 14.3756 22.6533 13.4517 22.1285C12.6546 21.6684 12.072 20.9864 11.7265 20.208C11.2009 19.0233 11.2221 17.6099 11.9152 16.3944L17.2951 7.07612C18.4512 5.07379 21.0167 4.38636 23.019 5.5424C25.0214 6.69845 25.7088 9.26399 24.5592 11.2701L22.7971 14.3221C23.2168 14.4781 23.6216 14.6599 24.0234 14.8919Z" fill="#AAAAAA"/>
<path d="M24.0564 16.6301L24.0176 16.6077C23.9121 16.5209 23.8159 16.4481 23.716 16.3817C23.5837 16.2967 23.4551 16.2052 23.3125 16.1229C23.1505 16.0293 22.9875 15.9525 22.8245 15.8757C22.6615 15.7988 22.491 15.735 22.3076 15.6636L22.0286 15.5631C19.151 14.6361 15.916 15.8096 14.3447 18.5313L13.3832 20.1966C13.601 20.4779 13.8617 20.7148 14.1727 20.8944C14.5809 21.1301 15.0398 21.2481 15.5122 21.253L16.3989 19.7172C17.0274 18.6286 18.0644 17.9399 19.2014 17.7065L19.2538 17.6157L20.024 17.6285C20.386 17.6301 20.7422 17.6716 21.1019 17.7669C21.1278 17.7819 21.1612 17.7839 21.1844 17.7886C21.3095 17.8263 21.4411 17.8677 21.5652 17.9221C21.5976 17.9408 21.6375 17.9465 21.6801 17.9625C21.8107 18.0206 21.9478 18.0825 22.0774 18.1573C22.0904 18.1648 22.1033 18.1723 22.1228 18.1835C22.2394 18.2509 22.3588 18.3284 22.468 18.4087C22.8408 18.6758 23.154 18.9863 23.4142 19.3438L23.9245 20.0013L23.8571 20.118C24.3827 21.3027 24.3616 22.7161 23.6685 23.9316L18.2885 33.2499C17.1288 35.2587 14.567 35.9396 12.5609 34.7901C10.5521 33.6303 9.87113 31.0685 11.0309 29.0597L12.7968 26.0011C12.3771 25.8452 11.9621 25.6661 11.5668 25.4379C11.2687 25.2658 10.9856 25.0677 10.71 24.8568L8.97027 27.87C7.15577 31.0128 8.23211 35.0297 11.3749 36.8443C14.5177 38.6588 18.5347 37.5824 20.3492 34.4396L25.7291 25.1213C27.3902 22.2442 26.6211 18.6379 24.0684 16.6543L24.0564 16.6301Z" fill="#AAAAAA"/>
</g>
<defs>
<clipPath id="clip0_2151_11508">
<rect width="18.6763" height="35.2874" fill="white" transform="translate(18.5258 0.200684) rotate(30)"/>
</clipPath>
</defs>
</svg>
