<svg width="56" height="56" viewBox="0 0 56 56" fill="none" xmlns="http://www.w3.org/2000/svg">
<circle cx="28" cy="28" r="28" fill="#1686F2"/>
<g clip-path="url(#clip0_111_1180)">
<path fill-rule="evenodd" clip-rule="evenodd" d="M37.4641 36.6939L42.689 33.6773C43.1033 33.4381 43.2382 32.904 42.9982 32.4884C41.9426 30.66 40.1229 29.4553 38.0654 29.1962L34.1167 22.3569C31.4974 17.8202 25.7261 16.2245 21.2502 18.8086C16.7743 21.3927 15.2658 27.1915 17.8851 31.7282L21.8337 38.5675C21.0294 40.479 21.1628 42.6573 22.2185 44.4856C22.4612 44.9061 22.9932 45.0487 23.4027 44.8122L28.6315 41.7934C30.4102 43.1397 32.8121 43.3106 34.7503 42.1915L34.7455 42.1943C36.6838 41.0753 37.7367 38.9097 37.4641 36.6939ZM35.7069 37.7084L30.3915 40.7773C31.4859 41.2823 32.772 41.2479 33.8471 40.6272C34.9223 40.0064 35.5979 38.9082 35.7069 37.7084ZM41.0074 32.634L23.34 42.8343L23.342 42.8266C22.8811 41.561 22.956 40.1554 23.5808 38.9342C23.7137 38.675 23.7055 38.3603 23.5559 38.1012L19.3786 30.8659C17.2392 27.1603 18.4732 22.4326 22.1252 20.3241C25.7772 18.2156 30.4913 19.5157 32.6308 23.2213L36.8081 30.4566C36.9549 30.7108 37.2261 30.8801 37.5171 30.8946C38.887 30.9641 40.1389 31.5971 41.0074 32.634Z" fill="white"/>
</g>
<path d="M33.5282 16.5277C33.5029 16.5423 33.4765 16.5549 33.4489 16.5657C33.19 16.6607 32.9022 16.526 32.8072 16.2671C32.3041 14.8926 31.2042 13.886 29.791 13.509C28.3767 13.13 26.9228 13.4507 25.7979 14.3906C25.5862 14.5673 25.2696 14.5401 25.0928 14.3283C24.9161 14.1165 24.9434 13.7999 25.1552 13.6232C26.5321 12.473 28.3165 12.0781 30.048 12.5437C31.7814 13.0081 33.1282 14.2404 33.7455 15.925C33.8299 16.1564 33.7335 16.4117 33.5273 16.5308L33.5282 16.5277Z" fill="white"/>
<path d="M36.3487 15.1122C36.3234 15.1268 36.297 15.1394 36.2694 15.1502C36.0105 15.2452 35.7227 15.1105 35.6277 14.8516C34.7983 12.5841 32.984 10.924 30.6524 10.2993C28.3176 9.67366 25.9164 10.2042 24.0644 11.7532C23.8538 11.9319 23.538 11.9015 23.3593 11.6909C23.1807 11.4803 23.2099 11.1626 23.4236 10.9847C25.5296 9.2242 28.2575 8.62175 30.9094 9.33396C33.5601 10.0442 35.6244 11.9307 36.5661 14.5095C36.6504 14.7409 36.554 14.9962 36.3478 15.1153L36.3487 15.1122Z" fill="white"/>
<defs>
<clipPath id="clip0_111_1180">
<rect width="24" height="27" fill="white" transform="translate(10.8579 24.8086) rotate(-30)"/>
</clipPath>
</defs>
</svg>
