<svg width="24" height="23" viewBox="0 0 24 23" fill="none" xmlns="http://www.w3.org/2000/svg">
    <path d="M8.98 7.981c-4.354 0-8.98-1.4-8.98-3.99C0 1.4 4.516 0 8.98 0c4.463 0 8.98 1.4 8.98 3.99 0 2.592-4.626 3.991-8.98 3.991zm0-6.433c-4.547 0-7.448 1.446-7.448 2.443 0 .997 2.9 2.443 7.448 2.443 4.546 0 7.447-1.446 7.447-2.443 0-.997-2.903-2.443-7.447-2.443zM17.898 7.696l-1.489-.367a.473.473 0 0 0 .016-.121h1.532c0 .163-.02.33-.06.488zM8.98 11.196C4.626 11.196 0 9.8 0 7.208h1.532c0 .995 2.9 2.443 7.448 2.443.536 0 1.072-.022 1.593-.064l.12 1.543c-.562.044-1.14.068-1.716.068l.003-.002z" fill="#202020"/>
    <path d="M17.957 3.99h-1.533v3.531h1.533v-3.53zM1.532 3.99H0v3.531h1.532v-3.53zM8.98 14.492c-4.354 0-8.98-1.4-8.98-3.99h1.532c0 .995 2.9 2.443 7.448 2.443.118 0 .236 0 .354-.002l.026 1.547c-.126.002-.253.005-.38.005v-.003z" fill="#202020"/>
    <path d="M1.532 7.286H0v3.53h1.532v-3.53zM8.98 17.787c-4.354 0-8.98-1.4-8.98-3.991h1.532c0 .995 2.9 2.443 7.448 2.443.23 0 .455-.005.678-.011l.048 1.547c-.24.01-.483.012-.729.012h.003z" fill="#202020"/>
    <path d="M1.532 10.58H0v3.53h1.532v-3.53zM16.105 23c-4.31 0-7.815-3.542-7.815-7.893 0-4.35 3.507-7.893 7.815-7.893s7.815 3.542 7.815 7.893S20.413 23 16.105 23zm0-14.24c-3.466 0-6.283 2.847-6.283 6.345 0 3.498 2.82 6.345 6.283 6.345 3.463 0 6.282-2.847 6.282-6.345 0-3.498-2.82-6.345-6.282-6.345z" fill="#202020"/>
    <path d="M15.531 18.22a4.784 4.784 0 0 1-1.423-.464l.344-1.09c.276.177.744.363 1.206.465l.16-1.524-.184-.042c-.795-.185-1.423-.659-1.423-1.667 0-.904.703-1.658 2.01-1.718l.067-.575h.839l-.075.617c.537.075.955.246 1.165.372l-.344 1.041a3.166 3.166 0 0 0-.937-.356l-.16 1.404.075.009c.93.194 1.607.592 1.607 1.667 0 1.074-.753 1.861-2.102 1.912l-.083.803h-.83l.092-.854h-.004zm.427-3.72.142-1.26c-.418.075-.678.287-.678.574 0 .288.091.55.536.685zm.67 1.32-.143 1.352c.504-.092.747-.364.747-.676 0-.363-.169-.533-.602-.676h-.002z" fill="#1686F2"/>
</svg>
