<svg width="24" height="24" viewBox="0 0 24 24" fill="none" xmlns="http://www.w3.org/2000/svg">
<g clip-path="url(#clip0_302_352)">
<path d="M15.1611 7.20814L13.5216 6.73847L12.5634 5.34286C12.4377 5.15835 12.227 5.04932 12.001 5.04932C11.7751 5.04932 11.5644 5.16003 11.4387 5.34286L10.4805 6.73847L8.84095 7.20814C8.62518 7.2702 8.45358 7.43291 8.38392 7.64594C8.31426 7.8573 8.35504 8.08878 8.49436 8.26491L9.54092 9.59677L9.48656 11.2809C9.47976 11.5023 9.5834 11.7153 9.76689 11.8445C9.88412 11.9284 10.0251 11.972 10.1661 11.972C10.2443 11.972 10.3225 11.9586 10.3972 11.9317L12.0027 11.3597L13.6083 11.9317C13.8206 12.0072 14.0568 11.9737 14.2386 11.8428C14.4204 11.712 14.5257 11.5006 14.5189 11.2775L14.4645 9.59341L15.5128 8.26155C15.6504 8.08542 15.6929 7.85394 15.6232 7.64259C15.5536 7.43124 15.382 7.26685 15.1662 7.20479L15.1611 7.20814ZM13.2379 8.96271C13.141 9.08684 13.0901 9.23948 13.0952 9.39548L13.1258 10.3348L12.2304 10.0161C12.0809 9.96244 11.9178 9.96244 11.77 10.0161L10.8746 10.3348L10.9052 9.39548C10.9103 9.23948 10.8593 9.08684 10.7625 8.96271L10.1797 8.22129L11.0938 7.95962C11.2467 7.91601 11.3775 7.82207 11.4676 7.69123L12.001 6.91459L12.5345 7.69123C12.6229 7.82039 12.7554 7.91601 12.9083 7.95962L13.8223 8.22129L13.2396 8.96271H13.2379Z" fill="#A0A0A0"/>
<path d="M22.1895 4.64695C21.6696 4.24437 21.0716 4.07999 20.4599 4.16721C19.9282 4.24437 19.4592 4.50102 19.0821 4.78785V3.34193H19.8704C20.2459 3.34193 20.55 3.04167 20.55 2.67096C20.55 2.30026 20.2459 2 19.8704 2H4.12771C3.75223 2 3.44812 2.30026 3.44812 2.67096C3.44812 3.04167 3.75223 3.34193 4.12771 3.34193H4.91603V4.78785C4.54056 4.50269 4.07164 4.24605 3.53816 4.16889C2.92653 4.07999 2.3285 4.24605 1.80861 4.64863C1.14431 5.16191 0.869078 5.98552 1.05766 6.9081C1.40086 8.59557 3.1474 10.2814 5.17258 10.9205C5.93711 13.4617 8.32077 15.3203 11.1394 15.3203H11.3195V17.0413H7.6157C7.24023 17.0413 6.93611 17.3416 6.93611 17.7123V19.6564H5.19127C4.81579 19.6564 4.51168 19.9566 4.51168 20.3274C4.51168 20.6981 4.81579 20.9983 5.19127 20.9983H12.7925C13.1679 20.9983 13.4721 20.6981 13.4721 20.3274C13.4721 19.9566 13.1679 19.6564 12.7925 19.6564H8.29529V18.3832H15.7028V20.3274C15.7028 20.6981 16.0069 20.9983 16.3824 20.9983H18.8068C19.1823 20.9983 19.4864 20.6981 19.4864 20.3274C19.4864 19.9566 19.1823 19.6564 18.8068 19.6564H17.062V17.7123C17.062 17.3416 16.7579 17.0413 16.3824 17.0413H12.6786V15.3203H12.8587C15.6756 15.3203 18.061 13.4617 18.8255 10.9205C20.8507 10.2814 22.5972 8.59557 22.9404 6.9081C23.129 5.98552 22.8538 5.16191 22.1895 4.64695ZM2.38966 6.64474C2.30301 6.22036 2.38966 5.90333 2.6462 5.70372C2.87387 5.52759 3.09473 5.46049 3.33599 5.49572C3.94932 5.58294 4.56604 6.26733 4.75123 6.52397C4.7971 6.58771 4.85317 6.63803 4.91433 6.68164V9.17763C4.91433 9.24808 4.91773 9.31685 4.91943 9.3873C3.53986 8.7415 2.57825 7.57738 2.38966 6.64642V6.64474ZM12.8587 13.98H11.1377C8.45499 13.98 6.27351 11.8263 6.27351 9.17763V3.34193H17.7246V9.17595C17.7246 11.8246 15.5431 13.9784 12.8604 13.9784L12.8587 13.98ZM21.6084 6.64474C21.4182 7.57738 20.4565 8.73982 19.0787 9.38563C19.0804 9.31518 19.0838 9.2464 19.0838 9.17595V6.67997C19.1449 6.63635 19.201 6.58603 19.2469 6.52229C19.4168 6.2841 20.0403 5.58462 20.6587 5.49572C20.9034 5.46049 21.1225 5.52591 21.3519 5.70372C21.6084 5.90333 21.6951 6.21868 21.6084 6.64474Z" fill="#A0A0A0"/>
</g>
<defs>
<clipPath id="clip0_302_352">
<rect width="22" height="19" fill="white" transform="translate(1 2)"/>
</clipPath>
</defs>
</svg>
