<svg width="24" height="24" viewBox="0 0 24 24" fill="none" xmlns="http://www.w3.org/2000/svg">
<g clip-path="url(#clip0_302_438)">
<path d="M11.8453 20.9991H5.29658C4.1903 20.9991 3.28972 20.1421 3.28972 19.0897C3.28972 18.6291 3.46205 18.2075 3.74835 17.8781C3.35087 17.5292 3.10348 17.0295 3.10348 16.4768C3.10348 15.9966 3.28972 15.5556 3.60103 15.2206C3.23134 14.8744 3.00342 14.3943 3.00342 13.8611C3.00342 13.3279 3.23134 12.8477 3.60103 12.5016C3.29528 12.1666 3.10904 11.7283 3.10904 11.251C3.10904 10.1986 4.00963 9.34154 5.11591 9.34154H8.55983C8.48478 9.00935 8.41807 8.70506 8.3458 8.37008C8.29577 8.13838 8.24017 7.89272 8.17902 7.61915C7.94832 6.57789 7.97611 3.56301 10.1053 3.06052C10.6556 2.92932 11.1198 2.99911 11.4895 3.26431C12.1566 3.74725 12.2428 4.6908 12.3178 5.52268C12.3484 5.8493 12.3734 6.15637 12.4318 6.37969C12.8543 8.02671 13.2796 8.9926 14.6805 10.3353C14.8195 10.4498 14.9529 10.5726 15.0752 10.7038L15.103 10.7289C15.2559 10.8713 15.3754 11.0249 15.4727 11.1951C15.6256 11.4185 15.7562 11.653 15.8563 11.893L14.7166 12.3816C14.6444 12.2113 14.5499 12.041 14.4387 11.8819C14.4248 11.8623 14.4137 11.8428 14.3998 11.8204C14.3664 11.7562 14.3191 11.6976 14.2663 11.6474L14.2274 11.6139C14.2274 11.6139 14.1996 11.5887 14.1885 11.5748C14.094 11.4743 13.9884 11.3766 13.88 11.2873C13.8661 11.2761 13.855 11.2649 13.8411 11.2538C12.2261 9.71003 11.6952 8.50686 11.2282 6.68956C11.1448 6.36853 11.1115 5.99446 11.0809 5.63435C11.0364 5.1542 10.9725 4.4256 10.764 4.27485C10.7029 4.23019 10.5667 4.23019 10.3888 4.27485C9.2714 4.53726 9.24361 6.70072 9.38815 7.35116C9.4493 7.62752 9.50211 7.87318 9.55492 8.10767C9.68 8.67436 9.78563 9.16288 9.94129 9.82448C9.98576 10.0087 9.94129 10.2041 9.82454 10.3549C9.7078 10.5056 9.52713 10.5922 9.33811 10.5922H5.11313C4.69063 10.5922 4.34596 10.8909 4.34596 11.2566C4.34596 11.6222 4.69063 11.9209 5.11313 11.9209H6.06375C6.40564 11.9209 6.6836 12.2001 6.6836 12.5435V12.5798C6.6836 12.9231 6.40564 13.2023 6.06375 13.2023H5.00195C4.57945 13.2023 4.23756 13.501 4.23756 13.8667C4.23756 14.2324 4.57945 14.5311 5.00195 14.5311H6.06375C6.40564 14.5311 6.6836 14.8102 6.6836 15.1536V15.1954C6.6836 15.5388 6.40564 15.818 6.06375 15.818H5.10479C4.68229 15.818 4.3404 16.1167 4.3404 16.4824C4.3404 16.8481 4.68507 17.1468 5.10479 17.1468H6.06375C6.40564 17.1468 6.6836 17.4259 6.6836 17.7693V17.8084C6.6836 18.1517 6.40564 18.4309 6.06375 18.4309H5.2938C4.87131 18.4309 4.52664 18.7296 4.52664 19.0953C4.52664 19.461 4.87131 19.7597 5.2938 19.7597H11.8453C13.1045 19.7597 14.2608 19.0394 14.7166 17.9647L15.8563 18.4532C15.1975 20.0025 13.6215 21.0047 11.8453 21.0047V20.9991Z" fill="#1686F2"/>
<path d="M19.3802 20.6736H15.2859C14.944 20.6736 14.666 20.3944 14.666 20.0511V10.5346C14.666 10.1913 14.944 9.91211 15.2859 9.91211H19.3802C19.7221 9.91211 20.0001 10.1913 20.0001 10.5346V20.0511C20.0001 20.3944 19.7221 20.6736 19.3802 20.6736ZM15.9057 19.4285H18.7604V11.1571H15.9057V19.4258V19.4285Z" fill="#1686F2"/>
</g>
<defs>
<clipPath id="clip0_302_438">
<rect width="17" height="18" fill="white" transform="translate(3 3)"/>
</clipPath>
</defs>
</svg>
