<svg width="18" height="14" viewBox="0 0 18 14" fill="none" xmlns="http://www.w3.org/2000/svg">
<path fill-rule="evenodd" clip-rule="evenodd" d="M16.75 0H0.65C0.291015 0 0 0.291015 0 0.65V0.75C0 1.10899 0.291015 1.4 0.65 1.4H16.75C17.109 1.4 17.4 1.10898 17.4 0.75V0.65C17.4 0.291015 17.109 0 16.75 0Z" fill="#202020"/>
<path fill-rule="evenodd" clip-rule="evenodd" d="M16.75 5.9502H0.65C0.291015 5.9502 0 6.24121 0 6.60019V6.7002C0 7.05918 0.291015 7.3502 0.65 7.3502H16.75C17.109 7.3502 17.4 7.05918 17.4 6.7002V6.60019C17.4 6.24121 17.109 5.9502 16.75 5.9502Z" fill="#202020"/>
<path fill-rule="evenodd" clip-rule="evenodd" d="M16.75 11.9502H0.65C0.291015 11.9502 0 12.2412 0 12.6002V12.7002C0 13.0592 0.291015 13.3502 0.65 13.3502H16.75C17.109 13.3502 17.4 13.0592 17.4 12.7002V12.6002C17.4 12.2412 17.109 11.9502 16.75 11.9502Z" fill="#202020"/>
</svg>
