<svg width="18" height="22" viewBox="0 0 18 22" fill="none" xmlns="http://www.w3.org/2000/svg">
<g clip-path="url(#clip0_2909_11542)">
<path d="M14.8781 21.1763H3.12079C2.36181 21.1763 1.745 20.535 1.745 19.7458V4.10041C1.745 3.77141 2.00181 3.50439 2.31824 3.50439H15.6807C15.9971 3.50439 16.2539 3.77141 16.2539 4.10041V19.7458C16.2539 20.535 15.6371 21.1763 14.8781 21.1763V21.1763ZM2.89149 4.69643V19.7458C2.89149 19.877 2.99468 19.9843 3.12079 19.9843H14.8781C15.0042 19.9843 15.1074 19.877 15.1074 19.7458V4.69643H2.89149Z" fill="white"/>
<path d="M17.4268 4.69643H0.573248C0.256815 4.69643 0 4.42941 0 4.10041C0 3.77141 0.256815 3.50439 0.573248 3.50439H17.4268C17.7432 3.50439 18 3.77141 18 4.10041C18 4.42941 17.7432 4.69643 17.4268 4.69643Z" fill="white"/>
<path d="M11.0465 4.69661C10.7301 4.69661 10.4732 4.4296 10.4732 4.10059V2.7238C10.4732 1.87864 9.81286 1.19203 8.99999 1.19203C8.18713 1.19203 7.52675 1.87864 7.52675 2.7238V4.10059C7.52675 4.4296 7.26993 4.69661 6.9535 4.69661C6.63706 4.69661 6.38025 4.4296 6.38025 4.10059V2.7238C6.38025 1.22183 7.55541 0 8.99999 0C10.4446 0 11.6197 1.22183 11.6197 2.7238V4.10059C11.6197 4.4296 11.3629 4.69661 11.0465 4.69661Z" fill="white"/>
<rect x="5" y="7" width="1.4" height="10" rx="0.7" fill="white"/>
<rect x="8.20007" y="7" width="1.4" height="10" rx="0.7" fill="white"/>
<rect x="11.4001" y="7" width="1.4" height="10" rx="0.7" fill="white"/>
</g>
<defs>
<clipPath id="clip0_2909_11542">
<rect width="18" height="21.1765" fill="white"/>
</clipPath>
</defs>
</svg>
