<svg width="24" height="24" viewBox="0 0 24 24" fill="none" xmlns="http://www.w3.org/2000/svg">
<g clip-path="url(#clip0_302_394)">
<path d="M18.9702 2H5.87195C4.84002 2 4 2.82857 4 3.84643V20.1536C4 21.1714 4.84002 22 5.87195 22H16.2256C16.6257 22 16.9498 21.6804 16.9498 21.2857C16.9498 20.8911 16.6257 20.5714 16.2256 20.5714H5.87195C5.63841 20.5714 5.44832 20.3839 5.44832 20.1536V15.8089H19.3938V20.1536C19.3938 20.3839 19.2037 20.5714 18.9702 20.5714C18.5701 20.5714 18.246 20.8911 18.246 21.2857C18.246 21.6804 18.5701 22 18.9702 22C20.0021 22 20.8421 21.1714 20.8421 20.1536V3.84643C20.8421 2.82857 20.0021 2 18.9702 2ZM5.44832 3.84643C5.44832 3.61607 5.63841 3.42857 5.87195 3.42857H18.9702C19.2037 3.42857 19.3938 3.61607 19.3938 3.84643V8.19107H5.44832V3.84643ZM5.44832 14.3804V9.61786H19.3938V14.3804H5.44832Z" fill="#1686F2"/>
<path d="M14.7318 6.54102H10.1099V7.52316H14.7318V6.54102Z" fill="#1686F2"/>
<path d="M14.7318 12.7319H10.1099V13.7141H14.7318V12.7319Z" fill="#1686F2"/>
<path d="M14.7318 18.9214H10.1099V19.9035H14.7318V18.9214Z" fill="#1686F2"/>
</g>
<defs>
<clipPath id="clip0_302_394">
<rect width="16.8421" height="20" fill="white" transform="translate(4 2)"/>
</clipPath>
</defs>
</svg>
