<svg width="22" height="22" viewBox="0 0 22 22" fill="none" xmlns="http://www.w3.org/2000/svg">
    <path fill-rule="evenodd" clip-rule="evenodd" d="M21.305 11.12c0-.746-.067-1.49-.2-2.224H10.869V13.1h5.851a5.002 5.002 0 0 1-2.17 3.281v2.728h3.514c2.056-1.892 3.242-4.68 3.242-7.99" fill="#202020"/>
    <path fill-rule="evenodd" clip-rule="evenodd" d="M10.868 21.743c2.647.072 5.221-.871 7.195-2.635L14.55 16.38a6.558 6.558 0 0 1-9.762-3.443H1.154v2.817a10.868 10.868 0 0 0 9.714 5.99z" fill="#202020"/>
    <path fill-rule="evenodd" clip-rule="evenodd" d="M4.786 12.938a6.427 6.427 0 0 1 0-4.131V5.99h-3.63a10.885 10.885 0 0 0 0 9.764l3.63-2.816z" fill="#202020"/>
    <path fill-rule="evenodd" clip-rule="evenodd" d="M10.868 4.326a5.873 5.873 0 0 1 4.156 1.626l3.118-3.117A10.448 10.448 0 0 0 10.868 0a10.867 10.867 0 0 0-9.714 5.99l3.634 2.816a6.479 6.479 0 0 1 6.08-4.48z" fill="#202020"/>
</svg>
