<svg width="24" height="24" viewBox="0 0 24 24" fill="none" xmlns="http://www.w3.org/2000/svg">
<g clip-path="url(#clip0_302_357)">
<path d="M20.401 6.75089H18.9164L17.7334 4.3465C17.6282 4.13333 17.4148 3.99854 17.1798 3.99854H6.82023C6.58517 3.99854 6.37176 4.13333 6.2666 4.3465L5.08358 6.75089H3.59901C2.71754 6.75089 2 7.47816 2 8.37158V18.3794C2 19.2728 2.71754 20.0001 3.59901 20.0001H15.171C15.5127 20.0001 15.7895 19.7195 15.7895 19.3731C15.7895 19.0267 15.5127 18.7462 15.171 18.7462H3.59901C3.39952 18.7462 3.23715 18.5816 3.23715 18.3794V8.37158C3.23715 8.16938 3.39952 8.0048 3.59901 8.0048H20.401C20.6005 8.0048 20.7629 8.16938 20.7629 8.37158V18.3794C20.7629 18.5816 20.6005 18.7462 20.401 18.7462H18.4942C18.1525 18.7462 17.8757 19.0267 17.8757 19.3731C17.8757 19.7195 18.1525 20.0001 18.4942 20.0001H20.401C21.2825 20.0001 22 19.2728 22 18.3794V8.37158C22 7.47816 21.2825 6.75089 20.401 6.75089ZM6.46609 6.75089L7.2022 5.25402H16.7978L17.5339 6.75089H6.46609Z" fill="#A0A0A0"/>
<path d="M18.9224 9.98584H13.3135V10.9655H18.9224V9.98584Z" fill="#A0A0A0"/>
<path d="M19.6555 12.7886H12.5806V13.7682H19.6555V12.7886Z" fill="#A0A0A0"/>
<path d="M19.6555 14.3164H12.5806V15.296H19.6555V14.3164Z" fill="#A0A0A0"/>
<path d="M19.6555 15.8447H12.5806V16.8244H19.6555V15.8447Z" fill="#A0A0A0"/>
<path d="M4.21777 15.997V16.8246C4.21777 17.171 4.49458 17.4516 4.83635 17.4516H10.6076C10.9494 17.4516 11.2262 17.171 11.2262 16.8246V15.997C11.2262 14.6193 10.4468 13.4234 9.31327 12.834C9.60709 12.472 9.78493 12.0096 9.78493 11.5049C9.78493 10.3528 8.86016 9.41553 7.72353 9.41553C6.58691 9.41553 5.66214 10.3528 5.66214 11.5049C5.66214 12.0096 5.83998 12.472 6.1338 12.834C4.99872 13.4218 4.22087 14.6193 4.22087 15.997H4.21777ZM7.72199 10.6694C8.17664 10.6694 8.54624 11.0441 8.54624 11.5049C8.54624 11.9657 8.17664 12.3403 7.72199 12.3403C7.26734 12.3403 6.89774 11.9657 6.89774 11.5049C6.89774 11.0441 7.26734 10.6694 7.72199 10.6694ZM5.45492 15.997C5.45492 14.7306 6.47247 13.6992 7.72199 13.6992C8.9715 13.6992 9.98906 14.7306 9.98906 15.997V16.1977H5.45492V15.997Z" fill="#A0A0A0"/>
</g>
<defs>
<clipPath id="clip0_302_357">
<rect width="20" height="16" fill="white" transform="translate(2 4)"/>
</clipPath>
</defs>
</svg>
