<svg width="24" height="24" viewBox="0 0 24 24" fill="none" xmlns="http://www.w3.org/2000/svg">
<path d="M20.7958 6.83445L17.8709 3.90952C17.29 3.32787 16.5018 3.00072 15.6798 3H9.12712C8.30506 3.00072 7.51693 3.32787 6.93601 3.90952L4.01108 6.83445C3.42943 7.41537 3.10229 8.2035 3.10156 9.02556V18.5031C3.10156 19.3255 3.42824 20.1141 4.00972 20.6956C4.5912 21.2771 5.37985 21.6038 6.20219 21.6038H18.6047C19.4271 21.6038 20.2157 21.2771 20.7972 20.6956C21.3787 20.1141 21.7053 19.3255 21.7053 18.5031V9.02556C21.7046 8.2035 21.3775 7.41537 20.7958 6.83445ZM8.3933 5.36681C8.59137 5.17795 8.85347 5.07089 9.12712 5.06709H15.6798C15.9534 5.07089 16.2155 5.17795 16.4136 5.36681L18.181 7.13417H6.62595L8.3933 5.36681ZM18.6047 19.5367H6.20219C5.92808 19.5367 5.66519 19.4278 5.47137 19.234C5.27754 19.0401 5.16865 18.7773 5.16865 18.5031V9.20126H19.6383V18.5031C19.6383 18.7773 19.5294 19.0401 19.3355 19.234C19.1417 19.4278 18.8788 19.5367 18.6047 19.5367Z" fill="#1686F2" stroke="white" stroke-width="0.3"/>
<path d="M15.5043 12.3691C15.2302 12.3691 14.9673 12.478 14.7735 12.6719C14.5797 12.8657 14.4708 13.1286 14.4708 13.4027C14.4708 13.9509 14.253 14.4767 13.8654 14.8643C13.4777 15.252 12.9519 15.4698 12.4037 15.4698C11.8555 15.4698 11.3297 15.252 10.9421 14.8643C10.5544 14.4767 10.3366 13.9509 10.3366 13.4027C10.3366 13.1286 10.2277 12.8657 10.0339 12.6719C9.84007 12.478 9.57719 12.3691 9.30307 12.3691C9.02896 12.3691 8.76608 12.478 8.57225 12.6719C8.37842 12.8657 8.26953 13.1286 8.26953 13.4027C8.26953 14.4991 8.70509 15.5507 9.4804 16.326C10.2557 17.1013 11.3073 17.5369 12.4037 17.5369C13.5002 17.5369 14.5517 17.1013 15.327 16.326C16.1023 15.5507 16.5379 14.4991 16.5379 13.4027C16.5379 13.1286 16.429 12.8657 16.2352 12.6719C16.0413 12.478 15.7784 12.3691 15.5043 12.3691Z" fill="#1686F2"/>
</svg>
