<svg width="24" height="24" viewBox="0 0 24 24" fill="none" xmlns="http://www.w3.org/2000/svg">
<path d="M12.6223 12.5353C13.1169 12.5353 13.518 12.1337 13.518 11.6382C13.518 11.1428 13.1169 10.7412 12.6223 10.7412C12.1276 10.7412 11.7266 11.1428 11.7266 11.6382C11.7266 12.1337 12.1276 12.5353 12.6223 12.5353Z" fill="#1686F2"/>
<path d="M16.2062 12.5353C16.7009 12.5353 17.1019 12.1337 17.1019 11.6382C17.1019 11.1428 16.7009 10.7412 16.2062 10.7412C15.7116 10.7412 15.3105 11.1428 15.3105 11.6382C15.3105 12.1337 15.7116 12.5353 16.2062 12.5353Z" fill="#1686F2"/>
<path d="M9.04023 12.5353C9.53491 12.5353 9.93593 12.1337 9.93593 11.6382C9.93593 11.1428 9.53491 10.7412 9.04023 10.7412C8.54555 10.7412 8.14453 11.1428 8.14453 11.6382C8.14453 12.1337 8.54555 12.5353 9.04023 12.5353Z" fill="#1686F2"/>
<path d="M18.9556 5.296C17.486 3.81454 15.5463 2.89303 13.4709 2.69032C11.3956 2.48762 9.31466 3.01643 7.58689 4.18559C5.85912 5.35474 4.59279 7.09098 4.00622 9.09497C3.41965 11.099 3.5496 13.2451 4.37367 15.1634C4.45956 15.3417 4.48774 15.5424 4.45428 15.7375L3.66607 19.532C3.6357 19.6775 3.6419 19.8282 3.68411 19.9707C3.72633 20.1132 3.80323 20.2429 3.90791 20.3483C3.99372 20.4336 4.09589 20.5006 4.20826 20.5454C4.32064 20.5901 4.44089 20.6115 4.56177 20.6084H4.74091L8.5745 19.837C8.76934 19.8135 8.96692 19.8414 9.14774 19.9177C11.0632 20.743 13.2061 20.8732 15.2071 20.2857C17.2081 19.6983 18.9418 18.4301 20.1092 16.6997C21.2766 14.9693 21.8046 12.8853 21.6022 10.8068C21.3998 8.72839 20.4797 6.78579 19.0004 5.31394L18.9556 5.296ZM19.6991 12.7952C19.524 13.8663 19.1085 14.8836 18.4841 15.7706C17.8597 16.6577 17.0425 17.3913 16.094 17.9163C15.1456 18.4413 14.0906 18.7441 13.0084 18.8017C11.9262 18.8594 10.8451 18.6705 9.84639 18.2492C9.49218 18.0983 9.11168 18.0191 8.72677 18.016C8.55863 18.0172 8.39086 18.0322 8.22517 18.0609L5.6993 18.5722L6.20985 16.0425C6.31154 15.4947 6.24599 14.9289 6.02176 14.4189C5.60113 13.4187 5.41251 12.3359 5.47009 11.2521C5.52767 10.1684 5.82995 9.11177 6.35419 8.1619C6.87842 7.21203 7.61096 6.39362 8.49666 5.76825C9.38236 5.14288 10.3982 4.72684 11.4676 4.55146C12.5902 4.36695 13.7404 4.45276 14.8233 4.80179C15.9062 5.15081 16.8905 5.75303 17.6949 6.55861C18.4993 7.3642 19.1006 8.35001 19.4491 9.43451C19.7976 10.519 19.8833 11.671 19.6991 12.7952Z" fill="#1686F2"/>
</svg>
