<svg width="113" height="30" viewBox="0 0 113 30" fill="none" xmlns="http://www.w3.org/2000/svg">
    <g clip-path="url(#9fhl5zunza)" fill="#fff">
        <path d="M17.791 13.938c-.02-3.318 2.71-4.916 2.83-4.997-1.556-2.265-3.962-2.569-4.811-2.589-2.022-.202-3.983 1.214-5.014 1.214-1.031 0-2.628-1.194-4.347-1.153-2.203.04-4.245 1.315-5.377 3.277-2.325 4.026-.587 9.953 1.637 13.21 1.112 1.598 2.426 3.378 4.124 3.317 1.678-.06 2.285-1.072 4.307-1.072 2.021 0 2.587 1.072 4.326 1.032 1.8-.02 2.911-1.598 4.003-3.217 1.294-1.82 1.8-3.62 1.82-3.722-.04 0-3.478-1.335-3.518-5.3h.02zM14.516 4.208c.89-1.113 1.516-2.65 1.334-4.208-1.294.06-2.931.89-3.861 2.003-.83.97-1.577 2.549-1.375 4.046 1.456.1 2.952-.729 3.902-1.841zM41.95 25.974h-2.325l-1.273-4.025h-4.448l-1.213 4.025h-2.264L34.834 12.3h2.71l4.427 13.674h-.02zm-3.982-5.704-1.153-3.56c-.121-.365-.343-1.234-.687-2.57h-.04c-.142.587-.344 1.437-.647 2.57l-1.133 3.56h3.68-.02zM53.252 20.917c0 1.68-.445 2.994-1.355 3.985-.808.87-1.82 1.295-3.012 1.295-1.294 0-2.224-.465-2.79-1.396h-.04V30H43.87V19.38c0-1.052-.02-2.145-.08-3.237h1.92l.121 1.558h.04c.728-1.174 1.84-1.76 3.316-1.76 1.173 0 2.123.465 2.911 1.375.769.93 1.173 2.124 1.173 3.642l-.02-.04zm-2.224.081c0-.95-.222-1.76-.647-2.367-.465-.647-1.112-.97-1.9-.97-.546 0-1.032.181-1.476.545-.445.364-.728.83-.87 1.416-.06.263-.1.486-.1.668v1.639c0 .708.222 1.314.667 1.82.444.486 1.01.749 1.718.749.829 0 1.476-.324 1.92-.951.465-.627.688-1.477.688-2.509v-.04zM64.594 20.917c0 1.68-.445 2.994-1.355 3.985-.809.87-1.82 1.295-3.012 1.295-1.294 0-2.224-.465-2.79-1.396h-.04V30h-2.184V19.38c0-1.052-.02-2.145-.081-3.237h1.92l.122 1.558h.04c.728-1.174 1.84-1.76 3.316-1.76 1.152 0 2.123.465 2.911 1.375.769.93 1.173 2.124 1.173 3.642l-.02-.04zm-2.224.081c0-.95-.223-1.76-.647-2.367-.465-.647-1.112-.97-1.9-.97-.547 0-1.032.181-1.477.545-.444.364-.727.83-.869 1.416a3.15 3.15 0 0 0-.1.668v1.639c0 .708.221 1.314.666 1.82.445.486 1.011.749 1.719.749.829 0 1.476-.324 1.92-.951.465-.627.688-1.477.688-2.509v-.04zM77.25 22.151c0 1.153-.405 2.104-1.213 2.832-.89.79-2.123 1.194-3.72 1.194-1.476 0-2.649-.284-3.538-.85l.505-1.82c.97.586 2.022.87 3.174.87.829 0 1.456-.183 1.92-.567.466-.364.688-.87.688-1.497 0-.546-.182-1.032-.566-1.396-.384-.384-1.01-.728-1.88-1.052-2.386-.89-3.579-2.205-3.579-3.924 0-1.133.425-2.043 1.254-2.772.829-.708 1.94-1.072 3.336-1.072 1.253 0 2.284.223 3.093.648l-.546 1.78c-.768-.425-1.638-.627-2.608-.627-.768 0-1.375.182-1.8.566-.363.344-.545.748-.545 1.234 0 .546.202.991.627 1.335.364.324 1.03.668 1.98 1.052 1.173.465 2.043 1.032 2.589 1.659.545.627.828 1.436.828 2.367v.04zM84.487 17.761h-2.406v4.795c0 1.213.425 1.82 1.274 1.82.384 0 .708-.04.97-.1l.061 1.658c-.424.162-.99.243-1.698.243-.87 0-1.537-.263-2.022-.79-.485-.525-.728-1.415-.728-2.65v-4.976h-1.435v-1.638h1.435v-1.8l2.143-.648v2.448h2.406v1.638zM95.384 20.978c0 1.517-.424 2.75-1.294 3.722-.91 1.011-2.102 1.497-3.618 1.497-1.517 0-2.608-.486-3.458-1.436-.849-.951-1.293-2.165-1.293-3.642 0-1.476.444-2.771 1.334-3.742.89-.971 2.082-1.457 3.578-1.457s2.608.486 3.478 1.437c.828.93 1.253 2.144 1.253 3.6l.02.02zm-2.264.08c0-.91-.202-1.678-.586-2.346-.465-.789-1.112-1.173-1.961-1.173-.85 0-1.557.384-2.002 1.173-.384.647-.586 1.436-.586 2.387 0 .95.202 1.68.586 2.347.465.789 1.132 1.173 1.981 1.173.85 0 1.496-.405 1.961-1.194.405-.667.607-1.456.607-2.366zM102.501 18.044a3.784 3.784 0 0 0-.688-.06c-.768 0-1.354.283-1.779.87-.364.505-.546 1.173-.546 1.942v5.178h-2.183v-6.756c0-1.133 0-2.165-.06-3.095h1.9l.08 1.881h.061c.222-.647.586-1.173 1.092-1.558.485-.344 1.011-.526 1.577-.526.202 0 .384 0 .546.04v2.084zM112.286 20.573c0 .385-.02.729-.081.992h-6.571c.021.97.344 1.719.951 2.225.545.465 1.273.688 2.143.688.97 0 1.86-.162 2.648-.466l.344 1.517c-.93.405-2.042.607-3.296.607-1.536 0-2.729-.445-3.598-1.355-.87-.89-1.314-2.104-1.314-3.621s.404-2.731 1.213-3.702c.849-1.052 2.001-1.578 3.436-1.578 1.436 0 2.487.526 3.215 1.578.586.83.869 1.881.869 3.095l.041.02zm-2.083-.566c0-.647-.121-1.214-.424-1.68-.384-.606-.971-.91-1.739-.91-.707 0-1.294.304-1.739.89-.363.466-.586 1.032-.646 1.7h4.569-.021zM37.22 3.904c0 1.214-.364 2.124-1.092 2.731-.667.567-1.617.85-2.85.85-.607 0-1.133-.02-1.578-.081V.789a10.693 10.693 0 0 1 1.86-.142c1.173 0 2.063.263 2.669.77.667.586 1.01 1.395 1.01 2.487h-.02zm-1.133.02c0-.788-.202-1.375-.626-1.8-.425-.425-1.011-.627-1.82-.627-.343 0-.627.02-.87.081v5.017c.142 0 .385.02.729.02.829 0 1.455-.222 1.9-.688.445-.465.667-1.133.667-2.002h.02zM43.244 4.956c0 .749-.222 1.356-.647 1.841-.444.486-1.03.728-1.779.728-.748 0-1.273-.242-1.698-.708-.424-.465-.627-1.072-.627-1.78s.223-1.355.647-1.84c.425-.486 1.011-.709 1.76-.709.747 0 1.273.243 1.718.708.404.466.626 1.052.626 1.78v-.02zm-1.112.04c0-.444-.1-.829-.283-1.152-.222-.385-.545-.587-.97-.587-.425 0-.768.202-.99.587-.183.323-.284.708-.284 1.173 0 .465.101.83.283 1.153.243.384.566.587.97.587.405 0 .729-.203.971-.587.202-.324.303-.708.303-1.153v-.02zM51.311 2.57l-1.516 4.834h-.99L48.176 5.3a15.896 15.896 0 0 1-.384-1.558A13.484 13.484 0 0 1 47.41 5.3l-.667 2.104h-.99l-1.416-4.835h1.112l.546 2.306c.141.546.242 1.072.323 1.558.081-.405.203-.93.405-1.538l.687-2.306h.87l.667 2.266c.161.546.283 1.092.384 1.598h.02c.08-.506.182-1.032.323-1.598l.587-2.266h1.051v-.02zM56.89 7.424h-1.07V4.653c0-.85-.324-1.275-.971-1.275-.323 0-.586.122-.768.344a1.302 1.302 0 0 0-.303.83v2.872h-1.072V3.965c0-.425 0-.89-.04-1.376h.95l.04.749h.02c.122-.243.304-.425.566-.587.284-.182.607-.263.97-.263.446 0 .83.142 1.133.445.364.364.566.89.566 1.598v2.893h-.02zM59.843 7.424H58.77V.344h1.072v7.08zM66.19 4.956c0 .749-.222 1.356-.646 1.841-.445.486-1.031.728-1.78.728-.747 0-1.273-.242-1.698-.708-.424-.465-.626-1.072-.626-1.78s.222-1.355.647-1.84c.424-.486 1.01-.709 1.759-.709.748 0 1.273.243 1.718.708.404.466.627 1.052.627 1.78v-.02zm-1.111.04c0-.444-.101-.829-.283-1.152-.223-.385-.546-.587-.97-.587-.425 0-.769.202-.991.587-.203.323-.283.708-.283 1.173 0 .465.1.83.283 1.153.222.384.566.587.97.587.405 0 .728-.203.97-.587.203-.324.304-.708.304-1.153v-.02zM71.386 7.424h-.97l-.08-.566h-.021c-.323.445-.809.667-1.415.667-.465 0-.83-.141-1.112-.445a1.409 1.409 0 0 1-.384-.99c0-.588.242-1.053.748-1.356.505-.304 1.193-.466 2.082-.466v-.08c0-.648-.343-.951-1.01-.951-.486 0-.89.121-1.254.364l-.222-.708c.444-.283 1.01-.425 1.657-.425 1.274 0 1.9.668 1.9 2.003v1.78c0 .485.02.87.081 1.153v.02zm-1.111-1.659v-.748c-1.193 0-1.78.303-1.78.97 0 .244.061.446.203.567a.791.791 0 0 0 .525.182c.243 0 .465-.08.668-.222a.874.874 0 0 0 .363-.567v-.182h.02zM77.512 7.424h-.95l-.06-.768h-.02c-.304.586-.83.89-1.557.89a1.8 1.8 0 0 1-1.456-.688c-.384-.465-.586-1.052-.586-1.78 0-.79.202-1.416.626-1.902.405-.445.91-.688 1.496-.688.647 0 1.112.223 1.355.668h.02V.344h1.072v5.765c0 .466 0 .91.04 1.315h.02zM76.4 5.381v-.81c0-.14 0-.242-.04-.343a1.122 1.122 0 0 0-.384-.647 1.041 1.041 0 0 0-.728-.263c-.404 0-.708.162-.95.485-.223.324-.344.728-.344 1.234s.101.87.324 1.173c.242.324.545.486.95.486.344 0 .627-.142.849-.405.202-.242.303-.546.303-.89l.02-.02zM86.711 4.956c0 .749-.202 1.356-.647 1.841-.445.486-1.03.728-1.779.728-.748 0-1.274-.242-1.698-.708-.425-.465-.627-1.072-.627-1.78s.223-1.355.647-1.84c.445-.486 1.01-.709 1.759-.709.748 0 1.274.243 1.718.708.405.466.627 1.052.627 1.78v-.02zm-1.112.04c0-.444-.1-.829-.283-1.152-.222-.385-.546-.587-.97-.587-.425 0-.769.202-.99.587-.183.323-.284.708-.284 1.173 0 .465.101.83.283 1.153.243.384.566.587.97.587.405 0 .728-.203.97-.587.203-.324.304-.708.304-1.153v-.02zM92.493 7.424h-1.071V4.653c0-.85-.324-1.275-.97-1.275-.324 0-.587.122-.769.344a1.235 1.235 0 0 0-.303.83v2.872h-1.072V3.965c0-.425 0-.89-.04-1.376h.95l.04.749h.02c.122-.243.324-.425.567-.587.283-.182.627-.263.97-.263.445 0 .83.142 1.132.445.364.364.566.89.566 1.598v2.893h-.02zM99.73 3.378h-1.192v2.347c0 .607.202.89.627.89.182 0 .343 0 .485-.04v.809c-.182.08-.465.121-.809.121-.424 0-.748-.121-.99-.384-.243-.263-.364-.688-.364-1.295V3.378h-.708V2.57h.708v-.89l1.051-.324V2.57h1.193v.81zM105.432 7.424h-1.071v-2.75c0-.87-.324-1.296-.971-1.296-.505 0-.849.243-1.031.749-.04.101-.061.243-.061.384v2.913h-1.071V.344h1.071v2.933c.344-.526.829-.789 1.456-.789.445 0 .809.142 1.112.445.364.364.546.91.546 1.619v2.872h.02zM111.315 4.754c0 .182 0 .364-.04.485h-3.235c0 .486.162.85.465 1.093.263.222.627.344 1.051.344.486 0 .91-.081 1.314-.223l.162.749c-.465.202-.99.303-1.617.303-.748 0-1.334-.222-1.759-.667-.425-.446-.647-1.032-.647-1.78 0-.75.202-1.336.607-1.821.424-.526.97-.769 1.698-.769s1.233.263 1.577.769c.283.404.424.93.424 1.517zm-1.031-.283c0-.324-.06-.587-.202-.83-.182-.303-.465-.445-.849-.445a.978.978 0 0 0-.849.445 1.673 1.673 0 0 0-.324.83h2.244-.02z"/>
    </g>
    <defs>
        <clipPath id="9fhl5zunza">
            <path fill="#fff" d="M0 0h112.286v30H0z"/>
        </clipPath>
    </defs>
</svg>
