<svg width="15" height="14" viewBox="0 0 15 14" fill="none" xmlns="http://www.w3.org/2000/svg">
<path d="M7.72921 13.9967C3.86876 13.9967 0.727539 10.8562 0.727539 6.99666C0.727539 3.13712 3.86876 0 7.72921 0C11.5897 0 14.7275 3.14047 14.7275 7C14.7275 10.8595 11.5863 14 7.72921 14V13.9967ZM7.72921 1.30435C4.58799 1.30435 2.0322 3.85953 2.0322 6.99666C2.0322 10.1338 4.58799 12.689 7.72921 12.689C10.8704 12.689 13.4229 10.1338 13.4229 6.99666C13.4229 3.85953 10.8671 1.30435 7.72921 1.30435Z" fill="#E9090A"/>
<path d="M7.7285 7.65008C7.36721 7.65008 7.07617 7.35911 7.07617 6.9979V3.02131C7.07617 2.66011 7.36721 2.36914 7.7285 2.36914C8.08979 2.36914 8.38083 2.66011 8.38083 3.02131V6.9979C8.38083 7.35911 8.08979 7.65008 7.7285 7.65008Z" fill="#E9090A"/>
<path d="M11.0236 7.65396H7.7285C7.36721 7.65396 7.07617 7.36299 7.07617 7.00178C7.07617 6.64058 7.36721 6.34961 7.7285 6.34961H11.0236C11.3849 6.34961 11.6759 6.64058 11.6759 7.00178C11.6759 7.36299 11.3849 7.65396 11.0236 7.65396Z" fill="#E9090A"/>
</svg>
