<svg width="9" height="13" viewBox="0 0 9 13" fill="none" xmlns="http://www.w3.org/2000/svg">
<g clip-path="url(#clip0_245_106)">
<path d="M8.12041 12.6H0.883203C0.395545 12.6 0 12.2026 0 11.7127V0.887298C0 0.401008 0.393739 0.00181452 0.879591 0H8.1186C8.60626 0 9.00181 0.397379 9.00181 0.887298V11.7145C9.00181 12.2008 8.60807 12.6 8.12222 12.6018L8.12041 12.6ZM0.881397 0.809274C0.839856 0.809274 0.805539 0.84375 0.805539 0.887298V11.7145C0.805539 11.7581 0.839855 11.7925 0.883203 11.7925H8.1186C8.16014 11.7925 8.19446 11.7581 8.19446 11.7145V0.887298C8.19446 0.84375 8.16014 0.809274 8.1168 0.809274H0.881397Z" fill="black"/>
<path d="M8.59729 1.729H0.402832V2.53828H8.59729V1.729Z" fill="black"/>
<path d="M8.59723 10.3664H0.402769C0.180614 10.3664 0 10.185 0 9.96177C0 9.73858 0.180614 9.55713 0.402769 9.55713H8.59723C8.81939 9.55713 9 9.73858 9 9.96177C9 10.185 8.81939 10.3664 8.59723 10.3664Z" fill="black"/>
<path d="M4.96527 11.0542C4.96527 11.3154 4.75395 11.5277 4.49386 11.5277C4.23378 11.5277 4.02246 11.3154 4.02246 11.0542C4.02246 10.7929 4.23378 10.5806 4.49386 10.5806C4.75395 10.5806 4.96527 10.7929 4.96527 11.0542Z" fill="black"/>
</g>
<defs>
<clipPath id="clip0_245_106">
<rect width="9" height="12.6" fill="white"/>
</clipPath>
</defs>
</svg>
