<svg width="25" height="24" viewBox="0 0 25 24" fill="none" xmlns="http://www.w3.org/2000/svg">
    <g clip-path="url(#ykmpm9rtca)">
        <path d="M12.5 0C5.596 0 0 4.623 0 10.326c0 3.712 2.371 6.966 5.93 8.786a664.37 664.37 0 0 0-1.084 4.268c-.171.71.249.7.523.51.214-.15 3.426-2.43 4.811-3.415.768.119 1.544.178 2.32.178 6.904 0 12.5-4.624 12.5-10.326C25 4.624 19.404 0 12.5 0z" fill="#202020"/>
        <path d="M7.47 7.285H3.815a.609.609 0 0 0-.44.19.665.665 0 0 0-.182.46c0 .172.065.338.182.46.117.121.275.19.44.19h1.188v4.575a.65.65 0 0 0 .178.448.595.595 0 0 0 .428.186h.133c.16 0 .314-.067.428-.186a.65.65 0 0 0 .178-.447V8.585H7.47a.609.609 0 0 0 .44-.19.665.665 0 0 0 .182-.46.665.665 0 0 0-.182-.46.609.609 0 0 0-.44-.19zM16.255 12.572h-1.7V7.898a.721.721 0 0 0-.198-.498.66.66 0 0 0-.477-.206.66.66 0 0 0-.476.206.721.721 0 0 0-.198.498v5.04c0 .038.004.075.01.113a.622.622 0 0 0 .033.338.592.592 0 0 0 .305.32c.069.03.142.045.216.045h2.485c.15 0 .293-.063.399-.173a.604.604 0 0 0 .165-.417.604.604 0 0 0-.165-.417.552.552 0 0 0-.4-.173M21.686 12.786l-1.894-2.6 1.711-1.789a.623.623 0 0 0 .174-.438.645.645 0 0 0-.174-.44.592.592 0 0 0-.42-.18.571.571 0 0 0-.42.181l-2.118 2.214V7.898a.721.721 0 0 0-.198-.498.66.66 0 0 0-.477-.207.66.66 0 0 0-.477.207.721.721 0 0 0-.197.498v5.192c0 .187.07.367.197.499a.66.66 0 0 0 .477.206.66.66 0 0 0 .477-.206.721.721 0 0 0 .198-.499v-1.602l.384-.401 1.792 2.457a.613.613 0 0 0 .398.245.58.58 0 0 0 .448-.12.622.622 0 0 0 .234-.416.658.658 0 0 0-.115-.467M12.701 12.955 10.88 7.748l-.006-.006a.925.925 0 0 0-.347-.41.866.866 0 0 0-.507-.139.842.842 0 0 0-.553.166.909.909 0 0 0-.332.49.881.881 0 0 0-.035.085l-1.793 5.021a.657.657 0 0 0 .16.691.6.6 0 0 0 .442.163.584.584 0 0 0 .42-.217.64.64 0 0 0 .118-.218l.31-.925h2.493l.31.925a.639.639 0 0 0 .307.37.584.584 0 0 0 .673-.098.631.631 0 0 0 .199-.444.657.657 0 0 0-.04-.247M9.153 11.27l.838-2.497c.01 0 .018.003.027.003l.837 2.497-1.702-.003z" fill="#fff"/>
    </g>
    <defs>
        <clipPath id="ykmpm9rtca">
            <path fill="#fff" d="M0 0h25v24H0z"/>
        </clipPath>
    </defs>
</svg>
