<svg width="24" height="24" viewBox="0 0 24 24" fill="none" xmlns="http://www.w3.org/2000/svg">
<g clip-path="url(#clip0_302_343)">
<path d="M20.2786 9.76904H12.6597V10.8413H20.2786V9.76904Z" fill="#A0A0A0"/>
<path d="M20.2769 12.2368H14.4741V13.3091H20.2769V12.2368Z" fill="#A0A0A0"/>
<path d="M20.2786 14.7031H16.1528V15.7754H20.2786V14.7031Z" fill="#A0A0A0"/>
<path d="M21.203 20H20.1325C19.7484 20 19.4373 19.6968 19.4373 19.3224C19.4373 18.9481 19.7484 18.6449 20.1325 18.6449H21.203C21.4272 18.6449 21.6097 18.467 21.6097 18.2485V4.75149C21.6097 4.53298 21.4272 4.35512 21.203 4.35512H2.79698C2.57279 4.35512 2.39032 4.53298 2.39032 4.75149V18.2485C2.39032 18.467 2.57279 18.6449 2.79698 18.6449H16.3387C16.7227 18.6449 17.0338 18.9481 17.0338 19.3224C17.0338 19.6968 16.7227 20 16.3387 20H2.79698C1.80638 20 1 19.214 1 18.2485V4.75149C1 3.78597 1.80638 3 2.79698 3H21.203C22.1936 3 23 3.78597 23 4.75149V18.2485C23 19.214 22.1936 20 21.203 20Z" fill="#A0A0A0"/>
<path d="M22.3048 7.1686H1.69516C1.31108 7.1686 1 6.86539 1 6.49104C1 6.11669 1.31108 5.81348 1.69516 5.81348H22.3048C22.6889 5.81348 23 6.11669 23 6.49104C23 6.86539 22.6889 7.1686 22.3048 7.1686Z" fill="#A0A0A0"/>
<path d="M10.4003 17.0915H4.2308C3.84673 17.0915 3.53564 16.7883 3.53564 16.414V9.1302C3.53564 8.75585 3.84673 8.45264 4.2308 8.45264H10.4003C10.7844 8.45264 11.0955 8.75585 11.0955 9.1302V16.414C11.0955 16.7883 10.7844 17.0915 10.4003 17.0915ZM4.92596 15.7364H9.70517V9.80776H4.92596V15.7364Z" fill="#A0A0A0"/>
</g>
<defs>
<clipPath id="clip0_302_343">
<rect width="22" height="17" fill="white" transform="translate(1 3)"/>
</clipPath>
</defs>
</svg>
