<svg width="11" height="12" viewBox="0 0 11 12" fill="none" xmlns="http://www.w3.org/2000/svg">
<path d="M10.202 4.34019L5.28979 0.0581616C5.24792 0.020718 5.19373 0 5.13756 0C5.0814 0 5.02721 0.020718 4.98534 0.0581616L0.0761262 4.33945C0.0517558 4.36156 0.0323758 4.38859 0.0192537 4.41877C0.00613167 4.44895 -0.000425591 4.48158 2.14094e-05 4.51449V11.4932C2.14094e-05 11.5537 0.0240721 11.6118 0.0668933 11.6546C0.109714 11.6975 0.167801 11.7215 0.228359 11.7215H3.80561C3.86617 11.7215 3.92424 11.6975 3.96706 11.6546C4.00988 11.6118 4.03395 11.5537 4.03395 11.4932V8.0986C4.03395 7.80661 4.14993 7.52658 4.3564 7.32011C4.56287 7.11364 4.8429 6.99764 5.13489 6.99764C5.42689 6.99764 5.70693 7.11364 5.9134 7.32011C6.11987 7.52658 6.23585 7.80661 6.23585 8.0986V11.4932C6.23585 11.5537 6.25991 11.6118 6.30274 11.6546C6.34556 11.6975 6.40363 11.7215 6.46419 11.7215H10.0414C10.0714 11.7215 10.1011 11.7156 10.1288 11.7041C10.1565 11.6927 10.1817 11.6758 10.2029 11.6546C10.2241 11.6334 10.2409 11.6083 10.2524 11.5806C10.2639 11.5529 10.2698 11.5232 10.2698 11.4932V4.51449C10.2712 4.48233 10.2659 4.45024 10.2542 4.42023C10.2426 4.39023 10.2248 4.36296 10.202 4.34019Z" fill="black"/>
</svg>
