<svg width="24" height="24" viewBox="0 0 24 24" fill="none" xmlns="http://www.w3.org/2000/svg">
<path d="M17.2595 20.1434C17.1817 20.1434 17.1039 20.1257 17.0296 20.0869L12.0008 17.4451L6.97194 20.0869C6.80573 20.1751 6.60415 20.161 6.45562 20.048C6.30355 19.9385 6.22929 19.7513 6.26111 19.5677L7.22303 13.9733L3.14904 10.0177C3.01465 9.88701 2.96514 9.69276 3.02526 9.51264C3.08185 9.33605 3.23745 9.20537 3.42134 9.17712L9.0443 8.3648L11.5587 3.27548C11.6401 3.10949 11.8133 3 12.0008 3C12.1882 3 12.358 3.10595 12.4428 3.27548L14.9572 8.3648L20.5802 9.17712C20.7641 9.20537 20.9197 9.33252 20.9763 9.51264C21.0329 9.68923 20.9869 9.88701 20.8525 10.0177L16.7821 13.9768L17.744 19.5712C17.7758 19.7549 17.7015 19.942 17.5495 20.0515C17.4646 20.1151 17.362 20.1469 17.2595 20.1469V20.1434ZM12.0008 16.3961C12.0786 16.3961 12.1599 16.4138 12.2306 16.4526L16.6052 18.7518L15.7671 13.885C15.7388 13.7261 15.7918 13.5636 15.9085 13.4506L19.4521 10.0071L14.5576 9.30073C14.3985 9.27601 14.2606 9.17712 14.1863 9.03232L12.0008 4.60344L9.81525 9.03232C9.74452 9.17712 9.6066 9.27954 9.44392 9.30073L4.54947 10.0071L8.09299 13.4506C8.2097 13.5636 8.26274 13.7261 8.23445 13.885L7.39631 18.7518L11.7709 16.4526C11.8416 16.4138 11.923 16.3961 12.0008 16.3961Z" fill="#202020"/>
</svg>
