<svg width="24" height="24" viewBox="0 0 24 24" fill="none" xmlns="http://www.w3.org/2000/svg">
<path fill-rule="evenodd" clip-rule="evenodd" d="M4.81013 18.5754L7.50315 17.483L7.6849 17.6229C8.18514 18.0077 8.69279 18.3257 9.27855 18.5581L9.49498 18.644L9.89615 21.5173C9.90523 21.5622 9.94697 21.5999 10.001 21.5999H14.001C14.0551 21.5999 14.0968 21.5622 14.1059 21.5173L14.5071 18.644L14.7235 18.5581C15.3096 18.3255 15.8182 18.007 16.321 17.6299L16.5011 17.4948L19.2025 18.5797C19.2158 18.5852 19.2368 18.5872 19.2606 18.5789C19.2834 18.5708 19.3001 18.5562 19.3099 18.5384L19.3146 18.5297L21.3166 15.0664C21.3407 15.0257 21.3323 14.9755 21.2942 14.9447L21.2932 14.9439L19.017 13.1856L19.1 11.9999L19.017 10.8142L21.2932 9.05595L21.2942 9.05514C21.3323 9.02429 21.3407 8.97411 21.3166 8.93339L21.3147 8.93009L19.3097 5.4615C19.3 5.44369 19.2834 5.42897 19.2606 5.42093C19.2369 5.41256 19.2158 5.41465 19.2025 5.42012L19.2001 5.42109L16.5011 6.505L16.321 6.3699C15.8182 5.99281 15.3096 5.6743 14.7235 5.4417L14.5071 5.35582L14.1059 2.48251C14.0968 2.43759 14.0551 2.3999 14.001 2.3999H10.001C9.94697 2.3999 9.90523 2.43758 9.89615 2.48251L9.49498 5.35582L9.27855 5.4417C8.69239 5.6743 8.1838 5.99281 7.68102 6.3699L7.50089 6.505L4.80195 5.42109L4.79956 5.42012C4.7862 5.41465 4.76518 5.41256 4.74142 5.42093C4.7186 5.42897 4.70189 5.44363 4.69217 5.46144L4.68743 5.47014L2.68732 8.93008L2.68539 8.93339C2.66133 8.9741 2.66974 9.02427 2.70783 9.05512L4.98499 10.8142L4.90202 11.9995L4.98527 13.153L2.70887 14.9439C2.66997 14.9746 2.66113 15.0254 2.68539 15.0664L2.68734 15.0697L4.69228 18.5383C4.69997 18.5524 4.71351 18.5656 4.73759 18.5738C4.76218 18.5822 4.78892 18.582 4.81013 18.5754ZM10.9037 3.5999H13.0985L13.4785 6.29073C14.5544 6.56215 15.5123 7.13485 16.2545 7.9096L18.7295 6.84153L19.8365 8.76024L17.6683 10.3529C17.9785 11.432 17.9786 12.5771 17.6685 13.6562L19.8469 15.2489L18.7401 17.1673L16.2438 16.099C15.5039 16.8651 14.5553 17.4375 13.4887 17.7164L13.1083 20.3999H10.8935L10.5135 17.7085C9.44608 17.4367 8.49754 16.8645 7.75826 16.099L5.26198 17.1673L4.15571 15.2498L6.33328 13.6475C6.02331 12.5754 6.02374 11.4312 6.33371 10.3529L4.16557 8.76024L5.27251 6.84153L7.74754 7.90959C8.49024 7.13423 9.44835 6.56134 10.5234 6.28279L10.9037 3.5999ZM14.5466 9.45432C13.8715 8.77919 12.9558 8.3999 12.001 8.3999C11.0462 8.3999 10.1306 8.77919 9.45543 9.45432C8.7803 10.1294 8.40102 11.0451 8.40102 11.9999C8.40102 12.9547 8.7803 13.8704 9.45543 14.5455C10.1306 15.2206 11.0462 15.5999 12.001 15.5999C12.9558 15.5999 13.8715 15.2206 14.5466 14.5455C15.2217 13.8704 15.601 12.9547 15.601 11.9999C15.601 11.0451 15.2217 10.1294 14.5466 9.45432ZM10.304 10.3028C10.754 9.85276 11.3645 9.5999 12.001 9.5999C12.6375 9.5999 13.248 9.85276 13.6981 10.3028C14.1482 10.7529 14.401 11.3634 14.401 11.9999C14.401 12.6364 14.1482 13.2469 13.6981 13.697C13.248 14.147 12.6375 14.3999 12.001 14.3999C11.3645 14.3999 10.754 14.147 10.304 13.697C9.85387 13.2469 9.60102 12.6364 9.60102 11.9999C9.60102 11.3634 9.85387 10.7529 10.304 10.3028Z" fill="#202020"/>
</svg>
