<svg width="131" height="30" viewBox="0 0 131 30" fill="none" xmlns="http://www.w3.org/2000/svg">
    <g clip-path="url(#1pmo3l3l4a)">
        <path d="M42.166 3.31v-.087h-3.499v1.016h2.414c-.066.498-.221.866-.51 1.147-.486.476-1.084.713-1.815.713-.687 0-1.263-.237-1.772-.692-.487-.475-.753-1.06-.753-1.817 0-.757.244-1.362.753-1.816.51-.476 1.085-.693 1.772-.693.753 0 1.328.238 1.771.736l.089.086.687-.67.066-.065-.066-.087c-.266-.324-.643-.584-1.108-.757C39.775.087 39.287 0 38.8 0c-.996 0-1.86.346-2.569 1.017-.709.67-1.063 1.535-1.063 2.53 0 .995.354 1.86 1.063 2.53A3.625 3.625 0 0 0 38.8 7.095c1.04 0 1.905-.346 2.569-1.016.576-.563.864-1.341.864-2.271 0-.173 0-.346-.045-.52l-.022.022zM43.251 6.965h4.164V5.926h-3.078v-1.86h2.768V3.05h-2.768V1.168h3.078V.15H43.25v6.814zM48.08 1.168h1.904v5.797h1.085V1.168h1.882V.151H48.08v1.017zM56.074 6.965h1.107V.15h-1.107v6.814zM58.045 1.168h1.882v5.797h1.086V1.168h1.882V.151h-4.85v1.017zM69.096 0c-1.019 0-1.883.346-2.547 1.038-.686.692-1.019 1.536-1.019 2.53 0 .996.333 1.84 1.02 2.531.686.693 1.55 1.039 2.546 1.039 1.019 0 1.882-.346 2.547-1.039l-.089-.086.089.086c.686-.692 1.019-1.535 1.019-2.53 0-.973-.355-1.839-1.02-2.51C70.957.347 70.093 0 69.097 0zm0 6.078a2.404 2.404 0 0 1-1.75-.714c-.487-.476-.708-1.081-.708-1.817 0-.735.243-1.34.708-1.817a2.404 2.404 0 0 1 1.75-.713c.686 0 1.284.238 1.75.713.465.476.708 1.082.708 1.817 0 .736-.243 1.341-.709 1.817a2.404 2.404 0 0 1-1.75.714zM77.999.151V4.11l.022.93L74.898.15h-1.24v6.814h1.107V2.747l-.044-.93 3.3 5.148h1.063V.15h-1.085zM65.42 16.46c-2.636 0-4.806 1.968-4.806 4.672 0 2.704 2.148 4.672 4.806 4.672 2.657 0 4.805-1.99 4.805-4.672 0-2.682-2.148-4.672-4.805-4.672zm0 7.505c-1.44 0-2.702-1.168-2.702-2.833 0-1.665 1.262-2.833 2.702-2.833s2.701 1.146 2.701 2.833c0 1.687-1.24 2.833-2.701 2.833zM54.945 16.46c-2.658 0-4.806 1.968-4.806 4.672 0 2.704 2.148 4.672 4.806 4.672 2.657 0 4.805-1.99 4.805-4.672 0-2.682-2.148-4.672-4.805-4.672zm0 7.505c-1.44 0-2.702-1.168-2.702-2.833 0-1.665 1.262-2.833 2.702-2.833s2.701 1.146 2.701 2.833c0 1.687-1.24 2.833-2.701 2.833zm-12.469-6.077v1.99h4.85c-.155 1.124-.531 1.925-1.107 2.487-.709.692-1.816 1.45-3.743 1.45-2.99 0-5.337-2.359-5.337-5.279s2.348-5.277 5.337-5.277c1.617 0 2.79.627 3.654 1.406l1.44-1.406c-1.218-1.125-2.835-1.99-5.094-1.99-4.097 0-7.53 3.266-7.53 7.246 0 3.98 3.433 7.246 7.53 7.246 2.215 0 3.876-.714 5.182-2.033 1.351-1.32 1.75-3.158 1.75-4.63 0-.453-.044-.886-.11-1.232h-6.822v.022zm50.959 1.535c-.4-1.038-1.617-2.963-4.097-2.963-2.48 0-4.518 1.903-4.518 4.672 0 2.617 2.037 4.672 4.739 4.672 2.192 0 3.455-1.32 3.986-2.076l-1.639-1.06c-.531.778-1.284 1.297-2.347 1.297s-1.838-.475-2.325-1.405l6.4-2.574-.222-.541.022-.022zM86.9 20.981c-.066-1.796 1.44-2.726 2.503-2.726.842 0 1.55.411 1.772.995L86.9 20.98zm-5.204 4.52h2.104V11.788h-2.104v13.735-.022zm-3.455-8.024h-.066c-.465-.541-1.373-1.038-2.525-1.038-2.392 0-4.584 2.054-4.584 4.693s2.192 4.65 4.584 4.65c1.152 0 2.038-.497 2.525-1.06h.066v.671c0 1.795-.974 2.747-2.547 2.747-1.284 0-2.081-.908-2.413-1.666l-1.839.736c.532 1.233 1.927 2.768 4.23 2.768 2.459 0 4.54-1.405 4.54-4.866V16.72H78.22v.757h.022zm-2.414 6.467c-1.44 0-2.657-1.19-2.657-2.812 0-1.622 1.218-2.855 2.657-2.855 1.44 0 2.547 1.211 2.547 2.855s-1.13 2.812-2.547 2.812zm27.417-12.177h-5.027V25.5h2.104v-5.213h2.923c2.326 0 4.607-1.643 4.607-4.26 0-2.618-2.281-4.261-4.607-4.261zm.045 6.618h-2.99V13.67h2.99a2.409 2.409 0 0 1 2.458 2.357 2.409 2.409 0 0 1-2.458 2.358zm12.977-1.968c-1.528 0-3.1.649-3.742 2.098l1.86.757c.398-.757 1.129-1.017 1.927-1.017 1.085 0 2.192.628 2.214 1.774v.151c-.376-.216-1.196-.519-2.192-.519-2.016 0-4.053 1.082-4.053 3.093 0 1.839 1.639 3.028 3.499 3.028 1.417 0 2.192-.627 2.68-1.34h.066v1.06h2.015v-5.257c0-2.444-1.86-3.806-4.274-3.806v-.022zm-.243 7.527c-.687 0-1.639-.325-1.639-1.168 0-1.06 1.196-1.47 2.214-1.47.931 0 1.351.194 1.927.453-.155 1.276-1.284 2.163-2.502 2.163v.022zm11.892-7.224-2.414 5.948h-.066l-2.503-5.948h-2.259l3.743 8.327-2.126 4.629h2.192l5.781-12.956h-2.348zM109.003 25.5h2.104V11.788h-2.104v13.735-.022z" fill="#fff"/>
        <path d="M.62.8.532.865c-.332.346-.51.865-.51 1.536v24.268c0 .67.2 1.211.51 1.536l.088.086 13.908-13.605v-.324L.62.8z" fill="#5AC9F4"/>
        <path d="M24.76 12.956 19.155 9.84l-4.65 4.543v.324l4.628 4.542.111-.065 5.492-3.05c1.573-.865 1.573-2.292 0-3.157l.022-.022z" fill="url(#3isvbz97kb)"/>
        <path d="M14.528 14.535.509 28.205s.067.043.089.065c.531.454 1.329.497 2.237 0l16.3-9.041.11-.065-4.74-4.63h.023z" fill="url(#1d163eg2sc)"/>
        <path d="M19.156 9.841 2.856.801C1.95.302 1.13.345.62.8.598.82.554.842.532.864l13.996 13.67 4.74-4.629-.112-.065z" fill="url(#nr4aw9t9md)"/>
    </g>
    <defs>
        <linearGradient id="3isvbz97kb" x1="3.743" y1="14.535" x2="69.207" y2="14.535" gradientUnits="userSpaceOnUse">
            <stop stop-color="#FEE000"/>
            <stop offset=".4" stop-color="#FBBD0D"/>
            <stop offset=".77" stop-color="#F9A417"/>
            <stop offset="1" stop-color="#F99B1B"/>
        </linearGradient>
        <linearGradient id="1d163eg2sc" x1="46.485" y1="21.586" x2="5731.93" y2="21.586" gradientUnits="userSpaceOnUse">
            <stop stop-color="#EF4547"/>
            <stop offset="1" stop-color="#C6176D"/>
        </linearGradient>
        <linearGradient id="nr4aw9t9md" x1="-5888.95" y1="7.484" x2="-1124.71" y2="7.484" gradientUnits="userSpaceOnUse">
            <stop stop-color="#269E6F"/>
            <stop offset=".05" stop-color="#2BA06E"/>
            <stop offset=".47" stop-color="#52B26A"/>
            <stop offset=".8" stop-color="#6BBC68"/>
            <stop offset="1" stop-color="#74C168"/>
        </linearGradient>
        <clipPath id="1pmo3l3l4a">
            <path fill="#fff" d="M0 0h130.286v30H0z"/>
        </clipPath>
    </defs>
</svg>
