<svg width="18" height="13" viewBox="0 0 18 13" fill="none" xmlns="http://www.w3.org/2000/svg">
<g clip-path="url(#clip0_117_1123)">
<path d="M9.00127 12.7059C8.89169 12.7059 8.7821 12.6734 8.68526 12.6134C7.22498 11.6577 4.92114 11.4576 3.24423 11.4576C1.7814 11.4576 0.657511 11.6102 0.647317 11.6127C0.484213 11.6352 0.318561 11.5877 0.196234 11.4826C0.0713578 11.3775 0 11.2224 0 11.0623V1.05073C0 0.773045 0.208976 0.537889 0.491859 0.497863C1.46029 0.367777 2.40832 0.302734 3.31559 0.302734C7.23772 0.302734 9.22299 1.51353 9.30454 1.56357C9.46765 1.66613 9.56704 1.84375 9.56704 2.03388V12.148C9.56704 12.3532 9.45236 12.5433 9.26632 12.6409C9.18222 12.6859 9.09047 12.7059 8.99873 12.7059H9.00127ZM3.24678 10.3394C4.78352 10.3394 6.81722 10.5045 8.43296 11.2099V2.3716C7.81368 2.07891 6.10109 1.41847 3.31559 1.41847C2.61475 1.41847 1.88334 1.461 1.13663 1.54355V10.4344C1.63358 10.3894 2.37774 10.3394 3.24423 10.3394H3.24678Z" fill="#AAAAAA"/>
<path d="M8.99849 12.7054C8.90674 12.7054 8.815 12.6829 8.7309 12.6403C8.54741 12.5428 8.43018 12.3551 8.43018 12.1475V2.03583C8.43018 1.8457 8.52957 1.66809 8.69267 1.56552C8.77422 1.51298 10.762 0.304688 14.6816 0.304688C15.5889 0.304688 16.5369 0.36973 17.5054 0.499816C17.7857 0.537341 17.9972 0.772496 17.9972 1.05268V11.0568C17.9972 11.2194 17.9259 11.372 17.801 11.4771C17.6761 11.5821 17.5105 11.6322 17.3499 11.6071C17.3397 11.6071 16.2158 11.452 14.753 11.452C13.0786 11.452 10.7748 11.6522 9.31195 12.6078C9.21766 12.6703 9.10807 12.7004 8.99594 12.7004L8.99849 12.7054ZM9.5668 2.37105V11.2094C11.1851 10.5014 13.2188 10.3388 14.753 10.3388C15.6195 10.3388 16.3636 10.3888 16.8606 10.4339V1.543C16.1139 1.46045 15.3825 1.41792 14.6816 1.41792C11.8987 1.41792 10.1861 2.07836 9.56425 2.37105H9.5668Z" fill="#AAAAAA"/>
<path d="M3.87886 5.33602C3.5654 5.33602 3.31055 5.08586 3.31055 4.77815V0.557868C3.31055 0.250165 3.5654 0 3.87886 0C4.19233 0 4.44717 0.250165 4.44717 0.557868V4.77815C4.44717 5.08586 4.19233 5.33602 3.87886 5.33602Z" fill="#1686F2"/>
</g>
<defs>
<clipPath id="clip0_117_1123">
<rect width="18" height="12.7059" fill="white"/>
</clipPath>
</defs>
</svg>
