<svg width="24" height="23" viewBox="0 0 24 23" fill="none" xmlns="http://www.w3.org/2000/svg">
<g clip-path="url(#clip0_622_7703)">
<path d="M11.2644 12.1629H4.34644C3.92078 12.1629 3.57471 11.8108 3.57471 11.3778C3.57471 10.9448 3.92078 10.5928 4.34644 10.5928H11.2679C11.6935 10.5928 12.0396 10.9448 12.0396 11.3778C12.0396 11.8108 11.6935 12.1629 11.2679 12.1629H11.2644Z" fill="#AAAAAA"/>
<path d="M9.31256 16.2078H4.34644C3.92078 16.2078 3.57471 15.8558 3.57471 15.4227C3.57471 14.9897 3.92078 14.6377 4.34644 14.6377H9.31256C9.73823 14.6377 10.0843 14.9897 10.0843 15.4227C10.0843 15.8558 9.73823 16.2078 9.31256 16.2078Z" fill="#AAAAAA"/>
<path d="M20.3316 2.58046H18.1826V0.785051C18.1826 0.352041 17.8365 0 17.4108 0C16.9851 0 16.6391 0.352041 16.6391 0.785051V2.58046H5.12877V0.785051C5.12877 0.352041 4.7827 0 4.35703 0C3.93136 0 3.58529 0.352041 3.58529 0.785051V2.58046H1.43619C0.643691 2.58046 0 3.23525 0 4.04143V18.718C0 19.5242 0.643691 20.179 1.43619 20.179H20.3316C21.1242 20.179 21.7678 19.5242 21.7678 18.718V4.04143C21.7678 3.23525 21.1242 2.58046 20.3316 2.58046ZM20.2244 18.6089H1.54348V4.15056H3.58529V5.0025C3.58529 5.43551 3.93136 5.78755 4.35703 5.78755C4.7827 5.78755 5.12877 5.43551 5.12877 5.0025V4.15056H16.6391V5.0025C16.6391 5.43551 16.9851 5.78755 17.4108 5.78755C17.8365 5.78755 18.1826 5.43551 18.1826 5.0025V4.15056H20.2244V18.6089Z" fill="#AAAAAA"/>
<path d="M13.7665 6.55176H4.34644C3.92078 6.55176 3.57471 6.9038 3.57471 7.33681C3.57471 7.76982 3.92078 8.12186 4.34644 8.12186H13.7665C14.1922 8.12186 14.5382 7.76982 14.5382 7.33681C14.5382 6.9038 14.1922 6.55176 13.7665 6.55176Z" fill="#AAAAAA"/>
<path d="M19.8125 22.0831C22.1271 22.0831 24.0034 20.1744 24.0034 17.8199C24.0034 15.4653 22.1271 13.5566 19.8125 13.5566C17.4979 13.5566 15.6216 15.4653 15.6216 17.8199C15.6216 20.1744 17.4979 22.0831 19.8125 22.0831Z" fill="#1686F2"/>
<path d="M19.0442 19.8903C19.0165 19.8903 18.9854 19.8903 18.9577 19.8867C18.7431 19.8621 18.5528 19.7494 18.4248 19.5734L17.4142 18.1793C17.1616 17.8308 17.2343 17.338 17.5769 17.081C17.9195 16.824 18.404 16.8979 18.6566 17.2464L19.1757 17.9611L21.093 16.2854C21.4148 16.0037 21.9028 16.0389 22.1796 16.3698C22.4565 16.6972 22.4219 17.1936 22.0966 17.4753L19.5495 19.7037C19.4076 19.8269 19.2311 19.8938 19.0477 19.8938L19.0442 19.8903Z" fill="white"/>
</g>
<defs>
<clipPath id="clip0_622_7703">
<rect width="24" height="22.08" fill="white"/>
</clipPath>
</defs>
</svg>
