<svg width="17" height="20" viewBox="0 0 17 20" fill="none" xmlns="http://www.w3.org/2000/svg">
<g clip-path="url(#clip0_302_403)">
<path d="M1.54693 20.0002C0.695793 20.0002 0 19.2967 0 18.4288V2.75164C0 1.89365 0.689321 1.18688 1.53722 1.18359H4.83172C5.22977 1.18359 5.5534 1.51232 5.5534 1.91666C5.5534 2.321 5.22977 2.64973 4.83172 2.64973H1.54045C1.48867 2.64973 1.44013 2.69576 1.44013 2.75493V18.4288C1.44013 18.4847 1.48544 18.534 1.54369 18.534H15.4563C15.5081 18.534 15.5566 18.488 15.5566 18.4288V2.75493C15.5566 2.69576 15.5113 2.64973 15.4531 2.64973H12.5987C12.2006 2.64973 11.877 2.321 11.877 1.91666C11.877 1.51232 12.2006 1.18359 12.5987 1.18359H15.4531C16.3042 1.18359 17 1.88708 17 2.75493V18.4321C17 19.2934 16.3107 19.9969 15.4628 20.0002H1.54693Z" fill="#1686F2"/>
<path d="M12.1974 4.12229H5.23301C4.61489 4.12229 4.11003 3.60947 4.11003 2.98159V1.1407C4.11003 0.512821 4.61489 0 5.23301 0H12.1942C12.8123 0 13.3172 0.512821 13.3172 1.1407V2.98159C13.3172 3.60947 12.8123 4.12229 12.1942 4.12229H12.1974ZM5.5534 2.65615H11.877V1.46285H5.5534V2.65615Z" fill="#1686F2"/>
<path d="M7.6033 13.6562V12.7432H5.23013V11.4539H7.41653V10.5435H5.23013V9.25684H7.59334V8.34375H4.17178V13.6562H7.6033Z" fill="#1686F2"/>
<path d="M11.6184 8.34375V11.7159H11.5736L9.34984 8.34375H8.4185V13.6562H9.47684V10.2815H9.51419L11.7554 13.6562H12.6718V8.34375H11.6184Z" fill="#1686F2"/>
</g>
<defs>
<clipPath id="clip0_302_403">
<rect width="17" height="20" fill="white"/>
</clipPath>
</defs>
</svg>
