<svg width="24" height="24" viewBox="0 0 24 24" fill="none" xmlns="http://www.w3.org/2000/svg">
<path d="M5.14657 4.64588C7.34107 2.45137 10.9137 2.45137 13.111 4.64588C14.1737 5.70854 14.7603 7.12265 14.7603 8.62809C14.7603 10.0035 14.2705 11.3013 13.3739 12.328L14.229 13.1831L14.2982 13.114C14.8766 12.5356 15.8175 12.5356 16.3986 13.114L20.5662 17.2843C21.1446 17.8627 21.1446 18.8036 20.5662 19.3848L19.5561 20.3948C19.2656 20.6854 18.8864 20.8293 18.5073 20.8293C18.1282 20.8293 17.7463 20.6854 17.4585 20.3948L13.2881 16.2245C12.7097 15.6461 12.7097 14.7052 13.2881 14.124L13.3573 14.0549L12.469 13.1665C11.481 13.8943 10.3077 14.2596 9.13155 14.2596C7.68976 14.2596 6.24797 13.7117 5.14934 12.6131C4.08668 11.5504 3.5 10.1363 3.5 8.63086C3.5 7.12542 4.08668 5.71407 5.14934 4.64865L5.14657 4.64588ZM14.1598 15.3472L18.3302 19.5176C18.4271 19.6144 18.5876 19.6144 18.6844 19.5176L19.6945 18.5103C19.7914 18.4134 19.7914 18.2529 19.6945 18.1561L15.5241 13.9857C15.4273 13.8888 15.2668 13.8888 15.1699 13.9857L14.1598 14.9957C14.063 15.0926 14.063 15.2531 14.1598 15.35V15.3472ZM6.02105 11.7358C7.73404 13.4488 10.5263 13.4488 12.2393 11.7358C13.0695 10.9056 13.5261 9.80144 13.5261 8.62532C13.5261 7.4492 13.0695 6.3478 12.2393 5.51482C11.3814 4.65695 10.2551 4.22801 9.12878 4.22801C8.00247 4.22801 6.87616 4.65695 6.01828 5.51482C5.18808 6.34503 4.73147 7.4492 4.73147 8.62532C4.73147 9.80144 5.18808 10.9028 6.01828 11.7358H6.02105Z" fill="#202020"/>
</svg>
