<svg width="24" height="24" viewBox="0 0 24 24" fill="none" xmlns="http://www.w3.org/2000/svg">
<path fill-rule="evenodd" clip-rule="evenodd" d="M12.0046 3.44678L4.20004 10.0728V20.8H8.87021V15.8184C8.87021 14.9914 9.20795 14.2049 9.7983 13.6302C10.3875 13.0566 11.18 12.7398 11.9998 12.7398C12.8196 12.7398 13.6121 13.0566 14.2013 13.6302C14.7917 14.2049 15.1294 14.9914 15.1294 15.8184V20.8H19.7996V10.0618L12.0046 3.44678ZM20.8809 9.40552C20.9208 9.44436 20.9519 9.49089 20.9724 9.54209C20.9928 9.59329 21.0021 9.64804 20.9996 9.70292V21.6104C20.9996 21.6616 20.9892 21.7122 20.9691 21.7595C20.949 21.8068 20.9196 21.8497 20.8824 21.8859C20.8452 21.9221 20.8011 21.9508 20.7526 21.9704C20.704 21.9899 20.652 22 20.5994 22H14.3296C14.2235 22 14.1217 21.959 14.0467 21.8859C13.9716 21.8128 13.9294 21.7137 13.9294 21.6104V15.8184C13.9294 15.3202 13.7262 14.8423 13.3643 14.4901C13.0024 14.1378 12.5116 13.9398 11.9998 13.9398C11.488 13.9398 10.9972 14.1378 10.6354 14.4901C10.2735 14.8423 10.0702 15.3202 10.0702 15.8184V21.6104C10.0702 21.7137 10.028 21.8128 9.95298 21.8859C9.87793 21.959 9.77614 22 9.67001 22H3.40024C3.2941 22 3.19229 21.959 3.11724 21.8859C3.04219 21.8128 3.00004 21.7137 3.00004 21.6104V9.70292C2.99925 9.64677 3.01075 9.59109 3.03375 9.53959C3.05674 9.4881 3.09071 9.44199 3.13342 9.40425L11.7377 2.09924C11.8111 2.03535 11.9061 2 12.0045 2C12.1029 2 12.1979 2.03535 12.2713 2.09924L20.8809 9.40552Z" fill="#202020"/>
</svg>
