<svg width="20" height="21" viewBox="0 0 20 21" fill="none" xmlns="http://www.w3.org/2000/svg">
<g clip-path="url(#clip0_231_605)">
<path d="M9.59436 20.9525H17.2987C18.6002 20.9525 19.6598 19.9549 19.6598 18.7299C19.6598 18.1937 19.457 17.703 19.1202 17.3196C19.5878 16.9134 19.8789 16.3318 19.8789 15.6884C19.8789 15.1295 19.6598 14.6161 19.2935 14.2261C19.7284 13.8232 19.9966 13.2643 19.9966 12.6437C19.9966 12.023 19.7284 11.4641 19.2935 11.0612C19.6532 10.6712 19.8723 10.1611 19.8723 9.60543C19.8723 8.38039 18.8128 7.38282 17.5113 7.38282H13.4596C13.5479 6.99613 13.6264 6.64195 13.7114 6.25201C13.7703 5.98231 13.8357 5.69636 13.9076 5.37791C14.1791 4.16587 14.1464 0.656479 11.6414 0.0715805C10.994 -0.0811431 10.4479 9.28403e-05 10.0129 0.30879C9.22811 0.870942 9.12673 1.96925 9.03844 2.93759C9.00247 3.31777 8.97304 3.67521 8.90436 3.93516C8.40731 5.85233 7.90698 6.97664 6.25884 8.53962C6.09534 8.67284 5.93837 8.81582 5.79449 8.96854L5.76179 8.99779C5.58193 9.16351 5.44132 9.34223 5.32686 9.54045C5.14701 9.8004 4.99331 10.0734 4.87559 10.3528L6.21633 10.9215C6.30136 10.7232 6.41254 10.525 6.54334 10.3398C6.55969 10.3171 6.57278 10.2943 6.58913 10.2683C6.62837 10.1936 6.68396 10.1253 6.74609 10.0669L6.79187 10.0279C6.79187 10.0279 6.82457 9.99862 6.83765 9.98237C6.94884 9.86539 7.0731 9.75166 7.20064 9.64768C7.21699 9.63468 7.23007 9.62168 7.24642 9.60868C9.14635 7.81174 9.77094 6.41124 10.3203 4.29585C10.4184 3.92217 10.4577 3.48674 10.4936 3.06756C10.546 2.50866 10.6212 1.66056 10.8664 1.48509C10.9384 1.4331 11.0986 1.4331 11.3079 1.48509C12.6225 1.79053 12.6552 4.30885 12.4851 5.06597C12.4132 5.38766 12.3511 5.67361 12.2889 5.94657C12.1418 6.6062 12.0175 7.17485 11.8344 7.94497C11.7821 8.15943 11.8344 8.38689 11.9717 8.56236C12.1091 8.73783 12.3216 8.83857 12.544 8.83857H17.5146C18.0116 8.83857 18.4171 9.18626 18.4171 9.61193C18.4171 10.0376 18.0116 10.3853 17.5146 10.3853H16.3962C15.994 10.3853 15.667 10.7102 15.667 11.1099V11.1522C15.667 11.5518 15.994 11.8768 16.3962 11.8768H17.6454C18.1424 11.8768 18.5447 12.2245 18.5447 12.6502C18.5447 13.0758 18.1424 13.4235 17.6454 13.4235H16.3962C15.994 13.4235 15.667 13.7485 15.667 14.1481V14.1969C15.667 14.5966 15.994 14.9215 16.3962 14.9215H17.5244C18.0214 14.9215 18.4237 15.2692 18.4237 15.6949C18.4237 16.1206 18.0182 16.4682 17.5244 16.4682H16.3962C15.994 16.4682 15.667 16.7932 15.667 17.1929V17.2384C15.667 17.638 15.994 17.963 16.3962 17.963H17.302C17.7991 17.963 18.2046 18.3107 18.2046 18.7364C18.2046 19.162 17.7991 19.5097 17.302 19.5097H9.59436C8.113 19.5097 6.75263 18.6714 6.21633 17.4203L4.87559 17.989C5.6506 19.7924 7.50476 20.959 9.59436 20.959V20.9525Z" fill="#1686F2"/>
<path d="M0.729282 20.572H5.54616C5.94838 20.572 6.27539 20.2471 6.27539 19.8474V8.77003C6.27539 8.37035 5.94838 8.04541 5.54616 8.04541H0.729282C0.327059 8.04541 4.76837e-05 8.37035 4.76837e-05 8.77003V19.8474C4.76837e-05 20.2471 0.327059 20.572 0.729282 20.572ZM4.81692 19.1227H1.45852V9.49466H4.81692V19.1195V19.1227Z" fill="#1686F2"/>
</g>
<defs>
<clipPath id="clip0_231_605">
<rect width="20" height="20.9524" fill="white" transform="matrix(-1 0 0 1 20 0)"/>
</clipPath>
</defs>
</svg>
