<svg width="22" height="21" viewBox="0 0 22 21" fill="none" xmlns="http://www.w3.org/2000/svg">
<g clip-path="url(#clip0_622_7133)">
<path d="M18.0357 0.403087C16.0677 -0.430991 13.1718 -0.163899 11.0023 2.96155C8.82807 -0.159213 5.93222 -0.426305 3.96417 0.403087C1.1105 1.61203 -0.974699 5.44505 0.473224 9.77944C2.47408 15.7679 10.2901 19.8259 10.6227 19.9946C10.6509 20.0086 10.6837 20.018 10.7165 20.0274C10.7446 20.0367 10.768 20.0508 10.7961 20.0555C10.8664 20.0742 10.9367 20.0836 11.007 20.0836C11.082 20.0836 11.1522 20.0742 11.2178 20.0555C11.2413 20.0508 11.2647 20.0367 11.2928 20.0274C11.3256 20.0133 11.3584 20.0086 11.3865 19.9899C11.7192 19.8212 19.5352 15.7539 21.5361 9.77476C22.984 5.44505 20.8941 1.60735 18.0404 0.403087H18.0357Z" fill="#1686F2"/>
</g>
<defs>
<clipPath id="clip0_622_7133">
<rect width="22" height="20.0835" fill="white"/>
</clipPath>
</defs>
</svg>
