<svg width="21" height="20" viewBox="0 0 21 20" fill="none" xmlns="http://www.w3.org/2000/svg">
    <g clip-path="url(#a10bhqjkia)">
        <path d="m20.391 18.151-4.537-4.383a8.274 8.274 0 0 0 1.767-6.394A8.248 8.248 0 0 0 16 3.502C14.334 1.322 11.783.049 9.002 0c-2.781-.022-5.37 1.142-7.105 3.252a8.26 8.26 0 0 0-1.869 4.6 8.382 8.382 0 0 0 2.567 6.732c3.153 3.045 8.18 3.323 11.665.718l4.51 4.355c.225.218.529.338.844.338h.045c.316-.011.597-.142.8-.37a1.06 1.06 0 0 0-.062-1.48l-.006.006zM4.19 4.041A6.693 6.693 0 0 1 8.85 2.18c1.69 0 3.378.62 4.662 1.86 1.244 1.201 1.93 2.8 1.93 4.502s-.686 3.3-1.93 4.502c-2.573 2.485-6.756 2.485-9.329 0-1.244-1.202-1.93-2.8-1.93-4.502-.001-1.702.686-3.301 1.93-4.503h.006z" fill="#1686F2"/>
    </g>
    <defs>
        <clipPath id="a10bhqjkia">
            <path fill="#fff" d="M0 0h20.723v20H0z"/>
        </clipPath>
    </defs>
</svg>
