<svg width="300" height="300" viewBox="0 0 300 300" fill="none" xmlns="http://www.w3.org/2000/svg">
    <g clip-path="url(#2fsbbxkkka)">
        <path d="M146.062 110.544c6.434 1.411 16.768 4.12 16.927 12.003.129 6.609-4.726 11.738-4.309 18.825.425 7.185 2.974 13.24 7.815 18.619 6.768 7.512-1.722 17.019-10.016 16.988-9.605-.038-20.66-6.714-23.521-16.184" fill="#131313"/>
        <path d="M123.125 134.573c-3.225 5.964-5.197 26.245 2.178 29.568 12.337 5.57 22.921-22.732 12.026-26.29" fill="#131313"/>
        <path d="m186.533 278.826-24.075-62.817-41.905.235-26.746 62.582h92.726z" fill="#fff" stroke="#000" stroke-width="1.5" stroke-linecap="round" stroke-linejoin="round"/>
        <path d="M123.671 163.648c-5.038 2.899-9.977 6.829-11.381 12.762-1.237 5.228 2.011 8.953 4.264 13.438 3.9 7.746 5.547 17.701 5.683 26.639h40.616c-1.495-6.859.592-17.246 2.527-23.453 2.913-9.347 3.035-20.448-5.752-26.662" fill="#131313"/>
        <path d="M116.865 207.473c2.99 3.149 6.124 6.381 9.265 9.454-2.709 1.411-5.175 5.858-6.472 8.475-1.844-.576-2.648-2.928-3.764-4.476-1.851-2.557-5.379-4.962-6.039-8.088" fill="#fff"/>
        <path d="M116.865 207.473c2.99 3.149 6.124 6.381 9.265 9.454-2.709 1.411-5.175 5.858-6.472 8.475-1.844-.576-2.648-2.928-3.764-4.476-1.851-2.557-5.379-4.962-6.039-8.088" stroke="#000" stroke-width="2" stroke-linecap="round" stroke-linejoin="round"/>
        <path d="m124.923 179.9-16.07 16.723c.88.827 10.782 13.885 11.412 13.4-3.407 2.678-5.615 6.153-7.421 9.962-5.759-3.642-11.093-8.953-16.358-13.111-4.401-3.475-6.609-7.489-5.509-13.271 2.064-10.91 13.324-17.739 19.052-26.222.979-1.449 2.223-2.625 3.635-3.657 1.866-1.358 3.824-2.648 5.918-3.642 2.117-1.009 4.317-1.1 6.517-1.874-.235.083 4.644 6.935 4.947 7.496" fill="#131313"/>
        <path d="M126.79 216.95c.797 1.168 1.396 2.329 1.54 3.012.349 1.7-1.282 2.99-2.959 2.747 0 0 1.806 4.082-.577 3.46 0 0 1.601 3.551-2.246 2.451l-2.777-1.51s2.428 3.702-1.654 1.343c0 0-3.968-2.997-1.692-4.727 0 0-.713-3.953 1.662-3.513 0 0-1.282-4.651 2.534-4.272-.189-1.556.387-2.921 2.117-2.762 1.138.106 2.83 1.942 4.059 3.763l-.007.008z" fill="#fff" stroke="#000" stroke-width="1.5" stroke-linecap="round" stroke-linejoin="round"/>
        <path d="M120.629 216.373c1.737 1.609 1.593 1.662 3.126 3.475.872 1.04.941 2.391 2.223 3.157" fill="#fff"/>
        <path d="M120.629 216.373c1.737 1.609 1.593 1.662 3.126 3.475.872 1.04.941 2.391 2.223 3.157" stroke="#000" stroke-width="1.5" stroke-linecap="round" stroke-linejoin="round"/>
        <path d="M118.011 220.584c1.821 2.299 4.014 4.173 6.427 5.843l-6.427-5.843z" fill="#fff"/>
        <path d="M118.011 220.584c1.821 2.299 4.014 4.173 6.427 5.843" stroke="#000" stroke-width="1.5" stroke-linecap="round" stroke-linejoin="round"/>
        <path d="M116.463 223.445c1.009 1.017 2.497 3.042 3.756 3.649l-3.756-3.649z" fill="#fff"/>
        <path d="M116.463 223.445c1.009 1.017 2.497 3.042 3.756 3.649" stroke="#000" stroke-width="1.5" stroke-linecap="round" stroke-linejoin="round"/>
        <path d="M155.501 160.606c-.213-1.67-1.025-3.536-1.965-4.925-1.07.205-3.422.767-4.447.41-3.551-1.252-.796-6.062.084-8.164.804-1.927 2.048-4.196 1.844-6.328-.441-4.583-4.765-8.096-9.25-8.096-5.151 0-9.325 4.181-9.325 9.333v14.021c-1.912.357-3.824 1.025-5.629 1.601-1.184.38 3.338 5.926 3.702 6.374 4.12 5.023 13.248 11.024 20.016 8.134 3.103-1.328 5.554-7.793 4.97-12.353v-.007z" fill="#fff" stroke="#000" stroke-width="2" stroke-linecap="round" stroke-linejoin="round"/>
        <path d="M129.127 161.6c2.724.296 6.29-.683 9.105-.835-.031.387-.099.857-.236 1.244M146.881 161.326c-.06-.424-.007-.91.038-1.327 2.481-.137 5.114-.494 7.603-.311" stroke="#000" stroke-width="1.5" stroke-linecap="round" stroke-linejoin="round"/>
        <path d="M144.355 150.416a15.388 15.388 0 0 0 5.136-1.085c6.032-2.383 10.183-8.384 9.91-15.228l-.357-8.908c-.349-8.657-7.656-15.395-16.313-15.046-8.665.349-15.402 7.656-15.053 16.313l.356 8.908c.243 5.964 3.779 11.009 8.779 13.468" fill="#fff"/>
        <path d="M144.355 150.416a15.388 15.388 0 0 0 5.136-1.085c6.032-2.383 10.183-8.384 9.91-15.228l-.357-8.908c-.349-8.657-7.656-15.395-16.313-15.046-8.665.349-15.402 7.656-15.053 16.313l.356 8.908c.243 5.964 3.779 11.009 8.779 13.468" stroke="#000" stroke-width="1.5" stroke-linecap="round" stroke-linejoin="round"/>
        <path d="M154.97 128.124c.038.888.364 1.593.736 1.578.371-.015.637-.744.599-1.631-.038-.888-.364-1.594-.728-1.578-.372.015-.638.743-.607 1.631zM141.821 128.92c.037.888.409 1.594.834 1.571.433-.015.744-.751.706-1.639-.038-.888-.41-1.586-.835-1.57-.425.015-.743.751-.705 1.631v.007z" fill="#000" stroke="#000" stroke-width="2" stroke-linecap="round" stroke-linejoin="round"/>
        <path d="M156.92 123.496c-.827-.934-2.019-1.366-3.263-1.207M149.681 130.575c4.006-.896 4.325 4.537-.326 4.287" stroke="#000" stroke-width="1.5" stroke-linecap="round" stroke-linejoin="round"/>
        <path d="M118.004 114.96c-4.067 7.633-1.336 12.215-.456 20.706.918 8.809-8.179 12.42-14.545 16.381-6.396 3.976-13.065 8.483-14.848 16.245-2.254 9.818 6.13 14.423 14.818 14.036 4.681-.204 9.287-1.737 13.339-4.051 6.51-3.726 10.394-8.43 14.56-14.454 1.669-2.421 2.891-7.36 1.267-9.993-1.7-2.754-4.484-3.816-5.562-7.299-1.896-6.146.873-13.043 6.397-16.283 2.716-1.593 4.916-1.836 7.01-4.552 3.134-4.052 2.39-8.915 7.732-11.032.979-.387 8.468-2.026 8.088.182 2.208-12.891-16.153-12.884-24.173-10.577-5.653 1.631-9.849 4.37-12.884 9.378-.273.448-.516.88-.743 1.305v.008z" fill="#131313"/>
        <path d="M131.927 129.141c-1.01-2.77-6.048-2.064-7.004.387-1.191 3.05 2.542 7.124 5.296 7.853" fill="#fff"/>
        <path d="M131.927 129.141c-1.01-2.77-6.048-2.064-7.004.387-1.191 3.05 2.542 7.124 5.296 7.853" stroke="#000" stroke-width="2" stroke-linecap="round" stroke-linejoin="round"/>
        <path d="M128.338 131.326c.994.296 1.631 1.388 1.934 2.375M140.053 123.511a7.566 7.566 0 0 1 3.687-.82" stroke="#000" stroke-width="1.5" stroke-linecap="round" stroke-linejoin="round"/>
        <path d="M214.645 127.881a.586.586 0 0 1-.16.819.586.586 0 0 1-.819-.159l-12.921-19.067a.587.587 0 0 1 .159-.82.587.587 0 0 1 .819.16l12.922 19.067z" fill="#fff" stroke="#000" stroke-width="1.5" stroke-linecap="round" stroke-linejoin="round"/>
        <path d="M218.53 122.873c-1.078-1.593-4.409-1.221-7.436.827-3.028 2.049-4.606 5.008-3.521 6.594l10.957-7.428v.007z" fill="#55BAFF" stroke="#000" stroke-width="1.5" stroke-linecap="round" stroke-linejoin="round"/>
        <path d="M205.176 76.567c2.337 3.445 2.701 7.277.819 8.551-1.882 1.275-5.304-.485-7.64-3.93-2.337-3.445-2.702-7.276-.82-8.551 1.882-1.275 5.304.486 7.633 3.93h.008zM176.518 95.991c2.337 3.445 2.701 7.276.819 8.551-1.881 1.275-5.303-.486-7.633-3.93-2.337-3.445-2.701-7.277-.819-8.551 1.882-1.275 5.304.485 7.64 3.93h-.007z" fill="#fff" stroke="#000" stroke-width="1.5" stroke-linecap="round" stroke-linejoin="round"/>
        <path d="m166.153 88.525 10.653 15.714c5.425 8.004 16.313 10.098 24.318 4.666 8.005-5.425 10.099-16.313 4.674-24.326l-10.653-15.713-28.992 19.651v.008z" fill="#55BAFF" stroke="#000" stroke-width="1.5" stroke-linecap="round" stroke-linejoin="round"/>
        <path d="M196.002 68.494a.729.729 0 0 1-.189 1.01l-29.311 19.87a.729.729 0 0 1-1.009-.189.73.73 0 0 1 .19-1.009l29.31-19.871a.729.729 0 0 1 1.009.19z" fill="#fff" stroke="#000" stroke-width="2" stroke-linecap="round" stroke-linejoin="round"/>
        <path d="M228.188 127.009a1.196 1.196 0 0 1-.318 1.661l-18.362 12.444a1.198 1.198 0 0 1-1.662-.319l-4.34-6.404a1.198 1.198 0 0 1 .319-1.662l18.362-12.443a1.195 1.195 0 0 1 1.661.319l4.34 6.404z" fill="#55BAFF" stroke="#000" stroke-width="1.5" stroke-linecap="round" stroke-linejoin="round"/>
        <path d="m185.706 86.325 4.181 2.534 4.173-1.973-.789 4.72 3.384 3.604-4.666.379-2.079 4.196-2.102-4.484-4.666-1.01 3.369-3.148-.805-4.818z" fill="#fff" stroke="#000" stroke-width="1.5" stroke-linecap="round" stroke-linejoin="round"/>
        <path d="M231.208 125.946a.98.98 0 0 1-.265 1.366l-23.848 16.161a.98.98 0 0 1-1.365-.265.985.985 0 0 1 .257-1.366l23.848-16.161a.98.98 0 0 1 1.366.265h.007z" fill="#131313" stroke="#131313" stroke-miterlimit="10"/>
        <path d="m218.223 125.798-7.863 5.332 1.423 2.097 7.862-5.331-1.422-2.098zM202.672 132.191c.303-1.981.599-5.387 1.601-7.049.842-1.396 2.936-2.345 4.051-3.983.714-1.04 1.7-1.89 2.163-3.089.501-1.274-.031-2.291-1.594-1.456a1.97 1.97 0 0 0-.591.531c.523-1.222.986-3.05-.607-2.747-.736.137-1.586 1.161-2.17 1.958.751-1.1 1.843-2.883.652-3.544-1.153-.645-2.322.941-2.967 1.677.6-.683 1.237-1.669.592-2.511-.493-.645-1.343-.691-1.995-.251-1.108.744-2.33 3.726-2.974 4.932-1.199 2.223-1.343 5.107-2.011 7.519-.122.433-1.973 4.765-1.958 4.765 2.747.554 5.478 1.563 7.808 3.24v.008z" fill="#fff" stroke="#000" stroke-width="1.5" stroke-linecap="round" stroke-linejoin="round"/>
        <path d="M204.424 124.664a3.581 3.581 0 0 1-1.775.926l1.775-.926z" fill="#fff"/>
        <path d="M204.424 124.664a3.581 3.581 0 0 1-1.775.926" stroke="#000" stroke-width="2" stroke-linecap="round" stroke-linejoin="round"/>
        <path d="M208.355 117.099c-.319.471-.683.896-1.055 1.328l1.055-1.328z" fill="#fff"/>
        <path d="M208.355 117.099c-.319.471-.683.896-1.055 1.328" stroke="#000" stroke-width="2" stroke-linecap="round" stroke-linejoin="round"/>
        <path d="M203.742 113.768c-.403.615-.934 1.169-1.374 1.768l1.374-1.768z" fill="#fff"/>
        <path d="M203.742 113.768c-.403.615-.934 1.169-1.374 1.768" stroke="#000" stroke-width="2" stroke-linecap="round" stroke-linejoin="round"/>
        <path d="M162.823 173.793c2.139-4.803 6.699-8.825.531-12.793-2.193-1.411-4.796-2.2-7.269-2.959-1.434-.44-5.16-2.276-6.594-1.965 6.457-1.411 12.967-2.557 18.992-5.463 13.247-6.381 19.143-17.383 25.949-29.591-.122.212 11.76 5.326 13.012 5.736-4.841 9.09-8.953 19.007-15.379 27.209-7.057 9.013-19.212 19.788-30.76 22.36" fill="#131313"/>
        <path d="M150.683 138.89c-2.269 0-4.53.236-6.799.289.585 1.608.751 4.15 2.489 4.977 2.565 1.222 3.536-1.73 3.301-3.748" stroke="#000" stroke-width="1.5" stroke-linecap="round" stroke-linejoin="round"/>
        <path d="m78.594 144.983-34.006 5.691s-2.71-14.811-10.464-17.565l28.795-11.776s12.914 12.929 15.675 23.65z" fill="#fff" stroke="#000" stroke-width="1.5" stroke-miterlimit="10"/>
        <path d="M36.355 127.874s20.152 3.118 36.731 12.139c0 0 2.936 1.07 3.278 7.808 0 0-20.471.364-30.813 3.407 0 0-4.165-19.06-9.196-23.354z" fill="#fff" stroke="#000" stroke-width="1.5" stroke-miterlimit="10"/>
        <path d="M73.078 140.021s-6.563.197-9.56 1.518c0 0-11.108-10.562-25.099-13.294" fill="#fff"/>
        <path d="M73.078 140.021s-6.563.197-9.56 1.518c0 0-11.108-10.562-25.099-13.294" stroke="#000" stroke-width="1.5" stroke-miterlimit="10"/>
        <path d="M225.328 215.584c-1.814 2.755-3.915 5.349-6.434 7.451-.44.364-6.761 5.615-7.019 5.235 5.266 7.626 11.222 15.881 17.793 22.437 1.525 1.517 10.979-9.06 11.988-10.152 3.733-4.052 7.003-9.189 7.367-14.925.357-5.683-2.481-10.645-5.986-14.887-3.316-4.013-7.185-8.179-11.465-11.199.418 2.702-1.161 5.577-2.071 8.119-1.009 2.823-2.542 5.425-4.181 7.914l.008.007z" fill="#fff" stroke="#000" stroke-width="1.5" stroke-miterlimit="10"/>
        <path d="M240.859 208.444c2.132 2.694 3.187 6.859 1.063 9.803 2.071.82 3.672 2.853 4.598 4.887 1.168 2.564 2.678 5.493 1.236 8.103" fill="#fff"/>
        <path d="M240.859 208.444c2.132 2.694 3.187 6.859 1.063 9.803 2.071.82 3.672 2.853 4.598 4.887 1.168 2.564 2.678 5.493 1.236 8.103M221.193 230.653l7.883 9.955M233.492 215.266l7.883 9.954M224.417 222.83l13.332 17.315M226.511 219.287l13.332 17.315M228.37 215.933l13.332 17.315" stroke="#000" stroke-width="1.5" stroke-miterlimit="10"/>
        <path d="M115.715 82.63s-5.091-19.743-3.354-38.537c0 0-.182-3.119 5.873-6.093 0 0 8.415 18.665 15.296 26.958 0 0-15.865 11.351-17.822 17.671h.007z" fill="#fff" stroke="#000" stroke-width="1.5" stroke-miterlimit="10"/>
        <path d="M112.361 44.093s2.777 5.956 5.175 8.179c0 0-5.311 14.378-2.306 28.309" fill="#fff"/>
        <path d="M112.361 44.093s2.777 5.956 5.175 8.179c0 0-5.311 14.378-2.306 28.309" stroke="#000" stroke-width="1.5" stroke-miterlimit="10"/>
        <path d="m168.384 60.998 6.07 10.622M178.756 60.998l1.009 7.079M160.546 72.63l8.096 2.526M187.353 66.56l1.517-4.553M157.003 83.76l8.096-1.017M80.438 193.474c-8.543 8.142-10.85 25.084-7.618 36.192 8.749 30.069 47.073 19.371 67.696 10.084 29.34-13.21 64.644-47.786 61.693-82.695M149.856 245.82c24.006-6.669 50.919-26.996 62.596-48.939" stroke="#55BAFF" stroke-width="1.5" stroke-linecap="round" stroke-linejoin="round"/>
        <path d="M66.144 70.945a1.518 1.518 0 1 0 0-3.035 1.518 1.518 0 0 0 0 3.035zM74.619 70.945a1.517 1.517 0 1 0 0-3.035 1.517 1.517 0 0 0 0 3.035zM83.094 70.945a1.517 1.517 0 1 0 0-3.035 1.517 1.517 0 0 0 0 3.035zM66.144 81.188a1.518 1.518 0 1 0 0-3.035 1.518 1.518 0 0 0 0 3.035zM74.619 81.188a1.517 1.517 0 1 0 0-3.035 1.517 1.517 0 0 0 0 3.035zM83.094 81.188a1.517 1.517 0 1 0 0-3.035 1.517 1.517 0 0 0 0 3.035zM66.144 91.431a1.518 1.518 0 1 0 0-3.035 1.518 1.518 0 0 0 0 3.035zM74.619 91.431a1.517 1.517 0 1 0 0-3.035 1.517 1.517 0 0 0 0 3.035zM83.094 91.431a1.517 1.517 0 1 0 0-3.035 1.517 1.517 0 0 0 0 3.035z" fill="#131313"/>
        <path d="m268.212 171.85-9.105 9.864M259.107 171.85l9.105 9.864" stroke="#000" stroke-width="2" stroke-miterlimit="10"/>
        <path d="M245.829 166.918a3.413 3.413 0 1 0 0-6.828 3.413 3.413 0 1 0 0 6.828z" fill="#131313" stroke="#000" stroke-width="2" stroke-miterlimit="10"/>
        <path d="M33.517 255.229a1.518 1.518 0 1 0 0-3.036 1.518 1.518 0 0 0 0 3.036zM41.993 255.229a1.518 1.518 0 1 0-.001-3.036 1.518 1.518 0 0 0 0 3.036zM50.468 255.229a1.518 1.518 0 1 0-.001-3.036 1.518 1.518 0 0 0 0 3.036zM33.517 265.547a1.517 1.517 0 1 0 .001-3.034 1.517 1.517 0 0 0 0 3.034zM41.993 265.547a1.517 1.517 0 1 0 0-3.034 1.517 1.517 0 0 0 0 3.034zM50.468 265.547a1.517 1.517 0 1 0 0-3.034 1.517 1.517 0 0 0 0 3.034zM58.996 255.229a1.518 1.518 0 1 0 0-3.036 1.518 1.518 0 0 0 0 3.036zM58.996 265.547a1.517 1.517 0 1 0 0-3.034 1.517 1.517 0 0 0 0 3.034z" fill="#131313"/>
    </g>
    <defs>
        <clipPath id="2fsbbxkkka">
            <path fill="#fff" transform="translate(32 28)" d="M0 0h236.774v251.584H0z"/>
        </clipPath>
    </defs>
</svg>
