<svg width="300" height="300" viewBox="0 0 300 300" fill="none" xmlns="http://www.w3.org/2000/svg">
    <path d="M96.337 86.756H14.439v81.604h81.898V86.756z" fill="#fff"/>
    <path d="M275.687 86.756h-81.898v81.604h81.898V86.756z" stroke="#000" stroke-width="1.5" stroke-linecap="round" stroke-linejoin="round"/>
    <mask id="0ay3looiza" style="mask-type:alpha" maskUnits="userSpaceOnUse" x="103" y="87" width="83" height="82">
        <path d="M185.14 87h-81.898v81.605h81.898V87z" fill="#D9D9D9"/>
    </mask>
    <g mask="url(#0ay3looiza)">
        <path d="M176.938 154.297c2.29 4.345 4.141 6.537 3.883 11.819-.22 4.451-2.821 9.295-7.273 10.912-1.98.718-7.235 1.179-9.033-.272-1.865-1.497-.819-3.816-1.41-5.827 2.874-1.125 9.783-6.09 6.621-9.181" fill="#fff"/>
        <path d="M176.938 154.297c2.29 4.345 4.141 6.537 3.883 11.819-.22 4.451-2.821 9.295-7.273 10.912-1.98.718-7.235 1.179-9.033-.272-1.865-1.497-.819-3.816-1.41-5.827 2.874-1.125 9.783-6.09 6.621-9.181" stroke="#000" stroke-width="1.5" stroke-linecap="round" stroke-linejoin="round"/>
        <path d="M157.349 147.602a72.6 72.6 0 0 1 2.009 15.998c.023 1.722 1.752 27.687 3.117 27.506-13.461 1.798-27.294 1.594-40.892.808-.212-9.272 1.191-18.755 1.206-28.103.008-8.622.501-20.494 6.363-25.602 7.387-6.446 19.999-6.839 25.527 2.418 1.183 1.98 2.048 4.368 2.677 6.975h-.007z" fill="#55BAFF" stroke="#000" stroke-width="1.5" stroke-linecap="round" stroke-linejoin="round"/>
        <path d="M131.996 152.514c-3.155 3.393-7.121 8.569-10.208 11.985-1.555-1.073-3.178-1.965-4.687-3.189-2.525-2.056-4.702-3.642-6.522-6.302-.159-.235 5.916-7.95 6.727-8.993 2.867-3.687 6.643-7.043 10.625-9.491 4.611-2.841 8.115-2.01 12.953-3.514" fill="#55BAFF"/>
        <path d="M131.996 152.514c-3.155 3.393-7.121 8.569-10.208 11.985-1.555-1.073-3.178-1.965-4.687-3.189-2.525-2.056-4.702-3.642-6.522-6.302-.159-.235 5.916-7.95 6.727-8.993 2.867-3.687 6.643-7.043 10.625-9.491 4.611-2.841 8.115-2.01 12.953-3.514" stroke="#000" stroke-width="1.5" stroke-linecap="round" stroke-linejoin="round"/>
        <path d="M157.091 154.146c3.883 2.539 8.979 6.612 12.801 9.189 1.252-1.421 2.609-2.667 3.785-4.224 1.956-2.6 3.678-4.663 4.808-7.678.098-.264-7.66-6.294-8.699-7.111-7.136-5.614-15.175-11.025-24.632-10.194" fill="#55BAFF"/>
        <path d="M157.091 154.146c3.883 2.539 8.979 6.612 12.801 9.189 1.252-1.421 2.609-2.667 3.785-4.224 1.956-2.6 3.678-4.663 4.808-7.678.098-.264-7.66-6.294-8.699-7.111-7.136-5.614-15.175-11.025-24.632-10.194" stroke="#000" stroke-width="1.5" stroke-linecap="round" stroke-linejoin="round"/>
        <path d="M146.762 125.982v7.814c0 3.234-2.632 5.856-5.878 5.856s-5.877-2.622-5.877-5.856v-7.814" fill="#fff"/>
        <path d="M146.762 125.982v7.814c0 3.234-2.632 5.856-5.878 5.856s-5.877-2.622-5.877-5.856v-7.814" stroke="#000" stroke-width="1.5" stroke-linecap="round" stroke-linejoin="round"/>
        <path d="M153.307 118.705c.219-1.738.06-3.521-.274-5.236-.136-.681-.242-1.376-.348-2.056v-.257c-.084-4.776-2.677-8.894-6.424-10.957l-.03.446c-2.905-1.663-6.447-2.305-9.556-1.096-4.611 1.791-7.864 6.506-7.773 11.993l.113 7.141c.099 5.985 4.141 10.934 9.473 12.105l5.923-3.355-.213 3.136c0-.045 2.351-1.005 2.594-1.148a11.884 11.884 0 0 0 2.563-2.078c2.45-2.607 3.519-5.139 3.959-8.638h-.007z" fill="#fff" stroke="#000" stroke-width="1.5" stroke-linecap="round" stroke-linejoin="round"/>
        <path d="M147.55 105.874c9.639-4.285 8.919 6.144 10.603 12.038.925 3.242 3.071 5.184 6.423 4.353.918-.227 3.193-.975 3.542-1.98.523-1.519-.797-.552-1.646-1.459-1.206-1.284.015-3.846.159-5.448.319-3.68 1.123-7.821-1.577-10.859-4.482-5.048-14.743-3.967-16.472 3.06" fill="#131313"/>
        <path d="M144.464 107.166c2.518 3.129 6.537 5.834 9.859 7.897-.243-.151-.425-4.738-.508-5.358-.948-6.846-6.007-11.335-13.151-11.153-5.771.143-11.937 3.967-12.68 9.952-.068.567-.781 6.612-.03 6.567 2.29-.204 4.944-1.421 7.091-2.434 3.45-1.617 6.234-3.196 9.426-5.471h-.007z" fill="#131313"/>
        <path d="M136.865 114.64c2.707-1.134 7.424-3.96 7.174-7.481" stroke="#000" stroke-width="1.5" stroke-linecap="round" stroke-linejoin="round"/>
        <path d="M151.888 114.647c.956-1.775 3.307-.408 3.337 1.179.046 2.063-1.266 4.156-3.488 3.975" fill="#fff"/>
        <path d="M151.888 114.647c.956-1.775 3.307-.408 3.337 1.179.046 2.063-1.266 4.156-3.488 3.975" stroke="#000" stroke-width="1.5" stroke-linecap="round" stroke-linejoin="round"/>
        <path d="M129.979 115.199c-.956-1.776-3.307-.408-3.337 1.179-.038 2.063 1.266 4.156 3.488 3.975" fill="#fff"/>
        <path d="M129.979 115.199c-.956-1.776-3.307-.408-3.337 1.179-.038 2.063 1.266 4.156 3.488 3.975" stroke="#000" stroke-width="1.5" stroke-linecap="round" stroke-linejoin="round"/>
        <path d="M147.634 117.957c0 .945-.455 1.7-1.016 1.7-.562 0-1.017-.763-1.017-1.7 0-.937.455-1.7 1.017-1.7.561 0 1.016.763 1.016 1.7zM137.274 117.957c0 .945-.455 1.7-1.016 1.7-.561 0-1.016-.763-1.016-1.7 0-.937.455-1.7 1.016-1.7.561 0 1.016.763 1.016 1.7z" fill="#000"/>
        <path d="M141.62 118.645c-3.853 0-2.601 4.179.925 2.395M140.884 124.547c.304.37.501.831.554 1.292M152.715 116.62a1.431 1.431 0 0 0-.554 1.103M128.31 117.36c.645.234 1.107.658 1.297 1.292" stroke="#000" stroke-width="1.5" stroke-linecap="round" stroke-linejoin="round"/>
        <path d="M131.245 139.683c-4.983 3.959-11.846 5.811-15.827 11.017-1.942 2.539-2.397 5.494-1.828 8.622 2.093 11.472 13.863-1.125 16.411-4.647 2.564-3.536 5.271-7.171 8.388-10.247 2.366-2.335 6.401-3.914 7.569-7.224.144-.408.349-.763-.137-.975-.144-.06-.682.015-.94.106l.053-.053-.099.068s-.06.03-.075.046c.599-.643 1.425-1.663 1.137-2.653a4.307 4.307 0 0 0-1.259.393c.334-.499 1.54-1.836 1.047-2.494-.69-.906-2.063.257-2.852.356.114-.016 1.221-1.429 1.418-1.633.691-.695 1.29-1.466 2.018-2.123.364-.325 2.624-1.625 1.782-2.26-1.653-1.239-6.53 3.152-7.834 3.983-1.896 1.194-1.767.363-3.094-.99-.668-.68-2.185-2.101-3.269-1.852-1.001.235-1.365 1.565-1.054 2.456.341.968.971.507 1.63.877 4.08 2.282.963 5.932-3.177 9.219l-.008.008z" fill="#fff" stroke="#000" stroke-width="1.5" stroke-linecap="round" stroke-linejoin="round"/>
    </g>
    <path d="M185.826 86.756h-81.898v81.604h81.898V86.756z" stroke="#000" stroke-width="1.5" stroke-linecap="round" stroke-linejoin="round"/>
    <mask id="vi4knrm35b" style="mask-type:alpha" maskUnits="userSpaceOnUse" x="15" y="87" width="83" height="82">
        <path d="M97.14 87H15.242v81.605H97.14V87z" fill="#D9D9D9"/>
    </mask>
    <g mask="url(#vi4knrm35b)">
        <path d="M69.877 108.209c2.26 2.728 4.413 8.365 2.51 11.683-1.327 2.32-3.694 3.74-4.27 6.498-.44 2.086.667 4.973-.918 6.567-2.442 2.456-7.674.877-9.26-1.7" fill="#131313"/>
        <path d="M69.877 108.209c2.26 2.728 4.413 8.365 2.51 11.683-1.327 2.32-3.694 3.74-4.27 6.498-.44 2.086.667 4.973-.918 6.567-2.442 2.456-7.674.877-9.26-1.7" stroke="#131313" stroke-width="1.5" stroke-linecap="round" stroke-linejoin="round"/>
        <path d="M44.501 133.305c-2.715 4.685-4.778 9.869-6.264 14.282-3.056 9.083-2.564 19.473-3.86 28.889.743-5.388 34.256-2.139 38.51-2.388-1.13-5.72-.841-11.856-.31-17.645.614-6.589 2.38-14.176 1.592-20.773-.538-4.511-3.557-4.874-7.85-6.317-3.791-1.27-7.788-2.607-11.815-2.789-5.764-.264-7.334 2.124-10.01 6.741h.007z" fill="#CCC" stroke="#000" stroke-width="1.5" stroke-linecap="round" stroke-linejoin="round"/>
        <path d="M61.603 127.849c4.975 1.768 11.292 2.138 14.106 7.322 1.32 2.434 3.92 5.751 4.05 8.6.159 3.604-3.967 5.048-7.478 5.357" fill="#CCC"/>
        <path d="M61.603 127.849c4.975 1.768 11.292 2.138 14.106 7.322 1.32 2.434 3.92 5.751 4.05 8.6.159 3.604-3.967 5.048-7.478 5.357M31.6 161.952c-1.38.106-2.745-.227-4.125-.045" stroke="#000" stroke-width="1.5" stroke-linecap="round" stroke-linejoin="round"/>
        <path d="M52.093 162.421c.485-.461.993-.9 1.554-1.262 1.54-.99 3.436-1.406 5.233-1.625 1.767-.219 3.762-.053 5.278.96.888.589 2.313 2.312 1.563 3.415-1.017 1.497-2.078-1.02-2.73-1.481-.577-.408-1.335-.839-2.063-.786.834 1.353 1.524 2.358 1.987 3.9.22.733.303 1.594-.44 2.093-.41.279-1.29.378-1.267-.408-.015.695-.85 1.375-1.517.952-.682-.431-.857-2.101-1.236-2.789-.417-.755-1.228-1.345-2.047-1.632.712.25 1.425 2.108 1.66 2.743.372.983.607 2.275-.47 2.902-.932.544-.796-.831-1.077-1.549-.288-.748-.697-1.232-1.258-1.768.159.151-1.01 1.995-1.13 2.176a56.87 56.87 0 0 1-1.237 1.768c-.758 1.013-1.827 1.897-3.056 2.275-2.002.604-4.77-.439-6.825-.59-2.624-.196-5.21.046-7.834-.249-6.629-.756-15.191-.461-17.732-8.108-1.668-5.026 4.354-11.728 7.57-15 1.06-1.081 8.978-9.915 10.708-8.396 3.117 2.743 5.589 6.25 8.713 9.091-2.783 4.632-8.933 8.849-12.778 12.876l11.353 4.232c.038.015.083.023.129.038 2.13.589 4.497-.197 6.256-1.39 1.001-.673 1.813-1.572 2.685-2.388h.008z" fill="#fff" stroke="#000" stroke-width="1.5" stroke-linecap="round" stroke-linejoin="round"/>
        <path d="M56.605 127.667c-2.943 0-6.69-.717-9.48-.105-2.776.604-5.786 2.909-8 4.587-5.241 3.974-9.526 9.06-14.039 13.798-.303.325 11.042 9.62 11.884 10.919 2.548-2.176 5.476-4.821 7.766-7.284" fill="#CCC"/>
        <path d="M56.605 127.667c-2.943 0-6.69-.717-9.48-.105-2.776.604-5.786 2.909-8 4.587-5.241 3.974-9.526 9.06-14.039 13.798-.303.325 11.042 9.62 11.884 10.919 2.548-2.176 5.476-4.821 7.766-7.284M31.442 161.914c-.645-.166-1.29-.34-1.934-.506M61.3 167.892c.045-1.527-.971-5.169-2.822-5.502M55.187 166.04c-.85-.279-1.616.28-2.397.582" stroke="#000" stroke-width="1.5" stroke-linecap="round" stroke-linejoin="round"/>
        <path d="M53.92 133.025c2.465 2.705 7.986 2.796 9.442-.431 1.6-3.551 1.085-9.513 1.532-13.443l-9.965-1.126c.88.098-2.093 10.443-2.184 11.403-.137 1.481.349 2.683 1.183 3.597h-.008z" fill="#fff" stroke="#000" stroke-width="1.5" stroke-linecap="round" stroke-linejoin="round"/>
        <path d="M61.686 125.741c1.183.09 2.336-.031 3.42-.318 4.096-1.096 7.243-4.662 7.577-9.121l.432-5.796c.425-5.629-3.815-10.541-9.472-10.957-5.65-.423-10.58 3.801-10.997 9.438l-.432 5.796a10.216 10.216 0 0 0 4.694 9.371" fill="#fff"/>
        <path d="M61.686 125.741c1.183.09 2.336-.031 3.42-.318 4.096-1.096 7.243-4.662 7.577-9.121l.432-5.796c.425-5.629-3.815-10.541-9.472-10.957-5.65-.423-10.58 3.801-10.997 9.438l-.432 5.796a10.216 10.216 0 0 0 4.694 9.371" stroke="#000" stroke-width="1.5" stroke-linecap="round" stroke-linejoin="round"/>
        <path d="M70.248 112.101c-.045.574.114 1.058.357 1.073.242.015.47-.439.515-1.013.046-.574-.113-1.058-.356-1.073-.243-.015-.47.438-.516 1.013zM61.648 111.632c-.045.575.144 1.058.425 1.081.28.022.538-.431.584-1.005.045-.575-.144-1.058-.425-1.081-.28-.023-.538.431-.584 1.005z" fill="#000" stroke="#000" stroke-width="1.5" stroke-linecap="round" stroke-linejoin="round"/>
        <path d="M71.864 109.252c-.47-.673-1.214-1.035-2.033-1.028M60.215 108.61c.697-.182 1.327-.363 2.04-.408" stroke="#000" stroke-width="1.5" stroke-linecap="round" stroke-linejoin="round"/>
        <path d="M69.224 102.375c1.13.847 2.215 1.799 3.026 2.925.857 1.186 2.101 3.272 1.7 4.738 2.107-1.67 1.796-4.345.894-6.575-1.024-2.531-2.032-3.65-4.474-4.61-3.474-1.367-10.474-6.082-12.832-.573-.046.105-3.064 0-3.466.083-2.548.476-4.983 3.944-6.287 6-1.297 2.048-2.184 5.221-2.344 7.624-.182 2.63.675 5.675-1.66 7.633-2.64 2.206-4.687 1.609-5.628 5.524-.121.521.675 6.234.546 6.264 2.465-.567 4.74-2.652 7.288-3.431 2.404-.733 5.78.295 7.493-2.131 2.39-3.362-2.442-7.216-.394-11.191-.44.846-4.747-1.534-1.699-3.438 1.767-1.111 3.762.189 3.45 2.221.577-3.793 4.263-5.577 7.54-6.687 2.206-.749 7.477-1.867 5.68-5.23.386.272.78.552 1.167.847v.007z" fill="#131313" stroke="#131313" stroke-width="1.5" stroke-linecap="round" stroke-linejoin="round"/>
        <path d="M54.914 113.431c.151-1.043-.327-2.592-1.274-3.159-.964-.574-2.723-.348-3.284.703-.872 1.64.978 4.194 2.487 4.783" fill="#fff"/>
        <path d="M54.914 113.431c.151-1.043-.327-2.592-1.274-3.159-.964-.574-2.723-.348-3.284.703-.872 1.64.978 4.194 2.487 4.783" stroke="#000" stroke-width="1.5" stroke-linecap="round" stroke-linejoin="round"/>
        <path d="M52.077 112.403c.493.212.751.801.85 1.322" stroke="#000" stroke-width="1.5" stroke-linecap="round" stroke-linejoin="round"/>
        <path d="M57.56 169.282c0 3.438 2.799 6.227 6.25 6.227H94.1c3.45 0 6.249-2.789 6.249-6.227l4.406-19.171c0-3.438-2.799-6.227-6.25-6.227H68.224c-3.45 0-6.249 2.789-6.249 6.227l-4.406 19.171h-.008z" fill="#fff" stroke="#000" stroke-width="1.5" stroke-linecap="round" stroke-linejoin="round"/>
        <path d="M59.866 171.572c0 3.438 2.798 6.227 6.249 6.227h30.282c3.451 0 6.249-2.789 6.249-6.227l4.407-19.171c0-3.439-2.799-6.227-6.249-6.227h-30.29c-3.451 0-6.25 2.788-6.25 6.227l-4.406 19.171h.008z" fill="#55BAFF" stroke="#000" stroke-width="1.5" stroke-linecap="round" stroke-linejoin="round"/>
        <path d="M66.964 113.06c1.494.703 1.927 2.864-.25 2.774M65.197 119.106h-2.025" stroke="#131313" stroke-width="1.5" stroke-linecap="round" stroke-linejoin="round"/>
    </g>
    <path d="M96.337 86.756H14.439v81.604h81.898V86.756z" stroke="#000" stroke-width="1.5" stroke-linecap="round" stroke-linejoin="round"/>
    <path d="M72.372 261.903s-6.826 4.156-12.893 15.491h62.946s-5.309-12.091-12.892-15.491H72.372z" fill="#000"/>
    <path d="M198.772 250.817a2.14 2.14 0 0 1-2.147 2.139h-70.021a2.14 2.14 0 0 1-2.146-2.139l9.859-44.078c0-1.186.963-2.146 2.146-2.146h70.021c1.191 0 2.147.96 2.147 2.146l-9.859 44.078z" fill="#fff" stroke="#000" stroke-width="1.5" stroke-linecap="round" stroke-linejoin="round"/>
    <path d="M195.063 248.686h-66.586l9.548-39.816h66.579l-9.541 39.816z" fill="#55BAFF" stroke="#000" stroke-width="1.5" stroke-linecap="round" stroke-linejoin="round"/>
    <path d="M200.797 250.946h-82.414a2.142 2.142 0 0 0-2.146 2.138v1.262c0 1.181.961 2.139 2.146 2.139h82.414a2.143 2.143 0 0 0 2.146-2.139v-1.262a2.142 2.142 0 0 0-2.146-2.138z" fill="#fff" stroke="#000" stroke-width="1.5" stroke-linecap="round" stroke-linejoin="round"/>
    <path d="M38.244 256.235h210.831" stroke="#000" stroke-width="1.5" stroke-linecap="round" stroke-linejoin="round"/>
    <path d="M78.06 207.873c-5.165 4.655-8.927 8.184-11.247 14.697-2.025 5.668-8.896 15.144-7.645 21.31 1.608 7.973 11.27 4.663 16.237 2.275" fill="#fff"/>
    <path d="M78.06 207.873c-5.165 4.655-8.927 8.184-11.247 14.697-2.025 5.668-8.896 15.144-7.645 21.31 1.608 7.973 11.27 4.663 16.237 2.275" stroke="#000" stroke-width="1.5" stroke-linecap="round" stroke-linejoin="round"/>
    <path d="M163.029 234.827c-.933 1.194-1.843 2.411-2.161 3.514-.865 2.925 1.797 3.37 4.345 3.423 3.534.076 7.789-.869 9.799-3.997 1.782-2.781 1.334-7.126 4.694-8.781 1.752-.861.44-.242 1.259.325 2.965 2.048 2.973-3.408.933-3.748.629.106 2.017.854 2.366-.03.432-1.104-3.694-3.945-4.778-3.869 1.297-.091 2.867 1.012 4.209.264-1.259-2.72-7.03-3.589-9.449-2.395-3.042 1.511-4.786 2.697-6.022 5.811a58.922 58.922 0 0 1-3.185 6.695c-.478.861-1.252 1.821-2.01 2.788z" fill="#fff" stroke="#000" stroke-width="1.5" stroke-linecap="round" stroke-linejoin="round"/>
    <path d="M182.246 225.782c-2.965-1.368-4.178-2.38-6.567.272M180.305 221.686c-2.677-.778-5.051.144-6.833 2.396" stroke="#000" stroke-width="1.5" stroke-linecap="round" stroke-linejoin="round"/>
    <path d="M103.845 203.127c4.353-.007 9.017.015 13.173 1.466 4.543 1.587 7.819 5.358 10.913 8.849 3.231 3.635 5.968 7.526 9.336 11.161 4.406 4.753 8.812 9.499 13.218 14.252l14.03-6.801s7.205 0 5.309 14.736l-12.892 9.823s-7.584 6.046-17.064-3.778L120.15 236.21l-10.617 27.96H72.372c-2.2 0-3.542-18.922-3.625-20.131-.963-14.441-.88-35.312 15.91-40.655 3.353-1.065 6.508-.499 9.89-.257 2.283.166 5.65.015 9.29 0h.008z" fill="#fff" stroke="#000" stroke-width="1.5" stroke-linecap="round" stroke-linejoin="round"/>
    <path d="M113.916 178.727c.463-4.338 2.116-10.421-1.175-13.973-3.512-3.793-8.077-5.735-13.234-5.856-7.25-.182-16.245 6.657-17.352 14.093-.523 3.506-1.418 7.783-.235 11.169.986 2.826 3.086 4.927 5.536 6.703a7.519 7.519 0 0 0-.243 1.858c0 3.484-.53 7.383 0 10.822.774 5.01 6 5.569 10.072 4.639 6.188-1.413 5.225-5.448 4.952-11.025 3.314-.975 6.674-2.516 8.881-5.297 1.441-1.814 1.259-5.418 1.38-7.662-.023.445 2.495-.582 2.685-.794 2.04-2.237-1.457-2.819-1.267-4.67v-.007z" fill="#fff" stroke="#000" stroke-width="1.5" stroke-linecap="round" stroke-linejoin="round"/>
    <path d="M105.49 187.22c.357 2.184 4.179 3.287 6.067 2.517M98.915 197.671a6.407 6.407 0 0 0 3.542-.755M105.725 174.389c1.07-1.02 3.042-1.164 4.354-.506" stroke="#000" stroke-width="1.5" stroke-linecap="round" stroke-linejoin="round"/>
    <path d="M108.145 179.278a1.746 1.746 0 0 1-.463-.226c-1.304-.907-.265-2.827 1.214-2.207.159.068.31.166.447.31 1.039 1.088 0 2.486-1.198 2.123z" fill="#000"/>
    <path d="M150.296 238.288c.576 1.429 1.084 3.189 1.137 4.723" stroke="#000" stroke-width="1.5" stroke-linecap="round" stroke-linejoin="round"/>
    <path d="M69.027 165.533c-.334.03-.667.068-1 .121-7.547 1.103-15.586 8.244-16.154 16.042-.531 7.338 4.353 11.728 8.994 16.481 7.394 7.58 7.25 14.003-3.853 14.32 1.123 4.255 10.163 4.693 13.712 3.34 9.032-3.445 10.079-14.516 6.727-22.511-1.737-4.133-4.634-6.196-2.64-11.154 1.95-4.843 6.462-7.624 2.405-13.39-1.98-2.819-4.998-3.529-8.198-3.249h.007z" fill="#000"/>
    <path d="M87.16 197.482c.046 1.776.372 3.665.114 5.411.023-.136-4.619 1.345-5.043 1.655-1.873 1.367 9.753 5.418 10.625 5.516 6.188.665 12.923-1.934 16.859-6.612-2.313-.718-4.93-.499-7.387-.499" fill="#fff"/>
    <path d="M87.16 197.482c.046 1.776.372 3.665.114 5.411.023-.136-4.619 1.345-5.043 1.655-1.873 1.367 9.753 5.418 10.625 5.516 6.188.665 12.923-1.934 16.859-6.612-2.313-.718-4.93-.499-7.387-.499" stroke="#000" stroke-width="1.5" stroke-linecap="round" stroke-linejoin="round"/>
    <path d="m113.931 160.825.046.022c3.056 1.542 3.329 5.018 2.563 7.95-.379 1.443-2.101 3.695-2.055 5.101-.099-3.091.151-6.582-2.366-8.879-2.541-2.328-2.018.793-3.208 2.509-1.858 2.667-5.241 4.065-8.115 5.327-3.382 1.489-7.121 2.887-9.146 6.159-2.366 3.823-1.26 8.743-2.124 12.982-.508 2.486-1.357 4.972-1.971 7.428-6.272-7.428-16.821-10.98-16.298-22.488.288-6.408 4.33-13.874 9.593-17.487 5.34-3.657 13.295-3.891 19.476-3.037 2.192.302 4.907.317 6.909 1.179 1.403.604 2.464 1.745 3.83 2.372.925.424 1.964.408 2.874.854l-.008.008z" fill="#000"/>
    <path d="M94.281 177.004c-1.25-3.053-5.566-2.207-6.522.68-1.069 3.204 1.396 6.121 4.604 6.257" fill="#fff"/>
    <path d="M94.281 177.004c-1.25-3.053-5.566-2.207-6.522.68-1.069 3.204 1.396 6.121 4.604 6.257" stroke="#000" stroke-width="1.5" stroke-linecap="round" stroke-linejoin="round"/>
    <path d="M90.838 178.205c.857.907 1.343 2.093 1.676 3.302M117.473 233.49c1.327 1.02 2.601 2.01 3.625 3.347" stroke="#000" stroke-width="1.5" stroke-linecap="round" stroke-linejoin="round"/>
    <path d="M264.266 213.532c.837 0 1.517-.676 1.517-1.511 0-.835-.68-1.511-1.517-1.511-.838 0-1.517.676-1.517 1.511 0 .835.679 1.511 1.517 1.511zM272.729 213.532c.838 0 1.517-.676 1.517-1.511 0-.835-.679-1.511-1.517-1.511-.837 0-1.516.676-1.516 1.511 0 .835.679 1.511 1.516 1.511zM281.2 213.532c.838 0 1.517-.676 1.517-1.511 0-.835-.679-1.511-1.517-1.511-.837 0-1.516.676-1.516 1.511 0 .835.679 1.511 1.516 1.511zM264.266 223.817c.837 0 1.517-.677 1.517-1.511 0-.835-.68-1.512-1.517-1.512-.838 0-1.517.677-1.517 1.512 0 .834.679 1.511 1.517 1.511zM272.729 223.817c.838 0 1.517-.677 1.517-1.511 0-.835-.679-1.512-1.517-1.512-.837 0-1.516.677-1.516 1.512 0 .834.679 1.511 1.516 1.511zM281.2 223.817c.838 0 1.517-.677 1.517-1.511 0-.835-.679-1.512-1.517-1.512-.837 0-1.516.677-1.516 1.512 0 .834.679 1.511 1.516 1.511zM289.725 213.532c.837 0 1.517-.676 1.517-1.511 0-.835-.68-1.511-1.517-1.511-.838 0-1.517.676-1.517 1.511 0 .835.679 1.511 1.517 1.511zM289.725 223.817c.837 0 1.517-.677 1.517-1.511 0-.835-.68-1.512-1.517-1.512-.838 0-1.517.677-1.517 1.512 0 .834.679 1.511 1.517 1.511z" fill="#131313"/>
    <path d="m33.785 204.918-9.1 9.824M24.684 204.918l9.101 9.824" stroke="#000" stroke-width="2" stroke-miterlimit="10"/>
    <path d="M11.413 200.006a3.406 3.406 0 0 0 3.412-3.4 3.407 3.407 0 0 0-3.412-3.401A3.407 3.407 0 0 0 8 196.606c0 1.878 1.528 3.4 3.413 3.4z" fill="#131313" stroke="#000" stroke-width="2" stroke-miterlimit="10"/>
    <mask id="mlytg8qsec" style="mask-type:alpha" maskUnits="userSpaceOnUse" x="194" y="86" width="82" height="82">
        <path d="M275.242 86h-81v82h81V86z" fill="#D9D9D9"/>
    </mask>
    <g mask="url(#mlytg8qsec)">
        <path d="M252.367 139.612c3.974 8.924 5.741 15.937 4.52 25.27-.812 6.241 3.678 18.241.902 23.584-4.398 8.463-23.366 6.007-28.212-.574-2.609-3.544-3.981-11.539-4.952-15.892-2.434-10.942-4.247-22.799-4.073-33.975.167-10.496 13.295-15.854 21.736-10.489 4.406 2.796 7.963 7.338 10.071 12.061l.008.015z" fill="#131313"/>
        <path d="M232.133 124.899c-5.392 1.912-12.24 2.32-15.281 7.935-1.434 2.637-4.255 6.234-4.391 9.31-.175 3.906 4.292 5.471 8.107 5.803M238.951 167.579a3.61 3.61 0 0 1-3.618 3.605h-35.788a3.61 3.61 0 0 1-3.617-3.605 3.61 3.61 0 0 1 3.617-3.604h35.788a3.61 3.61 0 0 1 3.618 3.604z" fill="#131313"/>
        <path d="M238.769 165.872c0 .846-.69 1.534-1.54 1.534h-18.618a1.538 1.538 0 0 1-1.539-1.534c0-.847.69-1.534 1.539-1.534h18.618c.85 0 1.54.687 1.54 1.534z" fill="#fff" stroke="#000" stroke-width="1.5" stroke-linecap="round" stroke-linejoin="round"/>
        <path d="M225.831 162.826c0 3.726-3.034 6.748-6.773 6.748h-32.815c-3.739 0-6.772-3.022-6.772-6.748l-4.778-20.773c0-3.726 3.033-6.748 6.772-6.748h32.816c3.738 0 6.772 3.022 6.772 6.748l4.778 20.773z" fill="#fff" stroke="#000" stroke-width="1.5" stroke-linecap="round" stroke-linejoin="round"/>
        <path d="M224.162 164.489c0 3.725-3.033 6.748-6.772 6.748h-32.815c-3.739 0-6.765-3.023-6.765-6.748l-4.778-20.774c0-3.725 3.034-6.748 6.772-6.748h32.816c3.739 0 6.772 3.023 6.772 6.748l4.778 20.774h-.008z" fill="#131313"/>
        <path d="M263.128 163.914c1.434.454 2.95.423 4.369.96" stroke="#000" stroke-width="1.5" stroke-linecap="round" stroke-linejoin="round"/>
        <path d="M241.393 159.411c-.402-.605-.827-1.187-1.327-1.708-1.381-1.421-3.284-2.32-5.127-2.993-1.812-.657-3.959-.975-5.809-.279-1.085.408-3.011 1.874-2.488 3.226.706 1.829 2.45-.566 3.239-.891.713-.295 1.615-.559 2.373-.325-1.213 1.224-2.184 2.116-3.056 3.627-.417.718-.705 1.61-.053 2.32.364.393 1.266.71 1.441-.113-.152.74.561 1.654 1.365 1.375.819-.287 1.418-2.003 1.987-2.645.629-.703 1.623-1.118 2.563-1.224-.811.091-2.017 1.874-2.427 2.486-.629.945-1.198 2.259-.212 3.181.85.801 1.047-.687 1.517-1.375.493-.718 1.046-1.133 1.759-1.564-.204.121.577 2.357.653 2.569.273.726.561 1.451.872 2.169.546 1.247 1.456 2.448 2.669 3.143 1.29.741 2.761.325 3.982.839 4.512 1.904 9.442 2.69 14.318 2.849 3.868.129 10.041.589 13.484-1.473 8.706-5.23 4.27-14.94.304-21.439-.85-1.398-7.038-12.657-9.238-11.471-3.966 2.139-7.432 5.229-11.436 7.474 1.797 5.569 7.25 11.524 10.322 16.7l-13.022 1.693c-.045 0-.091 0-.144.007-2.389.106-4.694-1.307-6.264-2.992-.888-.952-1.532-2.101-2.245-3.182v.016z" fill="#fff" stroke="#000" stroke-width="1.5" stroke-linecap="round" stroke-linejoin="round"/>
        <path d="M239.906 124.023c7.819-.22 13.697.113 20.113 5.32 6.681 5.418 9.92 14.093 15.031 20.788-.523-.68-13.075 10.322-15.152 10.844-2.935-4.489-6.523-9.65-9.078-14.381" fill="#131313"/>
        <path d="M263.31 163.914c.721-.022 1.449-.037 2.169-.06M230.328 162.939c.326-1.624 2.29-5.221 4.33-5.123M237.229 162.479c.971-.091 1.631.687 2.382 1.194" stroke="#000" stroke-width="1.5" stroke-linecap="round" stroke-linejoin="round"/>
        <path d="M242.606 128.542c-2.563 2.818-8.312 2.909-9.828-.454-1.669-3.695-1.13-9.907-1.593-13.987l10.375-1.172c-.918.106 2.184 10.874 2.275 11.872.136 1.542-.364 2.796-1.229 3.748v-.007z" fill="#fff" stroke="#000" stroke-width="1.5" stroke-linecap="round" stroke-linejoin="round"/>
        <path d="M234.522 123.35a10.695 10.695 0 0 1-3.557-.332c-4.262-1.141-7.538-4.859-7.887-9.492l-.455-6.03c-.44-5.864 3.974-10.972 9.859-11.403 5.885-.438 11.012 3.96 11.452 9.824l.455 6.03c.303 4.035-1.699 7.715-4.892 9.756" fill="#fff"/>
        <path d="M234.522 123.35a10.695 10.695 0 0 1-3.557-.332c-4.262-1.141-7.538-4.859-7.887-9.492l-.455-6.03c-.44-5.864 3.974-10.972 9.859-11.403 5.885-.438 11.012 3.96 11.452 9.824l.455 6.03c.303 4.035-1.699 7.715-4.892 9.756" stroke="#000" stroke-width="1.5" stroke-linecap="round" stroke-linejoin="round"/>
        <path d="M225.611 109.159c.045.597-.121 1.095-.372 1.118-.25.015-.493-.453-.538-1.05-.046-.597.121-1.104.371-1.119.251-.015.493.454.539 1.051zM234.56 108.675c.045.597-.152 1.103-.44 1.126-.288.023-.561-.446-.607-1.05-.045-.597.152-1.104.448-1.126.288-.023.561.446.606 1.05h-.007z" fill="#000" stroke="#000" stroke-width="1.5" stroke-linecap="round" stroke-linejoin="round"/>
        <path d="M223.927 106.189a2.483 2.483 0 0 1 2.109-1.066M236.054 105.524c-.728-.189-1.38-.378-2.124-.423M229.335 106.348l-.956 7.821 2.184-.575" stroke="#000" stroke-width="1.5" stroke-linecap="round" stroke-linejoin="round"/>
        <path d="M229.282 101.768c-2.116-.053-6.834.937-6.78 3.718-1.601-4.36-1.017-7.24 1.926-10.647 2.267-2.622 6.56-4.005 9.904-3.257 2.025.46 3.663 1.179 4.505 3.189.046.113 3.193 0 3.61.083 1.403.264 2.397.937 3.367 2.048 1.972 2.26 2.647 5.403 2.078 8.312-.447 2.305-1.357 3.166-2.715 5.048.652-.899.675-3.03-.553-3.491-1.752-.658-3.125 2.781-2.935 4.058-.311-2.094-1.024-4.149-2.002-6.015-1.009-1.92-2.556-3.711-3.133-5.82-1.721 2.978-4.216 2.842-7.265 2.767l-.007.007z" fill="#131313" stroke="#131313" stroke-width="1.5" stroke-linecap="round" stroke-linejoin="round"/>
        <path d="M241.567 110.542c-.159-1.089.342-2.698 1.328-3.288 1.001-.597 2.836-.362 3.42.726.91 1.708-1.016 4.36-2.586 4.98" fill="#fff"/>
        <path d="M241.567 110.542c-.159-1.089.342-2.698 1.328-3.288 1.001-.597 2.836-.362 3.42.726.91 1.708-1.016 4.36-2.586 4.98" stroke="#000" stroke-width="1.5" stroke-linecap="round" stroke-linejoin="round"/>
        <path d="M244.525 109.476c-.508.219-.781.831-.887 1.375M232.952 116.882h-1.63" stroke="#000" stroke-width="1.5" stroke-linecap="round" stroke-linejoin="round"/>
    </g>
</svg>
