<svg width="300" height="300" viewBox="0 0 300 300" fill="none" xmlns="http://www.w3.org/2000/svg">
    <path d="m210.615 171.146-34.242-27.875-28.486 10.657-34.789-28.692-33.694 15.573-52.32-57.112" stroke="#000" stroke-linecap="round" stroke-linejoin="round"/>
    <path d="M176.434 146.854a2.92 2.92 0 0 0 2.923-2.916 2.92 2.92 0 0 0-2.923-2.917 2.92 2.92 0 0 0-2.923 2.917 2.92 2.92 0 0 0 2.923 2.916zM146.118 154.504a2.915 2.915 0 0 0 2.923 2.916 2.916 2.916 0 1 0 0-5.832 2.916 2.916 0 0 0-2.923 2.916zM109.591 125.721a2.921 2.921 0 0 0 2.923 2.916 2.916 2.916 0 1 0 0-5.833 2.916 2.916 0 0 0-2.923 2.917z" fill="#fff" stroke="#000" stroke-linecap="round" stroke-linejoin="round"/>
    <path d="M23.76 83.083A2.916 2.916 0 0 0 26.681 86a2.916 2.916 0 1 0 0-5.832 2.916 2.916 0 0 0-2.923 2.916z" fill="#55BAFF" stroke="#000" stroke-linecap="round" stroke-linejoin="round"/>
    <path d="m102.029 64.275 132.357 110.522" stroke="#55BAFF" stroke-width="1.5" stroke-linecap="round" stroke-linejoin="round"/>
    <path d="M164.901 144.279c-7.699 4.453-9.278 30.336 1.154 24.534 7.107-3.947 12.755-22.141 2.263-24.913" fill="#fff"/>
    <path d="M118.049 215.965c.896 10.899 1.245 21.905 1.351 32.835.099 10.855-1.624 21.391-1.389 32.2h72.985c-.258-3.636-.691-15.058-.888-16.619-.911-7.089-2.156-14.187-1.792-21.368.197-3.772.167-7.491.068-11.195-.182-6.923-.592-13.793-.22-20.838.554-10.445-3.135-20.974-10.303-28.836-7.911-8.673-20.674-7.347-31.303-5.863-13.674 1.909-35.236.152-32.898 20.209.775 6.666 3.812 12.551 4.381 19.467l.008.008z" fill="#131313"/>
    <path d="M136.506 178.084s15.944 60.021 17.394 57.855c1.45-2.167 17.758-59.302 17.758-59.302s-20.294-3.613-35.16 1.447h.008z" fill="#fff" stroke="#281000" stroke-width="1.5" stroke-linecap="round" stroke-linejoin="round"/>
    <path d="M164.362 166.866v10.657c0 5.234-4.251 6.992-9.49 6.992-5.247 0-9.491-1.758-9.491-6.992v-10.657" fill="#fff"/>
    <path d="M164.362 166.866v10.657c0 5.234-4.251 6.992-9.49 6.992-5.247 0-9.491-1.758-9.491-6.992v-10.657" stroke="#000" stroke-width="1.5" stroke-linecap="round" stroke-linejoin="round"/>
    <path d="M160.657 169.207c8.822-2.659 15.2-11.324 15.033-21.497l-.205-12.498c-.137-8.363-4.669-15.566-11.229-19.179" fill="#fff"/>
    <path d="M160.657 169.207c8.822-2.659 15.2-11.324 15.033-21.497l-.205-12.498c-.137-8.363-4.669-15.566-11.229-19.179" stroke="#000" stroke-width="1.5" stroke-linecap="round" stroke-linejoin="round"/>
    <path d="M170.299 121.873c-3.811-3.651-6.84-7.529-12.55-8.355-13.074-1.886-24.045 9.726-23.84 22.368l.205 12.498c.175 10.483 7.243 19.141 16.559 21.194" fill="#fff"/>
    <path d="M170.299 121.873c-3.811-3.651-6.84-7.529-12.55-8.355-13.074-1.886-24.045 9.726-23.84 22.368l.205 12.498c.175 10.483 7.243 19.141 16.559 21.194" stroke="#000" stroke-width="1.5" stroke-linecap="round" stroke-linejoin="round"/>
    <path d="M166.146 145.846c0 1.644-.797 2.985-1.776 2.985-.98 0-1.777-1.333-1.777-2.985 0-1.651.797-2.984 1.777-2.984.979 0 1.776 1.333 1.776 2.984zM148.039 145.846c0 1.644-.798 2.985-1.777 2.985-.979 0-1.777-1.333-1.777-2.985 0-1.651.798-2.984 1.777-2.984.979 0 1.777 1.333 1.777 2.984z" fill="#000"/>
    <path d="M161.978 136.727c1.086.113 2.179.333 3.235.643M144.842 138.014c1.382-.553 2.999-.31 4.525-.325M150.719 157.981c1.495 2.181 5.671 2.598 7.417.295M155.168 145.256l-3.265 6.809 3.857.591" stroke="#000" stroke-width="1.5" stroke-linecap="round" stroke-linejoin="round"/>
    <path d="M135.405 118.737c-1.951 2.575-3.865 5.022-3.394 8.529.646 4.802-1.207 9.036-.82 13.596.061.758.19 1.515.395 2.295.896-.151 1.723-.356 2.627-.136.091-2.401 1.587-4.961 2.84-6.984 1.389-2.249 3.469-4.476 6.24-4.825 3.827-.485 7.608.614 11.45-.538 2.809-.848 6.392-1.272 8.609-3.34-4.069 3.787 2.354 7.022 5.209 8.62 3.576 2 5.39 4.848 6.446 8.711 1.564-.818 2.027-2.295 4.001-1.803-.843-.212.121-9.62.106-10.551-.091-6.181-1.678-12.688-7.888-15.377-.797-.348-2.172-.576-2.847-1.022-1.238-.818-.744-.925-1.549-2.326-1.853-3.249-5.808-3.946-9.217-4.355-6.31-.765-13.591 1.25-18.495 5.317-4.586 3.81-9.825 11.074-8.466 17.316.554 2.537 2.794 5.779 2.65 8.286" fill="#131313"/>
    <path d="M148.312 126.38c-2.475 1.03-4.889 2.318-7.008 3.969-.964.757-2.194 1.659-2.839 2.727-.152.242-.927 2.439-.782 2.401 3.143-.902 5.74-3.272 8.852-4.219-1.632 1.136-3.021 3.545-3.674 5.484 2.786-1.462 7.471-3.947 9.247-6.552-1.161 1.696-1.01 3.401-1.541 5.234.068-.235 2.278-1.364 2.619-1.576.987-.598 1.921-1.022 2.779-1.825 1.389-1.288 3.265-2.553 4.168-4.25-.03 1.356-.82 2.75-.501 4.151 1.967-.727 4.313-5.325 4.601-7.37" fill="#131313"/>
    <path d="M174.103 141.332c1.678-3.113 5.778-.712 5.839 2.068.076 3.613-2.217 7.279-6.097 6.961" fill="#fff"/>
    <path d="M174.103 141.332c1.678-3.113 5.778-.712 5.839 2.068.076 3.613-2.217 7.279-6.097 6.961" stroke="#000" stroke-width="1.5" stroke-linecap="round" stroke-linejoin="round"/>
    <path d="M175.553 144.786c-.599.485-.956 1.182-.971 1.932" stroke="#000" stroke-width="1.5" stroke-linecap="round" stroke-linejoin="round"/>
    <path d="M135.8 142.301c-1.678-3.113-5.778-.712-5.839 2.068-.068 3.613 2.217 7.272 6.097 6.954" fill="#fff"/>
    <path d="M135.8 142.301c-1.678-3.113-5.778-.712-5.839 2.068-.068 3.613 2.217 7.272 6.097 6.954" stroke="#000" stroke-width="1.5" stroke-linecap="round" stroke-linejoin="round"/>
    <path d="M132.869 146.089c1.131.394 1.951 1.128 2.293 2.227" stroke="#000" stroke-width="1.5" stroke-linecap="round" stroke-linejoin="round"/>
    <path d="M166.08 175 155 183.996l5.667 9.004L172 178.936 166.08 175zM142.928 175 154 184.504 148.333 194 137 179.155l5.928-4.155z" fill="#fff" stroke="#000" stroke-width="1.5" stroke-linecap="round" stroke-linejoin="round"/>
    <path d="M168.561 223.312s.007-.015.015-.023l.023-.045c.174-.303.334-.652.486-1.03a18.961 18.961 0 0 0 1.731-8.007c-.076-10.491-8.663-18.936-19.186-18.853-10.516.076-18.981 8.65-18.898 19.141a18.86 18.86 0 0 0 1.845 7.984c.16.378.327.727.509 1.022 0 .015.015.031.023.046 0 .007.007.015.015.022.015.031.038.061.053.091a18.688 18.688 0 0 0 2.301 3.22c1.184 1.469 2.505 2.946 4.168 5.158 2.832 3.764 3.234 7.514 3.234 7.514l7.076-.053 7.076-.053s.35-3.75 3.128-7.56c1.633-2.242 2.931-3.734 4.093-5.219a18.97 18.97 0 0 0 2.255-3.257c.015-.03.038-.06.053-.091v-.007z" fill="#55BAFF" stroke="#000" stroke-width="1.5" stroke-linecap="round" stroke-linejoin="round"/>
    <path d="m143.734 225.865 3.743 14.944M159.306 225.865l-3.751 14.944M144.523 230.387c2.141.204 4.245-.5 5.148-2.553.395-.894.964-3.106-.266-3.5-2.072-.666-4.009 7.325 1.769 5.848 3.356-.856 5.497-8.196 2.369-6.461-3.644 2.022.623 9.582 3.986 4.704" stroke="#231100" stroke-width="1.5" stroke-miterlimit="10" stroke-linecap="round"/>
    <path d="M138.123 207.057c-1.496 2.795-2.521 6.279-1.966 10.263M139.846 204.05s1.185-1.773 1.77-2.068" stroke="#fff" stroke-width="1.5" stroke-miterlimit="10" stroke-linecap="round"/>
    <path d="M160.262 246.149a1.47 1.47 0 0 0-1.488-1.462c.82 0 1.473-.666 1.466-1.484a1.47 1.47 0 0 0-1.489-1.462 1.47 1.47 0 0 0 1.466-1.485 1.47 1.47 0 0 0-1.488-1.462l-13.598.099a1.47 1.47 0 0 0-1.466 1.484c0 .811.669 1.47 1.489 1.462a1.47 1.47 0 0 0-1.466 1.485 1.47 1.47 0 0 0 1.488 1.462c-.82 0-1.473.674-1.465 1.485.008.81.676 1.469 1.488 1.461h.524c-.334.303-.516.637-.516.985.007 1.424 3.105 2.56 6.916 2.53 3.812-.03 6.887-1.204 6.879-2.628 0-.349-.19-.682-.531-.977h.326a1.474 1.474 0 0 0 1.465-1.485v-.008z" fill="#131313"/>
    <path d="M146.513 242.37h11.388M146.513 245.399h11.388M146.513 248.429h11.388" stroke="#fff" stroke-width="1.5" stroke-linecap="round" stroke-linejoin="round"/>
    <path d="M170.747 176.243c6.978-.507 12.011-.613 18.936 3.5 4.062 2.416 7.767 5.915 10.766 10.619 4.935 7.734 10.561 17.748 15.002 26.201 4.305 8.203 10.341 18.944 6.568 27.738-3.637 8.484-13.287 11.695-20.614 13.937-1.814.553-23.103 6.189-22.815 7.923-.531-2.242-3.728-19.588-4.305-19.603 2.384.068 22.497-9.62 22.375-9.847-4.7-9.104-12.725-18.08-17.462-27.2M136.908 177.251c-6.977-.508-11.252-.614-18.176 3.499-4.062 2.416-7.767 5.158-10.766 9.862-4.935 7.734-10.56 17.748-15.002 26.201-4.305 8.203-10.341 18.944-6.568 27.738 3.637 8.484 13.287 11.695 20.614 13.937 1.814.553 23.103 6.189 22.815 7.916.531-2.242 3.727-19.588 4.304-19.603-2.384.068-22.496-9.62-22.374-9.847 4.699-9.105 12.725-18.081 17.462-27.201" fill="#131313"/>
    <path d="M140.469 261.389c3.341-.507 11.449-2.295 12.588-6.264 1.526-5.332-5.58-1.818-8.503-1.454-4.556.575-9.445-.28-13.082-3.219 3.424 2.764 11.533-5 3.477-5.537-3.553-.235-7.083.439-10.545 1.174-1.883.401-3.516.84-5.361 1.424.372 1.181.304 10.127.562 10.21 6.689 2.25 13.613 4.75 20.864 3.659v.007z" fill="#fff" stroke="#000" stroke-width="2" stroke-linecap="round" stroke-linejoin="round"/>
    <path d="M163.398 260.511c-3.341-.508-11.449-2.295-12.588-6.265-1.526-5.332 5.58-1.817 8.503-1.454 4.556.576 9.445-.28 13.082-3.219-3.424 2.765-11.533-4.999-3.477-5.537 3.553-.235 7.083.439 10.545 1.174 1.883.401 3.516.841 5.361 1.424-.372 1.182-.304 10.127-.562 10.211-6.689 2.249-13.613 4.749-20.864 3.658v.008z" fill="#fff" stroke="#000" stroke-width="2" stroke-linecap="round" stroke-linejoin="round"/>
    <path d="M60.719 280.243h180.698" stroke="#000" stroke-width="1.5" stroke-linecap="round" stroke-linejoin="round"/>
    <path d="m67.036 77.69-6.682-1.666-6.68-1.667 1.89 6.605 1.898 6.605 2.801-2.885 12.224 11.786 3.97-4.106-12.223-11.786 2.802-2.886z" fill="#55BAFF" stroke="#000" stroke-linecap="round" stroke-linejoin="round"/>
    <path d="m216.605 135.257-6.681-1.666-6.682-1.667 1.891 6.605 1.898 6.605 2.802-2.886 12.223 11.787 3.971-4.106-12.224-11.786 2.802-2.886z" fill="#fff" stroke="#000" stroke-linecap="round" stroke-linejoin="round"/>
    <path d="m77.278 166.343-6.681-1.666-6.69-1.667 1.899 6.606 1.898 6.612 2.801-2.893 12.216 11.786 3.979-4.106-12.224-11.786 2.802-2.886z" fill="#131313"/>
    <path d="m87.922 33.757 53.526 47.72M27.563 167.82l53.526 47.72M192.689 68.98l53.526 47.712" stroke="#55BAFF" stroke-width="1.5" stroke-linecap="round" stroke-linejoin="round"/>
    <path d="m260.814 206.741-9.111 9.847M251.703 206.741l9.111 9.847" stroke="#000" stroke-width="2" stroke-miterlimit="10"/>
    <path d="M238.417 201.817a3.413 3.413 0 0 0 3.416-3.408 3.413 3.413 0 0 0-3.416-3.409 3.413 3.413 0 0 0-3.417 3.409 3.413 3.413 0 0 0 3.417 3.408z" fill="#131313" stroke="#000" stroke-width="2" stroke-miterlimit="10"/>
    <path d="M39.59 226.902c.838 0 1.518-.678 1.518-1.515 0-.836-.68-1.515-1.519-1.515-.838 0-1.518.679-1.518 1.515 0 .837.68 1.515 1.518 1.515zM48.062 226.902c.839 0 1.519-.678 1.519-1.515 0-.836-.68-1.515-1.519-1.515-.838 0-1.518.679-1.518 1.515 0 .837.68 1.515 1.518 1.515zM56.543 226.902c.839 0 1.519-.678 1.519-1.515 0-.836-.68-1.515-1.519-1.515-.839 0-1.518.679-1.518 1.515 0 .837.68 1.515 1.518 1.515zM39.59 237.128c.838 0 1.518-.678 1.518-1.515 0-.837-.68-1.515-1.519-1.515-.838 0-1.518.678-1.518 1.515 0 .837.68 1.515 1.518 1.515zM48.062 237.128c.839 0 1.519-.678 1.519-1.515 0-.837-.68-1.515-1.519-1.515-.838 0-1.518.678-1.518 1.515 0 .837.68 1.515 1.518 1.515zM56.543 237.128c.839 0 1.519-.678 1.519-1.515 0-.837-.68-1.515-1.519-1.515-.839 0-1.518.678-1.518 1.515 0 .837.68 1.515 1.518 1.515zM39.59 247.354c.838 0 1.518-.679 1.518-1.515 0-.837-.68-1.515-1.519-1.515-.838 0-1.518.678-1.518 1.515 0 .836.68 1.515 1.518 1.515zM48.062 247.354c.839 0 1.519-.679 1.519-1.515 0-.837-.68-1.515-1.519-1.515-.838 0-1.518.678-1.518 1.515 0 .836.68 1.515 1.518 1.515zM56.543 247.354c.839 0 1.519-.679 1.519-1.515 0-.837-.68-1.515-1.519-1.515-.839 0-1.518.678-1.518 1.515 0 .836.68 1.515 1.518 1.515zM220.728 58.292c.838 0 1.518-.679 1.518-1.515 0-.837-.68-1.515-1.518-1.515-.839 0-1.519.678-1.519 1.515 0 .836.68 1.515 1.519 1.515zM229.201 58.292c.838 0 1.518-.679 1.518-1.515 0-.837-.68-1.515-1.518-1.515-.839 0-1.519.678-1.519 1.515 0 .836.68 1.515 1.519 1.515zM237.681 58.292c.839 0 1.519-.679 1.519-1.515 0-.837-.68-1.515-1.519-1.515-.838 0-1.518.678-1.518 1.515 0 .836.68 1.515 1.518 1.515zM220.728 68.6c.838 0 1.518-.678 1.518-1.514 0-.837-.68-1.515-1.518-1.515-.839 0-1.519.678-1.519 1.515 0 .836.68 1.515 1.519 1.515zM229.201 68.6c.838 0 1.518-.678 1.518-1.514 0-.837-.68-1.515-1.518-1.515-.839 0-1.519.678-1.519 1.515 0 .836.68 1.515 1.519 1.515zM237.681 68.6c.839 0 1.519-.678 1.519-1.514 0-.837-.68-1.515-1.519-1.515-.838 0-1.518.678-1.518 1.515 0 .836.68 1.515 1.518 1.515zM246.215 58.292c.839 0 1.519-.679 1.519-1.515 0-.837-.68-1.515-1.519-1.515-.838 0-1.518.678-1.518 1.515 0 .836.68 1.515 1.518 1.515zM246.215 68.6c.839 0 1.519-.678 1.519-1.514 0-.837-.68-1.515-1.519-1.515-.838 0-1.518.678-1.518 1.515 0 .836.68 1.515 1.518 1.515z" fill="#131313"/>
</svg>
