<svg width="138" height="36" viewBox="0 0 138 36" fill="none" xmlns="http://www.w3.org/2000/svg">
    <g clip-path="url(#160gfgf5la)">
        <path d="m29.619 26.79-12.192 7.083a.94.94 0 0 1-.964 0 .968.968 0 0 1-.458-.709V19.122c0-.762-.405-1.459-1.057-1.843L3.595 10.7a.436.436 0 0 0-.652.377V24.83c0 .402.211.774.564.98L14.002 31.9v1.016c0 .922.44 1.796 1.186 2.334.535.384 1.146.762 1.763.762.505 0 1.01-.136 1.475-.402l11.38-6.616a.998.998 0 0 0 .494-.863v-.945a.449.449 0 0 0-.675-.39l-.006-.006z" fill="#fff"/>
        <path d="M30.959 6.746 19.553.136a.994.994 0 0 0-.993 0l-.67.673a.448.448 0 0 0 .094.71l11.986 6.946a.957.957 0 0 1 .482.84.962.962 0 0 1-.429.797l-11.727 6.811a2.13 2.13 0 0 0-1.058 1.843v13.18c0 .336.358.543.652.378l11.845-6.877c.347-.2.564-.573.564-.98V12.264l.559-.325c.87-.502 1.498-1.382 1.574-2.387a2.946 2.946 0 0 0-1.463-2.806h-.011z" fill="#fff"/>
        <path d="M28.18 14.367a.423.423 0 0 0-.641-.367l-1.105.674-6.387 3.704c-.37.213-.593.608-.593 1.04v3.308c0 .921.993 1.5 1.786 1.04l5.194-3.013v2.026l-5.182 3.007-1.369.791a.874.874 0 0 0-.435.757v.78c0 .324.353.531.635.366l1.151-.668 6.622-3.846a.64.64 0 0 0 .317-.549v-9.056l.006.006zm-1.746 4.36-5.182 3.006.018-1.713c0-.2.111-.39.282-.49l4.876-2.83v2.027h.006zM12.074 24.22l.042.024c.77.485 1.768-.07 1.768-.986v-3.45c0-.426-.223-.822-.593-1.028l-1.175-.68-5.289-3.066-1.134-.661a.422.422 0 0 0-.634.366v9.133c0 .23.123.437.317.55l.494.283a.633.633 0 0 0 .952-.55v-7.088l5.006 2.906c.176.1.288.295.288.502v2.026l-3.467-2.008a.21.21 0 0 0-.317.183v.85c0 .337.082.668.235.97l2.45 4.802c.188.367.47.668.828.875l1.404.815a.422.422 0 0 0 .635-.366v-.804a.867.867 0 0 0-.435-.756l-1.328-.768-1.427-2.877 1.38.803z" fill="#202020"/>
        <path d="M28.714 8.696 16.869 1.82a1.12 1.12 0 0 0-1.122 0L5.235 7.922l-.693-.402c-.87-.502-1.94-.614-2.844-.177A2.92 2.92 0 0 0 .012 10.02L0 23.441c0 .16.082.307.223.39l1.081.632c.3.177.676-.041.676-.39v-14.06a.958.958 0 0 1 .494-.839.944.944 0 0 1 .928-.011l11.851 6.876a2.114 2.114 0 0 0 2.115 0L28.72 9.452a.439.439 0 0 0 0-.756h-.006zM43.709 20.694V25.2a.634.634 0 0 1-.635.638h-1.675a.634.634 0 0 1-.634-.638V11.124c0-.355.282-.638.634-.638h4.995c3.413 0 5.123 1.683 5.123 5.057 0 2.002-.71 3.48-2.133 4.424l1.769 5.016a.637.637 0 0 1-.6.85h-1.862a.64.64 0 0 1-.605-.437l-1.54-4.708H43.71v.006zm4.289-3.344c.34-.449.51-1.045.51-1.784 0-.738-.181-1.323-.546-1.76-.364-.437-.887-.656-1.568-.656h-2.685v4.88h2.732c.699 0 1.216-.225 1.557-.68zM94.08 25.201V11.124c0-.355.288-.638.635-.638h3.871c.294 0 .553.207.623.496l2.45 10.704 2.451-10.704a.636.636 0 0 1 .622-.496h3.872c.353 0 .635.283.635.638V25.2a.634.634 0 0 1-.635.638h-1.674a.634.634 0 0 1-.635-.638V13.96h-.317l-2.838 11.2h-2.944l-2.837-11.2h-.318v11.236a.637.637 0 0 1-.634.638h-1.675a.634.634 0 0 1-.634-.638l-.018.006zM113.487 25.201V11.124c0-.355.282-.638.635-.638h8.114c.352 0 .634.283.634.638v1.43a.634.634 0 0 1-.634.637h-5.805v3.592h4.53c.352 0 .634.284.634.638v1.383a.633.633 0 0 1-.634.638h-4.53v3.68h5.805c.352 0 .634.283.634.638v1.43a.634.634 0 0 1-.634.637h-8.114a.634.634 0 0 1-.635-.638v.012zM89.779 10.51H88.11a.634.634 0 0 0-.634.638v9.587c0 1.79-.864 2.688-2.58 2.688-1.715 0-2.579-.898-2.579-2.688v-9.162c0-.59-.476-1.07-1.063-1.07l-9.883-.017c-2.45 0-4.454 1.997-4.454 4.478 0 1.24.523 2.392 1.346 3.202.076.076.146.13.223.189a4.382 4.382 0 0 0 2.885 1.092h.505a1.84 1.84 0 0 1 1.833 1.844 1.84 1.84 0 0 1-1.833 1.843h-7.861l-6.446-.006v-3.68h5.805a.634.634 0 0 0 .635-.639v-1.382a.634.634 0 0 0-.635-.638H57.57v-3.592h5.805a.634.634 0 0 0 .635-.638v-1.43a.634.634 0 0 0-.635-.637H55.26a.634.634 0 0 0-.635.638v14.077c0 .355.282.638.635.638h8.478l8.132.006a4.452 4.452 0 0 0 4.101-2.711c0-.018.018-.018.018-.036.24-.543.376-1.146.376-1.807 0-.957-.3-1.861-.805-2.576a3.354 3.354 0 0 0-.523-.62l-.018-.018a1.343 1.343 0 0 0-.24-.207 4.372 4.372 0 0 0-2.903-1.093h-.505c-.635 0-1.199-.36-1.516-.868a1.705 1.705 0 0 1-.264-.922c0-.337.094-.655.264-.921a1.772 1.772 0 0 1 1.516-.869h7.997v7.473c0 1.885.458 3.261 1.374 4.141.917.88 2.304 1.324 4.148 1.324 1.846 0 3.232-.443 4.149-1.324.916-.88 1.375-2.262 1.375-4.14v-9.53a.634.634 0 0 0-.635-.638zM138 14.952c0-2.936-2.362-5.323-5.265-5.323-2.902 0-5.264 2.387-5.264 5.323 0 2.936 2.203 5.151 4.965 5.305l-3.255 4.43a.647.647 0 0 0 .129.892l.881.662a.631.631 0 0 0 .893-.136l6.123-8.377c.493-.81.787-1.76.787-2.782l.006.006zm-8.155 0c0-1.613 1.298-2.924 2.89-2.924 1.593 0 2.891 1.311 2.891 2.924 0 1.612-1.298 2.924-2.891 2.924-1.592 0-2.89-1.312-2.89-2.924z" fill="#fff"/>
    </g>
    <defs>
        <clipPath id="160gfgf5la">
            <path fill="#fff" d="M0 0h138v36H0z"/>
        </clipPath>
    </defs>
</svg>
